<svg xmlns="http://www.w3.org/2000/svg" viewBox="0 0 2842 3000" width="2842" height="3000"><g transform="translate(1706.8421052631577 304.7368421052631) rotate(0.0 482.36842105263156 505.26315789473676) scale(1.5603104685851532 1.5616786190661598)"><svg width="618.298" height="647.077" viewBox="0 0 618.298 647.077"><path d="M599.441 646.077H18.857C8.995 646.077 1 638.082 1 628.22V18.857C1 8.995 8.995 1 18.857 1h580.584c9.862 0 17.857 7.995 17.857 17.857V628.22c0 9.862-7.995 17.857-17.857 17.857z" fill="#fff"/><g fill="#172635"><path d="M599.441 647.077H18.857C8.459 647.077 0 638.618 0 628.22V18.857C0 8.459 8.459 0 18.857 0h580.584c10.398 0 18.857 8.459 18.857 18.857V628.22c0 10.398-8.459 18.857-18.857 18.857zM18.857 2C9.562 2 2 9.562 2 18.857V628.22c0 9.295 7.562 16.857 16.857 16.857h580.584c9.295 0 16.857-7.562 16.857-16.857V18.857C616.298 9.562 608.736 2 599.441 2z"/><path d="M579.036 545.197H39.262a1 1 0 0 1 0-2h539.773a1 1 0 0 1 .001 2zm-25.277 66.311c-9.618 0-17.443-7.825-17.443-17.443s7.825-17.443 17.443-17.443 17.443 7.825 17.443 17.443-7.825 17.443-17.443 17.443zm0-32.886c-8.515 0-15.443 6.928-15.443 15.443s6.928 15.443 15.443 15.443 15.443-6.928 15.443-15.443-6.928-15.443-15.443-15.443zm0-67.114c-9.618 0-17.443-7.825-17.443-17.443s7.825-17.443 17.443-17.443 17.443 7.825 17.443 17.443-7.825 17.443-17.443 17.443zm0-32.886c-8.515 0-15.443 6.928-15.443 15.443s6.928 15.443 15.443 15.443 15.443-6.928 15.443-15.443-6.928-15.443-15.443-15.443zm25.277-84.187h-52.369c-60.833 0-96.185-26.762-127.375-50.374-26.918-20.378-52.344-39.626-90.143-39.626-37.884 0-63.512 19.315-90.644 39.765-31.242 23.547-66.652 50.235-126.874 50.235l-52.369-.001a1 1 0 0 1 0-2l52.369.001c59.552 0 93.164-25.333 125.67-49.833 27.407-20.656 53.294-40.167 91.848-40.167 38.47 0 64.156 19.445 91.35 40.031 32.45 24.566 66.006 49.969 126.167 49.969h52.369a1 1 0 0 1 .001 2z"/><path d="M579.036 364.435h-52.369c-30.004 0-55.099-14.227-76.717-43.492-19.024-25.753-33.163-59.761-46.835-92.649-24.343-58.553-47.335-113.859-93.966-113.859-46.867 0-70.322 55.731-95.155 114.734-27.988 66.501-56.929 135.266-122.363 135.266H39.475a1 1 0 0 1 0-2h52.156c64.106 0 92.785-68.143 120.52-134.042 25.097-59.633 48.803-115.959 96.998-115.959 47.965 0 71.206 55.904 95.812 115.091 27.574 66.326 56.086 134.909 121.705 134.909h52.369a1 1 0 0 1 .001 2.001z"/></g></svg></g><g transform="translate(164.21052631578945 481.578947368421) rotate(0.0 438.157894736842 311.0526315789473) scale(1.5789075401227428 1.5780261856223385)"><svg width="555.014" height="394.23" viewBox="0 0 555.014 394.23"><path d="M537.157 393.23h-519.3C7.995 393.23 0 385.235 0 375.373V18.857C0 8.995 7.995 1 17.857 1h519.3c9.862 0 17.857 7.995 17.857 17.857v356.516c0 9.862-7.995 17.857-17.857 17.857z" fill="#e6e6e6"/><path d="M49.404 394.229a1 1 0 0 1-1-1V1a1 1 0 0 1 2 0v392.229a1 1 0 0 1-1 1z" fill="#fff"/><path d="M333.957 44.902h147.54v27.567h-147.54z" fill="#172635"/><path d="M481.497 73.47h-147.54a1 1 0 0 1-1-1V44.902a1 1 0 0 1 1-1h147.54a1 1 0 0 1 1 1V72.47a1 1 0 0 1-1 1zm-146.54-2h145.54V45.902h-145.54z" fill="#172635"/><path d="M201.684 44.902h111.593v27.567H201.684z" fill="#fff"/><path d="M98.043 44.902H180v27.567H98.043z" fill="#172635"/><path d="M180 73.47H98.042a1 1 0 0 1-1-1V44.902a1 1 0 0 1 1-1H180a1 1 0 0 1 1 1V72.47a1 1 0 0 1-1 1zm-80.958-2H179V45.902H99.042z" fill="#172635"/><path d="M388.34 100.282h56.681v27.56H388.34z" fill="#fff"/><path d="M157.516 100.282h207.845v27.56H157.516z" fill="#9de9ff"/><path d="M219.83 155.662h89.617v27.553H219.83z" fill="#fff"/><path d="M330.128 155.662h29.106v27.553h-29.106z" fill="#172635"/><path d="M359.234 184.216h-29.106a1 1 0 0 1-1-1v-27.553a1 1 0 0 1 1-1h29.106a1 1 0 0 1 1 1v27.553a1 1 0 0 1-1 1zm-28.106-2h27.106v-25.553h-27.106zm48.021-26.554h96.511v27.553h-96.511z" fill="#172635"/><path d="M475.66 184.216h-96.511a1 1 0 0 1-1-1v-27.553a1 1 0 0 1 1-1h96.511a1 1 0 0 1 1 1v27.553a1 1 0 0 1-1 1zm-95.511-2h94.511v-25.553h-94.511z" fill="#172635"/><path d="M98.043 211.042H180v27.546H98.043z" fill="#9de9ff"/><path d="M201.684 211.042H407.49v27.546H201.684z" fill="#fff"/><path d="M430.085 211.042h28.34v27.546h-28.34z" fill="#172635"/><path d="M458.426 239.588h-28.341a1 1 0 0 1-1-1v-27.546a1 1 0 0 1 1-1h28.341a1 1 0 0 1 1 1v27.546a1 1 0 0 1-1 1zm-27.341-2h26.341v-25.546h-26.341zm-273.569 28.834h99.964v27.539h-99.964z" fill="#172635"/><path d="M257.48 294.961h-99.964a1 1 0 0 1-1-1v-27.539a1 1 0 0 1 1-1h99.964a1 1 0 0 1 1 1v27.539a1 1 0 0 1-1 1zm-98.964-2h97.964v-25.539h-97.964z" fill="#172635"/><path d="M280.34 266.422h58.177v27.539H280.34z" fill="#9de9ff"/><g fill="#fff"><path d="M360.255 266.422h156v27.539h-156zm-202.739 55.38h26.697v27.532h-26.697zm45.973 0h191.489v27.532H203.489zm213.192 0h65.872v27.532h-65.872z"/><circle cx="24.702" cy="58.686" r="13.784"/><circle cx="25" cy="280.195" r="13.784"/></g></svg></g><g transform="translate(956.8421052631578 110.52631578947367) rotate(0.0 244.73684210526307 341.05263157894734) scale(1.5788455074205734 1.5763055970038518)"><svg width="310.02" height="432.724" viewBox="0 0 310.02 432.724"><g fill="#9DE9FF"><circle cx="18.85" cy="413.874" r="18.85"/><path d="M18.85 416.374a2.5 2.5 0 0 1-2.5-2.5V118.34a2.5 2.5 0 0 1 2.5-2.5h178.83a2.5 2.5 0 1 1 0 5H21.35v293.034a2.5 2.5 0 0 1-2.5 2.5z"/><circle cx="191.68" cy="118.34" r="118.34"/></g><path d="M181.377 195.197h-1.889c-10.205 0-19.559-4.691-25.664-12.869-6.104-8.179-7.94-18.481-5.036-28.265l.971-3.273c3.382-11.398-1.219-23.879-11.191-30.353a2.497 2.497 0 0 1-.183-4.062l2.1-1.649c8.763-6.884 12.382-18.236 9.219-28.921l-.949-3.207c-2.896-9.781-1.055-20.079 5.049-28.252s15.456-12.861 25.657-12.861h1.916a2.5 2.5 0 1 1 0 5h-1.916c-8.608 0-16.5 3.956-21.651 10.853s-6.704 15.587-4.26 23.841l.949 3.207c3.689 12.462-.405 25.689-10.435 33.881 9.874 8.062 14.17 21.547 10.49 33.948l-.971 3.273c-2.45 8.256-.901 16.95 4.25 23.851 5.151 6.902 13.044 10.86 21.656 10.86h1.889a2.5 2.5 0 1 1 0 5zm22.494 0h-1.888a2.5 2.5 0 1 1 0-5h1.888c8.612 0 16.506-3.958 21.657-10.86s6.7-15.595 4.25-23.851l-.971-3.273c-3.68-12.401.616-25.885 10.49-33.948-10.03-8.192-14.125-21.419-10.436-33.881l.949-3.207c2.444-8.254.891-16.944-4.26-23.841s-13.043-10.853-21.651-10.853h-1.916a2.5 2.5 0 1 1 0-5h1.916c10.201 0 19.553 4.688 25.657 12.861s7.945 18.471 5.049 28.252l-.949 3.207c-3.163 10.685.455 22.038 9.219 28.921l2.1 1.649a2.498 2.498 0 0 1-.183 4.062c-9.971 6.474-14.573 18.956-11.191 30.353l.971 3.273c2.903 9.784 1.068 20.086-5.036 28.264-6.104 8.179-15.458 12.87-25.664 12.87z" fill="#fff"/></svg></g><g transform="translate(2051.052631578947 1203.1578947368419) rotate(0.0 277.8947368421052 461.8421052631578) scale(1.5762918540192528 1.5786667165603303)"><svg width="352.593" height="585.104" viewBox="0 0 352.593 585.104"><path d="M120.351 368.573.865 575.529c-2.457 4.255.614 9.574 5.528 9.574h238.972c4.914 0 7.985-5.319 5.528-9.574L131.407 368.573c-2.457-4.255-8.599-4.255-11.056 0z" fill="#0275A4"/><path d="m144.645 449.774-11.106 74.572c-1.483 8.782-13.87 8.713-15.319 0l-11.106-74.572c-1.543-10.364 5.607-20.018 15.971-21.561 12.37-2.055 23.577 9.241 21.561 21.561z" fill="#fff"/><circle cx="125.879" cy="553.562" fill="#fff" r="12.766"/><g fill="#0275A4"><path d="M333.743 493.626H145.841a2.5 2.5 0 1 1 0-5h185.402V18.851a2.5 2.5 0 1 1 5 0v472.275a2.5 2.5 0 0 1-2.5 2.5z"/><circle cx="333.743" cy="18.85" r="18.85"/></g></svg></g><g transform="translate(209.99999999999997 655.2631578947368) rotate(0.0 1084.736842105263 1117.1052631578946) scale(1.5766306164453585 1.575826897067284)"><svg width="1376.019" height="1417.802" viewBox="0 0 1376.019 1417.802"><path d="M253.734 679.501c-46.768-15.029-63.223-41.643-102.988-61.516-48.732-24.356-84.565-33.878-115.127-81.643C-8.596 467.241-8.882 390.835 19.584 353.98c12.958-16.778 29.255-26.742 45.995-31.454 35.857 17.502 61.886 30.295 79.609 40.599 37.158 21.602 78.134 42.092 112.076 77.89 14.839 15.65 30.524 49.367 59.977 72.333 45.869 35.767 71.362 85.821 48.096 136.764-20.413 44.694-68.974 43.087-111.603 29.389z" fill="#172635"/><path d="m1020.687 559.946 85.787 53.886c-11.115 75.134-43.285 119.177-66.701 144.348z" fill="#0275a4"/><path d="M1139.824 570.912c-.452 0-.861-.308-.972-.767-9.508-39.67-11.459-67.914-13.027-90.609-1.397-20.221-2.5-36.192-7.985-53.626-9.428-29.973-22.179-46.625-30.616-57.645-3.126-4.083-5.595-7.307-7.098-10.171a1 1 0 0 1 1.77-.93c1.424 2.713 3.847 5.878 6.915 9.885 8.522 11.13 21.402 27.951 30.936 58.26 5.555 17.661 6.722 34.542 8.072 54.089 1.563 22.621 3.508 50.772 12.978 90.281a1.002 1.002 0 0 1-.973 1.233z" fill="#172635"/><path d="m946.975 286.159-30.85 92.977 49.212.766 28.094-97.144z" fill="#fff"/><path d="M965.338 380.903h-.016l-49.213-.766a1.003 1.003 0 0 1-.934-1.315l30.851-92.977a1 1 0 0 1 .876-.683l46.456-3.401a1 1 0 0 1 1.034 1.276l-28.093 97.145a1.003 1.003 0 0 1-.961.721zm-47.835-2.745 47.086.733 27.482-95.031-44.357 3.248z" fill="#172635"/><path d="M1361.912 480.061c-32.17-52.439-77.387-63.877-98.809-133.141-28.276-91.426-45.931-135.634-98.761-146.83-64.817-13.736-141.243 45.842-141.243 45.842-2.477 3.116 4.077 16.245 14.747 35.114-27.2-5.441-54.417-2.504-76.216 1.842-.111-3.75-.441-7.365-1.014-10.802-75.094-26.843-151.211-18.76-197.016 43.294-18.774 25.434-35.092 41.543-49.834 52.276-28.131 20.481-77.863 19.045-129.25 54.097-57.896 39.492-70.885 115.079-33.79 157.727 38.898 44.72 124.516 46.826 173.65.138 18.259-17.35 31.242-32.406 41.625-45.689 50.429 64.033 153.638 29.286 243.265 38.389 48.685 25.858 95.324 69.533 185.668 95.713 111.765 32.387 147.064-51.574 148.302-77.552 15.612-7.213 50.846-57.979 18.676-110.418z" fill="#fff"/><path d="M1242.534 676.421c-14.8 0-30.778-2.475-47.879-7.43-63.847-18.501-105.489-45.446-142.229-69.219-15.014-9.715-29.198-18.893-43.457-26.479-27.633-2.786-56.737-1.396-84.886-.052-63.158 3.015-122.842 5.862-158.077-37.7-12.51 15.91-25.546 30.173-40.942 44.803-24.798 23.563-60.055 36.074-96.726 34.333-32.036-1.523-60.6-14.113-78.368-34.54-16.656-19.149-23.839-45.127-20.229-73.149 4.407-34.199 24.165-65.566 54.209-86.06 28.97-19.761 56.99-27.855 81.711-34.996 18.948-5.473 35.312-10.2 47.513-19.083 16.275-11.849 32.506-28.878 49.618-52.061 22.064-29.891 51.72-48.521 88.145-55.373 33.09-6.226 71.132-2.167 110.013 11.73a1 1 0 0 1 .65.777c.509 3.053.84 6.33.985 9.758 27.534-5.377 51.56-6.042 73.328-2.023-12.479-22.211-16.044-31.27-13.598-34.347a.943.943 0 0 1 .168-.166c.192-.15 19.502-15.111 46.494-28.184 24.965-12.091 61.811-25.002 95.571-17.848 25.851 5.478 44.12 18.982 59.235 43.786 13.987 22.952 24.945 54.163 40.274 103.727 12.803 41.396 33.869 61.737 56.171 83.273 14.571 14.07 29.639 28.62 42.535 49.641 17.054 27.799 14.567 53.68 9.477 70.496-6.674 22.05-20.188 37.064-28.04 41.086-.998 15.565-12.729 46.879-40.58 66.785-17.257 12.334-37.699 18.514-61.086 18.515zM973.143 569.678c12.21 0 24.343.437 36.224 1.644a.99.99 0 0 1 .368.112c14.393 7.645 28.667 16.881 43.778 26.659 36.624 23.698 78.135 50.558 141.699 68.977 43.507 12.608 79.59 8.977 107.247-10.792 27.634-19.751 39.064-50.871 39.778-65.847a1 1 0 0 1 .58-.86c7.419-3.427 20.859-18.138 27.511-40.116 4.971-16.424 7.398-41.704-9.268-68.871-12.763-20.805-27.737-35.264-42.219-49.248-22.493-21.719-43.738-42.234-56.693-84.121-15.281-49.41-26.193-80.503-40.071-103.276-14.805-24.294-32.675-37.516-57.942-42.871-62.507-13.246-137.018 43.044-140.313 45.569-2.305 3.499 9.731 24.784 14.895 33.916a1.002 1.002 0 0 1-1.067 1.473c-22.365-4.473-47.168-3.871-75.824 1.842a1 1 0 0 1-1.195-.95c-.105-3.548-.41-6.938-.907-10.088-38.354-13.619-75.832-17.579-108.414-11.451-35.912 6.755-65.151 25.124-86.905 54.595-17.236 23.35-33.607 40.52-50.05 52.491-12.486 9.09-29.006 13.862-48.135 19.388-24.577 7.1-52.434 15.146-81.14 34.727-29.573 20.172-49.019 51.031-53.353 84.663-3.537 27.448 3.479 52.87 19.754 71.582 17.412 20.018 45.46 32.357 76.954 33.855 36.133 1.718 70.849-10.596 95.253-33.786 15.644-14.865 28.839-29.348 41.525-45.58a.998.998 0 0 1 .786-.384h.002c.306 0 .596.141.786.381 34.489 43.792 94.095 40.945 157.203 37.933 16.214-.776 32.752-1.566 49.153-1.566z" fill="#172635"/><path d="M884.232 334.073c4.021-25.844 35.641-106.496 120.008-118.174 90.383-12.511 43.119 93.664 29.332 113.579-15.383-16.021-38.337-30.574-67.617-35.745-34.128 7.276-64.384 23.552-81.723 40.34z" fill="#fff"/><path d="M884.232 335.072a1 1 0 0 1-.987-1.154c1.846-11.864 10.256-38.874 30.067-64.852 16.177-21.213 45.061-47.829 90.792-54.159 24.542-3.395 41.142 1.634 49.334 14.955 17.751 28.862-9.999 87.119-19.043 100.184a1 1 0 0 1-1.544.123c-17.559-18.287-41.304-30.86-66.878-35.418-31.447 6.741-62.486 22.073-81.044 40.04a1.007 1.007 0 0 1-.697.281zm133.752-119.192c-4.207 0-8.742.336-13.606 1.009-45.056 6.237-73.526 32.477-89.476 53.391-18.061 23.683-26.52 48.175-29.144 60.99 19.043-17.343 49.351-31.982 79.988-38.515.126-.027.256-.029.382-.007 25.646 4.529 49.496 16.993 67.301 35.147 4.634-7.103 13.228-23.974 18.779-43.05 4.791-16.462 8.598-39.183-.475-53.934-6.148-9.999-17.474-15.031-33.749-15.031z" fill="#172635"/><path d="M990.135 174.475c7.451 28.916 17.274 53.526 32.964 71.456-5.485 16.396-46.066 29.162-57.145 47.8-9.745-16.851-23.532-18.128-23.332-23.941 1.854-20.911-1.58-44-11.656-69.824z" fill="#fff"/><path d="M965.954 294.732h-.006a1 1 0 0 1-.86-.5c-5.431-9.391-12.08-13.797-16.935-17.015-3.853-2.553-6.636-4.398-6.531-7.461 1.905-21.499-1.995-44.839-11.588-69.427a1 1 0 0 1 .536-1.282l59.168-25.491a1 1 0 0 1 1.364.669c8.376 32.511 18.782 55.087 32.748 71.047a1 1 0 0 1 .196.976c-2.925 8.743-15.009 16.229-27.802 24.153-11.875 7.356-24.153 14.962-29.431 23.84a.994.994 0 0 1-.859.491zm-33.707-94.228c9.451 24.547 13.276 47.884 11.371 69.375-.063 1.891 2.206 3.395 5.641 5.671 4.774 3.164 11.227 7.441 16.721 16.28 5.897-8.686 17.74-16.022 29.211-23.128 12.203-7.559 23.744-14.708 26.768-22.557-13.822-15.989-24.169-38.368-32.5-70.291z" fill="#172635"/><path d="M1246.869 469.452c-147.442-13.846-206.417-3.673-280.67-31.533-39.723-3.115-59.906 75.395-27.323 102.473 72.441-5.287 114.268 95.703 284.662 129.874 62.749 12.583 147.419-189.161 23.331-200.814z" fill="#fff"/><path d="m983.574 439.34-.055-.002.206.055-.151-.053zm-27.363 115.495.016.014.136-.007-.152-.007z" fill="#9de9ff"/><path d="M854.849 405.7c-22.347-18.493-58.48-38.2-84.331-25.393-37.112 18.385-51.857 111.632-34.249 118.533s60.98-21.377 56.343-59.667c9.348 7.842 33.451 28.978 53.456 15.109s24.713-35.398 8.781-48.582z" fill="#fff"/><path d="M757.279 464.875c-1.167-11.334-18.126-18.626-26.379-11.174-3.845 22.574-2.334 42.12 5.369 45.139.906.355 3.023 1.002 4.056 1.174 14.458-5.556 18.178-23.252 16.954-35.139z" fill="#fff"/><path d="M740.325 501.015a.92.92 0 0 1-.165-.014c-1.129-.188-3.326-.865-4.256-1.229-5.997-2.35-11.163-15.87-5.99-46.239a1 1 0 0 1 .316-.574c3.905-3.526 10.108-4.263 16.187-1.928 6.605 2.538 11.259 7.932 11.857 13.742 1.403 13.628-3.503 30.761-17.59 36.176a1.028 1.028 0 0 1-.359.066zm-8.499-46.795c-3.887 23.112-1.919 41.053 4.808 43.689.766.3 2.56.855 3.594 1.07 12.905-5.15 17.375-21.193 16.057-34.001-.522-5.068-4.677-9.81-10.585-12.08-5.238-2.013-10.515-1.501-13.874 1.322z" fill="#172635"/><path d="M902.226 412.465c-22.691-21.235-60.044-44.668-88.526-32.659-40.887 17.238-62.742 115.994-44.362 124.523s66.607-18.881 64.148-60.129c9.485 8.996 33.88 33.173 56.179 19.647 22.298-13.527 28.738-36.243 12.561-51.382z" fill="#fff"/><path d="M766.549 455.677c-5.593 23.901-5.256 44.918 2.789 48.651 2.041.947 4.45 1.451 7.116 1.542 13.427-6.587 22.123-24.62 18.455-40.399-2.927-12.589-22.097-15.301-28.36-9.794z" fill="#fff"/><path d="M776.454 506.871h-.034c-2.852-.098-5.376-.648-7.503-1.635-9.341-4.335-8.409-28.128-3.341-49.786a1 1 0 0 1 .313-.523c3.568-3.136 10.988-3.863 17.643-1.727 6.559 2.105 11.061 6.496 12.351 12.045 3.706 15.942-4.812 34.569-18.988 41.524a1.01 1.01 0 0 1-.441.102zm-9.007-50.641c-5.692 24.532-4.75 43.915 2.312 47.191 1.821.846 4 1.33 6.479 1.44 13.254-6.654 21.184-24.16 17.696-39.164-1.126-4.848-5.141-8.709-11.014-10.594-5.781-1.855-12.343-1.361-15.473 1.127z" fill="#172635"/><path d="M766.55 456.677a1 1 0 0 1-.975-1.228c6.525-27.885 22.495-64.467 46.029-75.794a.999.999 0 1 1 .867 1.801c-14.311 6.889-34.67 30.52-44.949 74.449a.998.998 0 0 1-.972.772z" fill="#172635"/><path d="M935.967 416.319c-20.428-19.685-54.21-41.573-80.368-30.992-37.551 15.189-58.818 105.038-42.155 113.069 16.663 8.03 61.049-16.345 59.355-54.028 8.537 8.338 30.482 30.731 51.016 18.683 20.535-12.05 26.716-32.698 12.152-46.732z" fill="#fff"/><path d="M812.204 451.409c-6.071 22.771-6.336 43.335 1.24 46.986 1.804.869 3.932 1.359 6.292 1.493 12.006-4.164 22.206-19.635 19.363-35.465-2.306-12.845-18.978-16.74-26.895-13.014z" fill="#fff"/><path d="m819.736 500.888-.057-.001c-2.534-.144-4.778-.679-6.669-1.59-6.443-3.105-9.49-19.197-1.772-48.145a1 1 0 0 1 .541-.647c4.965-2.338 12.624-1.805 18.627 1.294 5.29 2.731 8.727 7.152 9.678 12.447 2.998 16.692-7.932 32.394-20.02 36.586a.987.987 0 0 1-.328.056zm-6.688-48.759c-6.1 23.147-5.763 42.188.831 45.366 1.606.774 3.528 1.239 5.717 1.383 11.234-4.018 21.321-18.678 18.52-34.277-1.075-5.985-5.284-9.298-8.627-11.023-5.231-2.702-12.048-3.284-16.441-1.449z" fill="#172635"/><path d="M821.087 500.914c-3.065 0-5.812-.527-8.076-1.618-5.643-2.72-6.525-12.626-6.271-20.458.506-15.638 5.829-36.319 13.89-53.972 9.561-20.939 21.848-35.311 34.596-40.467a37.915 37.915 0 0 1 5.125-1.656 1 1 0 0 1 .478 1.942 35.815 35.815 0 0 0-4.853 1.568c-26.946 10.899-46.276 62.983-47.236 92.649-.327 10.083 1.547 16.859 5.141 18.591 7.25 3.494 20.15.538 32.108-7.354 16.948-11.185 26.598-28.279 25.814-45.729a1 1 0 0 1 .954-1.044 1.012 1.012 0 0 1 1.044.954c.816 18.16-9.169 35.912-26.71 47.488-8.919 5.886-18.43 9.106-26.004 9.106z" fill="#172635"/><path d="M953.774 411.271c-19.859-12.657-50.945-24.909-70.488-11.998-28.054 18.535-30.58 95.137-15.702 98.931 14.878 3.793 46.984-23.34 39.407-53.722 8.318 5.38 29.856 19.991 44.582 6.81 14.726-13.18 16.359-30.997 2.201-40.021z" fill="#fff"/><path d="M859.335 454.267c-2.278 21.942.81 42.041 8.249 43.937 1.86.474 3.989.465 6.276.027 6.578-4.641 15.539-21.829 11.334-35.076-3.531-11.121-21.813-14.794-25.859-8.888z" fill="#fff"/><path d="M870.592 499.56c-1.156 0-2.244-.129-3.256-.388-8.743-2.229-11.144-24.33-8.996-45.009.017-.166.076-.324.17-.462 1.812-2.643 5.98-3.762 11.151-3.001 6.594.974 14.249 5.109 16.485 12.151 4.423 13.934-5.202 31.604-11.71 36.196a.988.988 0 0 1-.389.165 18.254 18.254 0 0 1-3.455.348zm-10.29-44.921c-2.269 22.253 1.026 40.938 7.529 42.596 1.628.416 3.519.434 5.625.054 6.093-4.49 14.897-20.874 10.784-33.832-1.975-6.22-8.892-9.895-14.871-10.778-4.187-.618-7.625.131-9.067 1.96z" fill="#172635"/><path d="M870.555 499.553c-1.136 0-2.213-.125-3.218-.38-5.127-1.307-7.503-9.286-8.593-15.749-2.164-12.828-1.234-30.556 2.426-46.266 4.345-18.652 12.004-32.403 21.565-38.72 6.383-4.216 14.356-6.091 23.714-5.576a1 1 0 0 1 .943 1.054.996.996 0 0 1-1.054.943c-8.912-.491-16.485 1.273-22.501 5.248-20.077 13.264-27.212 58.731-23.121 82.983 1.381 8.188 3.975 13.343 7.115 14.144 6.418 1.637 16.362-2.873 24.753-11.219 11.907-11.845 16.93-27.281 13.437-41.291a1 1 0 0 1 1.514-1.082l.707.458c4.8 3.115 13.734 8.913 22.928 10.871a1 1 0 0 1-.417 1.957c-8.752-1.864-17.151-6.994-22.273-10.291 2.563 14.039-2.744 29.118-14.484 40.797-7.613 7.571-16.581 12.119-23.441 12.119z" fill="#172635"/><path d="M933.277 541.36c-13.932 0-27.883-2.344-41.38-7.017-21.062-7.292-40.885-20.303-55.896-36.677-9.142 3.683-17.491 4.281-22.992 1.63-1.746-.841-3.15-2.453-4.187-4.798-14.218 10.697-30.484 15.112-39.907 10.738-3.104-1.441-5.227-5.043-6.318-10.718-10.184 5.878-20.084 7.844-26.694 5.254-5.952-2.333-7.614-12.355-7.959-20.353-.691-15.979 3.138-37.472 9.993-56.09 8.129-22.081 19.542-37.678 32.137-43.917 11.373-5.635 25.469-5.609 41.9.074.443-.209.889-.412 1.337-.601 13.12-5.533 28.981-4.241 47.149 3.84 13.039-3.169 29.005.339 46.218 10.156 13.424.798 30.061 6.744 45.699 16.339 2.653 1.217 5.024 2.485 7.049 3.77 33.287 21.115 50.607 50.802 46.333 79.412-3.231 21.625-18.37 38.675-39.51 44.497a124.158 124.158 0 0 1-32.972 4.461zm-97.008-45.885a1 1 0 0 1 .741.328c14.844 16.374 34.569 29.389 55.542 36.649 23.854 8.259 49.155 9.128 73.167 2.516 20.366-5.608 34.951-22.032 38.063-42.864 4.153-27.803-12.829-56.748-45.427-77.427-1.963-1.245-4.272-2.478-6.866-3.666a1.097 1.097 0 0 1-.107-.057c-15.472-9.501-31.892-15.367-45.051-16.091a1 1 0 0 1-.442-.131c-16.981-9.729-32.638-13.182-45.277-9.986a1.014 1.014 0 0 1-.654-.057c-17.772-7.969-33.205-9.302-45.87-3.963a34.56 34.56 0 0 0-1.621.739c-.24.114-.516.129-.764.042-16.071-5.634-29.778-5.736-40.741-.305-26.639 13.197-42.331 67.802-41.019 98.128.446 10.314 2.885 17.085 6.691 18.577 6.208 2.434 16.242.193 26.185-5.846a.998.998 0 0 1 1.507.703c.877 5.729 2.755 9.413 5.433 10.655 8.862 4.113 25.221-.644 38.894-11.312a.999.999 0 0 1 1.559.458c.883 2.523 2.117 4.181 3.667 4.927 5.042 2.43 13.268 1.705 22.006-1.941.124-.051.255-.076.384-.076z" fill="#172635"/><path d="m856.961 479.495-401.818 35.569 161.334 54.709 338.301-30.611 4.221-10.966z" fill="#9de9ff"/><path d="m960.262 534.906-1.631 2.435a4.15 4.15 0 0 1-5.384 1.361l-106.322-56.68-391.782 33.042 401.818-35.569 102.038 48.701a4.872 4.872 0 0 1 1.263 6.71z" fill="#172635"/><path d="M846.925 482.022 708.232 204.02l22.067-2.271a15.442 15.442 0 0 1 15.85 9.456L852.756 468.81l4.205 10.685z" fill="#172635"/><path d="m455.143 515.064 391.782-33.042L736.35 214.831a18.856 18.856 0 0 0-19.008-11.579l-364.887 30.774c-6.512.549-10.608 7.273-8.109 13.311z" fill="#9de9ff"/><g fill="#0275a4"><path d="M913.688 661.118c1.026-64.524-42.027-146.195-283.154-135.24-182.995 8.314-348.174 68.759-350.692 188.533 2.731 30.894 109.612 68.077 219.984 81.406 79.458 9.595 158.931 9.845 209.872 10.723 147.831 2.549 202.307-39.581 203.99-145.422z"/><path d="M775.13 804.1c49.724-7.642 89.384-8.638 143.374-1.86l-97.358-78.04z"/><path d="M1059.574 731.358c20.2-34.082 45.339-73.979 10.968-117.526-14.341-18.169-38.166-45.309-115.764-89.198-121.919-68.957-221.165-82.423-327.419-85.241-13.874 27.878-12.74 160.54 21.319 236.107 4.561 10.119 16.433 21.095 33.667 8.587 28.471 25.043 104.015 63.61 128.588 79.943 85.277 56.681 194.671 58.389 248.641-32.672zm-675.95-132.484c95.9 53.326 266.714 220.815 249.607 302.517 37.787-.255 43.422 38.298 21.201 58.464-2.308 106.447-96.776 173.366-187.925 179.881-93.447-5.75-183.064-245.495-186.665-425.326 9.025-52.765 56.535-107.38 103.782-115.536z"/></g><path d="M599.121 801.485a1 1 0 0 1-.815-.419c-13.147-18.445-28.81-37.831-46.551-57.62a1 1 0 1 1 1.489-1.335c17.791 19.844 33.5 39.289 46.691 57.794a1 1 0 0 1-.814 1.58z" fill="#fff"/><path d="M648.678 675.5c-91.915 47.195-236.553 98.232-282.03 24.513-28.055 17.038-86.805-19.728-101.417-59.686-130.186-50.306-50.912-156.419 28.452-211.594 60.894-8.854 233.031 3.607 366.613 13.142 40.893 34.545 5.322 188.772-11.618 233.625z" fill="#0275a4"/><path d="M795.959 1076.483c30.673 58.394-59.872 128.333-85.858 162.379s-39.388 78.868-79.543 117.861c-52.978 51.444-115.196 72.087-148.506 55.422-8.65-4.327-24.352-17.732-22.16-30.61 2.043-12.002 301.482-317.132 306.176-323.227 4.693-6.096 21.852 2.871 29.891 18.175z" fill="#172635"/><path d="m570.971 1209.585 29.657-83.387s-34.045-58.563-48.079-59.87c-13.478-1.255-56.412 45.771-123.803 58.821-4.793.928-6.383 7.042-2.588 10.112 7.947 6.428 22.743 13.566 36.835 19.551v.001l.013.005c17.975 7.632 34.801 13.385 34.801 13.385l-.385 12.42c-1.341 26.484-5.906 60.314-9.469 80.243-1.316 7.361-3.278 14.351-5.618 17.686-5.55 7.911-18.188 28.205-25.724 48.119 0 0-11.368 46.039 34.657 51.273s152.684-117.079 152.684-117.079z" fill="#fff"/><path d="M494.265 1379.11c-1.07 0-2.104-.057-3.108-.171-13.687-1.557-23.748-6.835-29.906-15.688-10.726-15.42-5.823-35.952-5.609-36.819a.755.755 0 0 1 .036-.114c7.475-19.754 20.171-40.258 25.84-48.339 2.015-2.872 4.002-9.173 5.453-17.288 3.626-20.285 8.132-54.008 9.455-80.118l.361-11.665c-3.372-1.173-18.417-6.481-34.169-13.169-17.792-7.556-30.265-14.182-37.087-19.7-2.045-1.654-2.918-4.273-2.279-6.835a6.743 6.743 0 0 1 5.306-5.037c42.841-8.296 75.748-30.384 97.523-45 12.849-8.625 21.33-14.33 26.562-13.835 6.127.571 16.231 10.951 30.031 30.851 10.17 14.667 18.734 29.365 18.82 29.512.147.254.176.561.078.837l-29.403 82.671 72.361 50.844a1 1 0 0 1 .179 1.475c-.267.306-27.072 30.961-59.158 60.58-41.008 37.853-71.688 57.007-91.286 57.008zm-36.694-52.145c-.274 1.181-4.621 20.861 5.33 35.154 5.816 8.354 15.399 13.344 28.482 14.832 43.008 4.911 141.563-105.148 151.083-115.909l-72.069-50.639a1 1 0 0 1-.368-1.153l29.502-82.95c-9.602-16.45-36.074-57.952-47.074-58.977-4.511-.409-13.217 5.42-25.262 13.505-21.91 14.706-55.019 36.93-98.258 45.303a4.76 4.76 0 0 0-3.746 3.557c-.456 1.826.142 3.619 1.597 4.796 6.677 5.401 18.99 11.931 36.597 19.408 17.747 7.535 34.579 13.308 34.747 13.365.415.142.689.539.676.977l-.385 12.42c-1.328 26.216-5.847 60.043-9.484 80.388-.882 4.932-2.805 13.838-5.784 18.084-5.613 8.003-18.176 28.289-25.584 47.839z" fill="#172635"/><path d="M487.955 1260.866c3.935-23.34 3.752-61.394 3.937-88.277l-41.764-18.735c-1.964-.881-2.033-3.643-.115-4.621l2.705-1.379a18.302 18.302 0 0 1 15.562-.503l36.526 15.744s-1.701 52.743-1.898 83.118c-.046 7.079-5.206 13.097-12.202 14.183-.976.15-1.908.308-2.751.47z" fill="#fff"/><path d="M487.955 1261.866a1.002 1.002 0 0 1-.986-1.166c3.556-21.095 3.734-53.96 3.877-80.368.013-2.434.026-4.805.042-7.098l-41.169-18.468a3.537 3.537 0 0 1-2.104-3.162 3.536 3.536 0 0 1 1.943-3.263l2.705-1.379a19.25 19.25 0 0 1 16.413-.531l36.526 15.744c.377.163.617.54.604.951-.017.527-1.703 53.078-1.898 83.092-.049 7.621-5.537 13.999-13.048 15.165-.962.149-1.882.305-2.714.466a1.043 1.043 0 0 1-.191.017zm-26.925-115.017c-2.697 0-5.387.634-7.859 1.895l-2.705 1.379a1.53 1.53 0 0 0-.852 1.431 1.53 1.53 0 0 0 .922 1.387l41.765 18.735a1 1 0 0 1 .591.919c-.017 2.493-.031 5.083-.046 7.747-.14 25.905-.314 58.006-3.677 79.288.447-.076.91-.151 1.382-.225 6.537-1.015 11.312-6.566 11.355-13.201.184-28.177 1.679-76.182 1.877-82.462l-35.901-15.475a17.308 17.308 0 0 0-6.852-1.418z" fill="#172635"/><path d="M456.613 1326.672c-7.247 20.014-9.75 41.281 3.278 54.863 23.637 24.641 94.565-1.468 145.959-51.375 38.955-37.828 52.119-82.005 77.329-115.033s111.733-101.597 82.888-156.819c-8.061-15.432-47.56-51.725-85.528-60.237-10.061-17.784-16.457-30.268-22.01-39.325-1.153-1.881-4.011-1.094-4.096 1.11-1.613 41.697-74.409 112.682-106.508 134.688-4.288 2.94-5.288 8.853-2.256 13.075 8.518 11.859 15.186 21.592 25.176 33.656 0 0-16.744 66.859-25.465 99.71-1.93 7.27 3.626 14.362 11.146 14.236l12.62-.212s61.352.591 55.915 18.98c-3.447 11.658-19.787 5.733-28.286 14.097-12.309 12.114-17.094 17.542-43.259 40.556-40.681 35.782-100.065 43.659-96.903-1.97z" fill="#fff"/><path d="M486.868 1391.936c-.396 0-.784-.003-1.175-.01-11.625-.206-20.548-3.469-26.524-9.699-11.434-11.919-12.61-30.726-3.497-55.896a1 1 0 0 1 1.938.41c-.913 13.175 3.543 22.582 12.886 27.203 4.468 2.209 9.9 3.26 15.945 3.261 19.567.001 45.593-11 66.413-29.313 21.457-18.873 28.387-25.773 37.16-34.511 1.889-1.88 3.853-3.836 6.058-6.007 3.974-3.91 9.367-4.839 14.582-5.737 6.276-1.081 11.697-2.014 13.447-7.931.613-2.074.292-3.92-.984-5.645-8.49-11.479-53.527-12.047-53.981-12.052l-12.594.212-.215.001c-3.82 0-7.349-1.717-9.709-4.732a12.231 12.231 0 0 1-2.206-10.762c8.228-30.992 23.794-93.045 25.339-99.206-8.175-9.9-14.013-18.083-20.76-27.537a2324.488 2324.488 0 0 0-4.136-5.783 10.255 10.255 0 0 1-1.785-7.809 10.151 10.151 0 0 1 4.287-6.675c30.996-21.25 104.471-92.437 106.075-133.902.057-1.467 1.006-2.653 2.417-3.022 1.392-.363 2.776.198 3.53 1.428 3.208 5.232 6.639 11.5 10.984 19.435 3.122 5.702 6.652 12.151 10.827 19.536 37.538 8.624 77.379 44.603 85.762 60.651 10.216 19.558 7.336 42.255-8.804 69.389-13.669 22.98-34.646 45.234-51.501 63.116-9.303 9.869-17.337 18.393-22.674 25.385-9.615 12.597-17.439 26.769-25.723 41.772-13.554 24.55-27.57 49.935-51.704 73.371-37.189 36.114-86.172 61.057-119.678 61.059zm-31.286-59.057c-6.626 21.448-4.942 37.567 5.031 47.964 5.593 5.831 14.043 8.888 25.116 9.084.381.007.766.01 1.151.01 33.02 0 81.426-24.713 118.273-60.494 23.92-23.229 37.863-48.482 51.347-72.903 8.32-15.07 16.179-29.304 25.884-42.019 5.4-7.075 13.467-15.633 22.809-25.543 16.788-17.81 37.681-39.975 51.238-62.766 15.756-26.488 18.618-48.548 8.75-67.44-8.268-15.828-47.75-51.404-84.861-59.724a.995.995 0 0 1-.651-.483c-4.276-7.558-7.879-14.139-11.058-19.945-4.332-7.911-7.752-14.16-10.935-19.349-.434-.708-1.121-.591-1.319-.539-.43.112-.898.477-.925 1.165-.907 23.432-23.377 53.907-42.067 75.346-23.428 26.874-49.465 49.563-64.875 60.128a8.165 8.165 0 0 0-3.447 5.371 8.266 8.266 0 0 0 1.438 6.296c1.423 1.982 2.795 3.904 4.14 5.788 6.812 9.547 12.696 17.792 20.995 27.813.203.245.277.572.2.881-.167.668-16.846 67.241-25.469 99.723a10.246 10.246 0 0 0 1.848 9.016c2.015 2.574 5.031 4.017 8.315 3.963l12.62-.212c1.92.018 46.517.588 55.596 12.862 1.651 2.232 2.086 4.722 1.294 7.402-2.102 7.11-8.672 8.241-15.025 9.335-4.912.846-9.991 1.72-13.518 5.191a1292.45 1292.45 0 0 0-6.05 5.999c-8.798 8.761-15.747 15.682-37.25 34.595-28.282 24.875-64.638 36.199-84.566 26.344-8.551-4.23-13.332-12.068-14.029-22.859z" fill="#172635"/><path d="M557.634 1245.242a.993.993 0 0 1-.386-.078l-63.104-26.44a1 1 0 0 1-.269-1.678l89.074-77.39-115.538 16.146a.998.998 0 0 1-1.128-.852.999.999 0 0 1 .852-1.128l118.878-16.612a1 1 0 0 1 .794 1.745l-90.406 78.546 61.619 25.818a.999.999 0 0 1-.386 1.923z" fill="#172635"/><path d="M494.532 1250.264a1 1 0 0 1-.509-1.862l77.723-45.786-77.56-28.503c-.321-.118-.56-.391-.632-.725s.03-.682.272-.923l68.108-67.66a1 1 0 1 1 1.409 1.419l-66.994 66.554 78.069 28.689a.999.999 0 0 1 .163 1.801l-79.542 46.858c-.16.093-.335.138-.507.138z" fill="#172635"/><path d="M222.509 546.065s16.305 8.714 32.504 13.119c5.451 1.482 10.853-2.567 10.884-8.216.165-29.567 10.685-89.336 51.152-122.853 2.162-1.79.557-5.285-2.201-4.768-5.288.991-17.04 1.836-19.524 2.708l-29.526-9.749s-46.649-38.901-78.75-61.716c-3.114-2.213-6.817-4.657-14.792-9.063-48.607-20.03-109.787-32.438-130.86 8.813-45.041 88.168 42.602 200.86 65.211 212.019 22.608 11.16 115.902-20.294 115.902-20.294z" fill="#fff"/><path d="M121.157 569.75c-6.254 0-11.443-.741-14.993-2.493-14.571-7.191-51.85-52.145-69.039-104.013-13.702-41.351-12.565-78.144 3.381-109.358 9.73-19.048 28.565-28.438 56.014-27.932 26.721.5 56.142 10.417 76.117 18.649.035.015.069.031.103.049 7.647 4.225 11.482 6.703 14.888 9.124 30.876 21.943 75.746 59.212 78.665 61.641l29.042 9.589c1.689-.474 5.46-.9 9.78-1.388 3.543-.4 7.208-.814 9.549-1.253 1.683-.311 3.303.512 4.028 2.059.733 1.564.33 3.357-1.004 4.462-39.739 32.914-50.624 92.229-50.79 122.089a9.485 9.485 0 0 1-3.774 7.55 9.58 9.58 0 0 1-8.372 1.625c-14.75-4.011-29.756-11.66-32.328-13-6.373 2.13-68.426 22.6-101.267 22.6zM94.412 327.934c-25.487 0-43.017 9.031-52.125 26.862-15.693 30.72-16.791 66.995-3.262 107.819 18.108 54.642 55.89 96.859 68.025 102.849 21.984 10.848 114.211-20.033 115.141-20.347.261-.087.547-.065.791.066.162.086 16.397 8.712 32.295 13.036a7.598 7.598 0 0 0 6.637-1.288 7.493 7.493 0 0 0 2.984-5.968c.168-30.207 11.208-90.235 51.515-123.618.765-.634.744-1.486.469-2.073-.269-.573-.897-1.123-1.849-.942-2.413.453-6.114.871-9.694 1.275-4.141.468-8.422.952-9.683 1.394a1.01 1.01 0 0 1-.645.006l-29.526-9.749c-.12-.04-.23-.101-.327-.182-.466-.389-46.986-39.138-78.688-61.669-3.343-2.375-7.115-4.812-14.646-8.975-19.816-8.162-48.954-17.983-75.34-18.477-.697-.012-1.388-.019-2.072-.019z" fill="#172635"/><path d="M187.048 354.591c24.91 13.833 67.333 44.145 88.158 61.323 3.896-.238 13.264-.426 22.716.251 4.14.296 5.56 5.737 2.075 7.992-4.039 2.613-7.875 5.781-11.354 8.523a22.065 22.065 0 0 1-15.745 4.615c-11.248-1.067-19.337-1.429-23.871-3.056-7.093-2.546-52.233-28.712-65.86-35.976-5.923-3.157-8.044-10.593-4.677-16.399 6.208-10.706 8.436-18.188 9.112-20.727.899-3.376-.554-6.546-.554-6.546z" fill="#fff"/><path d="M275.026 438.395c-.738 0-1.48-.035-2.223-.105-2.418-.229-4.69-.426-6.812-.61-7.909-.685-13.623-1.18-17.303-2.5-4.719-1.694-25.292-13.271-43.442-23.484-9.178-5.165-17.847-10.043-22.55-12.551a12.74 12.74 0 0 1-6.313-7.815 12.743 12.743 0 0 1 1.242-9.968c5.719-9.863 8.101-17.067 9.011-20.483.791-2.969-.484-5.845-.498-5.874a1 1 0 0 1 1.395-1.288c24.135 13.402 66.229 43.256 88.006 61.176 3.863-.212 12.968-.405 22.454.274 2.33.167 4.212 1.746 4.797 4.024.582 2.265-.302 4.544-2.251 5.805-3.327 2.152-6.47 4.651-9.511 7.067l-1.767 1.401a22.918 22.918 0 0 1-14.235 4.931zm-86.332-81.73c.24 1.301.338 2.983-.126 4.728-.936 3.513-3.378 10.908-9.213 20.971-1.491 2.571-1.863 5.56-1.049 8.417s2.708 5.2 5.331 6.599c4.724 2.518 13.402 7.402 22.591 12.572 17.187 9.671 38.576 21.708 43.137 23.345 3.436 1.233 9.042 1.719 16.8 2.391 2.127.184 4.404.381 6.828.611 5.439.515 10.773-1.048 15.032-4.405l1.76-1.395c3.078-2.447 6.261-4.977 9.669-7.182 1.475-.954 1.69-2.5 1.4-3.628-.292-1.139-1.235-2.4-3.003-2.526-9.721-.697-19.023-.468-22.583-.25a.981.981 0 0 1-.697-.227c-21-17.323-61.437-46.09-85.877-60.021z" fill="#172635"/><path d="M169.279 351.815c-6.074-2.927-13.06-5.897-19.726-9.092-44.622-21.382-74.376-5.978-88.699 10.046C35.703 380.908 32.791 435.491 55 473.383c7.252 12.373 14.987 30.816 26.598 43.601 8.017 8.828-2.134 21.567 6.709 27.259 11.09 7.139 23.452-24.374 26.917-33.804 1.462-3.98 3.43-8.847 5.216-13.144 2.534-6.096 9.568-8.955 15.621-6.321 19.523 8.494 68.077 37.42 68.077 37.42 11.096 2.87 12.088 2.841 24.752 4.758 5.194.786 9.026 5.283 8.945 10.536-.452 29.265 2.864 74.233 70.12 106.057 3.286 1.555 2.908 6.357-.593 7.339-8.495 2.383-4.428 2.164-8.703 2.164-7.015 8.415-6.406 8.4-9.114 9.557-58.009-13.777-95.426-52.055-119.275-64.72-43.119-22.899-70.437-21.585-113.658-70.045C8.929 480.576-8.18 381.242 39.314 336.295c16.536-15.65 56.02-30.402 132.942 9.233z" fill="#fff"/><path d="M289.545 669.804a.999.999 0 0 1-.231-.027c-41.566-9.872-72.794-32.399-95.597-48.848-9.195-6.633-17.137-12.362-23.917-15.962-12.486-6.631-23.564-11.192-34.276-15.603-26.209-10.791-48.844-20.11-79.657-54.659-23.534-26.386-40.202-64.748-44.588-102.617-4.755-41.052 4.958-75.33 27.348-96.52 7.466-7.065 21.244-15.645 44.482-16.388 25.123-.805 55.261 7.762 89.605 25.458a1 1 0 0 1 .446 1.317l-2.977 6.287a1 1 0 0 1-1.338.473c-3.026-1.458-6.229-2.904-9.62-4.436-3.324-1.501-6.761-3.054-10.104-4.655-19.847-9.51-38.374-12.514-55.069-8.928-12.533 2.692-24.058 9.347-32.452 18.739-12.043 13.474-19.3 33.374-20.434 56.033-1.14 22.775 4.08 45.294 14.697 63.408 2.064 3.521 4.156 7.512 6.372 11.736 5.561 10.605 11.864 22.625 20.103 31.698 4.241 4.669 3.752 10.335 3.321 15.333-.426 4.934-.793 9.194 3.189 11.757 1.454.935 2.949 1.126 4.574.582 8.661-2.903 17.475-24.667 20.863-33.89 1.258-3.423 3.018-7.858 5.231-13.183a12.754 12.754 0 0 1 7.06-6.986 12.702 12.702 0 0 1 9.884.131c18.877 8.213 65.326 35.774 68.067 37.404 9.512 2.458 11.589 2.769 20.193 4.054l4.32.648c5.672.859 9.884 5.82 9.795 11.541-.547 35.458 7.288 75.677 69.547 105.137a4.909 4.909 0 0 1 2.816 4.889 4.87 4.87 0 0 1-3.566 4.316c-3.794 1.064-5.037 1.6-5.634 1.856-.828.356-1.004.355-2.375.348l-.498-.002c-1.61 1.937-2.8 3.406-3.717 4.538-2.914 3.599-3.218 3.975-5.471 4.938a.936.936 0 0 1-.392.083zM85.226 321.094c-16.875 0-32.906 4.269-45.225 15.927-47.392 44.85-29.255 144.089 17.357 196.353 30.508 34.206 52.946 43.444 78.926 54.141 10.757 4.429 21.88 9.009 34.454 15.686 6.9 3.665 14.893 9.431 24.148 16.107 22.607 16.308 53.549 38.627 94.567 48.447 1.493-.648 1.694-.885 4.4-4.227a406.348 406.348 0 0 1 4.036-4.921 1 1 0 0 1 .768-.36l.976.003c1.127.005 1.128.006 1.572-.185.637-.274 1.962-.845 5.885-1.945 1.433-.402 2.032-1.585 2.114-2.558.083-.985-.314-2.268-1.679-2.914-63.286-29.945-71.249-70.881-70.692-106.976.073-4.724-3.407-8.822-8.095-9.532l-4.315-.648c-8.729-1.304-10.804-1.614-20.537-4.131a1.016 1.016 0 0 1-.261-.109c-.485-.289-48.723-28.99-67.964-37.361a10.709 10.709 0 0 0-8.338-.11 10.77 10.77 0 0 0-5.961 5.898c-2.203 5.299-3.952 9.708-5.201 13.105-4.332 11.792-12.963 32.033-22.104 35.097-2.206.741-4.322.471-6.292-.796-4.996-3.216-4.541-8.5-4.1-13.611.416-4.815.845-9.794-2.809-13.817-8.411-9.262-14.777-21.403-20.394-32.114-2.204-4.203-4.286-8.173-6.326-11.653-10.812-18.447-16.128-41.36-14.969-64.52 1.156-23.115 8.593-43.452 20.94-57.266 8.674-9.705 20.579-16.581 33.522-19.361 17.136-3.682 36.097-.627 56.354 9.08 3.323 1.592 6.75 3.14 10.063 4.636 3.066 1.385 5.979 2.7 8.756 4.021l2.132-4.503c-18.431-9.422-53.596-24.883-85.708-24.883z" fill="#172635"/><path d="M199.903 540.502a1 1 0 0 1-.986-1.162l21.693-131.478-90.653 100.292a.999.999 0 1 1-1.483-1.341l92.936-102.818a1 1 0 0 1 1.729.833l-21.506 130.34 72.746-107.364a1 1 0 0 1 1.656 1.122l-75.302 111.137a1.006 1.006 0 0 1-.83.439z" fill="#172635"/><path d="M226.389 543.73a1 1 0 0 1-.974-1.231l27.721-116.874-90.971 101.06a.999.999 0 0 1-1.726-.855l26.395-139.559a1 1 0 1 1 1.964.372l-25.731 136.049 91.201-101.315a1 1 0 0 1 1.717.9L227.36 542.961a.997.997 0 0 1-.971.769z" fill="#172635"/><path d="M810.932 765.03a.993.993 0 0 1-.475-.121c-29.325-15.884-100.186-55.258-128.176-79.55-6.793 4.744-13.312 6.329-19.386 4.715-6.222-1.653-11.877-6.948-15.129-14.163a1 1 0 0 1 1.823-.823c3.007 6.672 8.173 11.551 13.82 13.052 5.658 1.504 11.831-.133 18.348-4.864a1 1 0 0 1 1.248.058c27.412 24.112 98.929 63.85 128.404 79.815a1 1 0 0 1 .403 1.355.995.995 0 0 1-.88.526z" fill="#fff"/><path d="M366.647 700.013c-27.574 13.787-91.442-7.217-119.542-105.1z" fill="#0275a4"/><path d="M451.837 738.381c-38.669 0-67.335-12.412-85.507-37.106-16.553 7.591-53.331 3.472-82.014-29.654a1 1 0 0 1 1.512-1.31c28.441 32.846 64.772 36.608 80.373 28.808a1 1 0 0 1 1.258.31c23.603 32.707 65.883 43.779 125.663 32.904 43.859-7.978 96.042-27.398 155.1-57.722a1 1 0 1 1 .913 1.779c-59.232 30.414-111.602 49.897-155.655 57.911-14.963 2.721-28.851 4.08-41.643 4.08z" fill="#fff"/><path d="m1005.286 82.922-11.079 46.909-49.365-26.884 52.139-35.924z" fill="#172635"/><path d="M875.055 110.212c-.802 18.561 9.361 34.044 13.013 43.608 6.431 16.839-6.934 31.807 9.894 58.702 23.333 37.292 82.315 29.316 93.919-36.586 15.843 13.28 31.55-7.808 22.177-24.687 24.976-41.232-11.426-106.961-37.076-32.937-10.544-95.908-99.51-64.019-101.927-8.1z" fill="#fff"/><path d="M993.568 161.704a.998.998 0 0 1-.701-1.712c4.862-4.788 6.912-10.038 5.483-14.045-.711-1.996-2.246-3.337-4.004-3.501-1.919-.178-3.78 1.057-5.138 3.384a.996.996 0 0 1-1.122.462 1.002 1.002 0 0 1-.742-.96c-.092-15.531 3.922-28.828 11.929-39.521a1 1 0 1 1 1.601 1.199c-7.234 9.661-11.096 21.551-11.497 35.381 1.509-1.421 3.299-2.109 5.153-1.938 2.542.237 4.728 2.084 5.703 4.821 1.697 4.759-.532 10.793-5.963 16.142a1 1 0 0 1-.702.288z" fill="#172635"/><path d="M1002.12 181.13c-3.617 0-7.367-1.483-10.881-4.428a1 1 0 0 1 1.285-1.533c8.27 6.933 14.726 3.088 17.118 1.114 5.789-4.778 8.696-15.267 3.542-24.55a1 1 0 0 1 .019-1.003c11.627-19.194 9.904-44.105 1.521-57.101-3.595-5.573-8.131-8.336-12.77-7.776-8.523 1.025-17.056 12.668-24.027 32.785a1 1 0 0 1-1.889-.655c9.272-26.759 19.082-33.322 25.678-34.115 5.438-.652 10.657 2.427 14.689 8.678 8.644 13.4 10.511 38.931-1.196 58.728 5.482 10.427 1.936 21.411-4.293 26.552-2.676 2.207-5.686 3.304-8.796 3.304z" fill="#172635"/><path d="m976.119 118.661-24.403-34.329c-.313 14.095-17.96 29.856-30.682 28.19 5.389 43.735-59.047 72.116-89.699 43.735-26.472-24.511-16.514-69.059 11.826-80.931-7.66-11.489-14.508-31.427 5.362-51.324 31.228-31.272 86.17-26.681 120.278-15.83 25.406-15.447 46.318 10.979 35.594 40.851 13.787-.383 1.702 25.345.891 33.9-18.558-5.319-22.976 11.93-29.167 35.738z" fill="#172635"/><path d="M921.033 113.522c-.452 0-.862-.309-.972-.768-2.73-11.417-8.01-18.718-8.063-18.791a1.001 1.001 0 0 1 1.614-1.182c.226.309 5.571 7.703 8.394 19.507a1 1 0 0 1-.973 1.234z" fill="#fff"/><path d="M936.534 235.763c-15.771 0-30.354-8.223-39.42-22.712-10.435-16.676-9.453-28.869-8.587-39.626.534-6.627 1.037-12.887-1.393-19.249a1 1 0 0 1 1.868-.714c2.591 6.785 2.07 13.264 1.518 20.123-.841 10.448-1.794 22.291 8.289 38.406 10.304 16.467 28.023 24.491 46.246 20.942 8.69-1.693 37.679-10.819 45.842-57.171a1.001 1.001 0 0 1 1.97.346c-8.384 47.608-38.422 57.033-47.429 58.788a46.594 46.594 0 0 1-8.904.867zm169.627 221.589c-39.101 0-76.873-1.794-116.089-14.717a1 1 0 0 1 .626-1.9c46.374 15.282 90.863 14.896 137.963 14.486 14.206-.124 28.897-.25 44.089.03a1 1 0 0 1 .981 1.019.995.995 0 0 1-1.019.981c-15.165-.281-29.842-.154-44.035-.03-7.564.066-15.067.131-22.516.131z" fill="#172635"/></svg></g><g transform="translate(517.8947368421052 2125.2631578947367) rotate(0.0 618.9473684210526 158.68421052631584) scale(1.589185860489076 1.5899982517929674)"><svg width="778.949" height="199.603" viewBox="0 0 778.949 199.603"><path d="M99.801 0h579.346c55.119 0 99.801 44.683 99.801 99.801 0 55.119-44.683 99.801-99.801 99.801H99.801C44.683 199.603 0 154.92 0 99.801 0 44.683 44.683 0 99.801 0z" fill="#e6e6e6"/><g fill="#fff"><circle cx="145.549" cy="130.5" r="23.865"/><circle cx="253.4" cy="130.5" r="23.865"/><circle cx="441.973" cy="67.103" r="23.865"/><circle cx="441.973" cy="130.5" r="23.865"/><circle cx="633.4" cy="130.5" r="23.865"/><path d="M639.4 133H145.549a2.5 2.5 0 1 1 0-5H639.4a2.5 2.5 0 1 1 0 5z"/><path d="M594.121 133h-18.855c-18.857 0-34.198-15.341-34.198-34.198 0-16.1-13.098-29.198-29.198-29.198H379.564c-16.1 0-29.198 13.098-29.198 29.198 0 18.857-15.341 34.198-34.198 34.198h-18.631a2.5 2.5 0 1 1 0-5h18.631c16.1 0 29.198-13.098 29.198-29.198 0-18.857 15.341-34.198 34.198-34.198H511.87c18.857 0 34.198 15.341 34.198 34.198 0 16.1 13.098 29.198 29.198 29.198h18.855a2.5 2.5 0 1 1 0 5z"/></g></svg></g></svg>