<svg xmlns="http://www.w3.org/2000/svg" viewBox="0 0 3000 2470" width="3000" height="2470"><g transform="translate(780.0 567.3529411764706) rotate(0.0 707.2058823529412 632.2058823529412) scale(0.8818171396206438 0.8819559686713813)"><svg width="1603.974" height="1433.645" viewBox="0 0 1603.974 1433.645"><g><g><path d="M50 7.5C26.565 7.5 7.5 26.565 7.5 50v1333.645c0 23.435 19.065 42.5 42.5 42.5h1503.974c23.435 0 42.5-19.065 42.5-42.5V50c0-23.435-19.065-42.5-42.5-42.5H50Z" style="fill:#fff"/><path d="M1553.975 1433.645H50c-27.57 0-50-22.43-50-50V50C0 22.43 22.43 0 50 0h1503.975c27.57 0 50 22.43 50 50v1333.645c0 27.57-22.43 50-50 50ZM50 15c-19.299 0-35 15.701-35 35v1333.645c0 19.299 15.701 35 35 35h1503.975c19.299 0 35-15.701 35-35V50c0-19.299-15.701-35-35-35H50Z" style="fill:#95ff80"/></g><g><circle cx="1300.88" cy="100.193" r="35.259" style="fill:#95ff80"/><circle cx="1402.957" cy="100.193" r="35.259" style="fill:#95ff80"/><circle cx="1505.035" cy="100.193" r="35.259" style="fill:#95ff80"/></g></g><g><g><path d="M1101.945 1411.143H838.301V888.985c0-22.091 17.909-40 40-40h183.644c22.091 0 40 17.909 40 40v522.158Z" style="fill:#dea2ff"/><path d="M1109.445 1418.643H830.8V888.986c0-26.191 21.309-47.5 47.5-47.5h183.645c26.191 0 47.5 21.309 47.5 47.5v529.657Zm-263.645-15h248.645V888.986c0-17.921-14.579-32.5-32.5-32.5H878.3c-17.921 0-32.5 14.579-32.5 32.5v514.657Z" style="fill:#dea2ff"/></g><g><path d="M1438.216 1411.143h-263.644V888.985c0-22.091 17.909-40 40-40h183.644c22.091 0 40 17.909 40 40v522.158Z" style="fill:#dea2ff"/><path d="M1445.717 1418.643h-278.645V888.986c0-26.191 21.309-47.5 47.5-47.5h183.645c26.191 0 47.5 21.309 47.5 47.5v529.657Zm-263.645-15h248.645V888.986c0-17.921-14.579-32.5-32.5-32.5h-183.645c-17.921 0-32.5 14.579-32.5 32.5v514.657Z" style="fill:#dea2ff"/></g><g><path d="M429.403 1411.144H165.758v-185.887c0-22.091 17.909-40 40-40h183.644c22.091 0 40 17.909 40 40v185.887Z" style="fill:#dea2ff"/><path d="M436.902 1418.645H158.258v-193.387c0-26.191 21.309-47.5 47.5-47.5h183.645c26.191 0 47.5 21.309 47.5 47.5v193.387Zm-263.645-15h248.645v-178.387c0-17.921-14.579-32.5-32.5-32.5H205.757c-17.921 0-32.5 14.579-32.5 32.5v178.387Z" style="fill:#dea2ff"/></g><g><path d="M765.674 1411.144H502.03v-185.887c0-22.091 17.909-40 40-40h183.644c22.091 0 40 17.909 40 40v185.887Z" style="fill:#dea2ff"/><path d="M773.174 1418.645H494.529v-193.387c0-26.191 21.309-47.5 47.5-47.5h183.645c26.191 0 47.5 21.309 47.5 47.5v193.387Zm-263.645-15h248.645v-178.387c0-17.921-14.579-32.5-32.5-32.5H542.029c-17.921 0-32.5 14.579-32.5 32.5v178.387Z" style="fill:#dea2ff"/></g><g><rect x="838.301" y="512.715" width="599.915" height="263.645" rx="40" ry="40" style="fill:#dea2ff"/><path d="M1398.216 783.859H878.301c-26.191 0-47.5-21.309-47.5-47.5V552.714c0-26.191 21.309-47.5 47.5-47.5h519.915c26.191 0 47.5 21.309 47.5 47.5v183.645c0 26.191-21.309 47.5-47.5 47.5ZM878.301 520.214c-17.921 0-32.5 14.579-32.5 32.5v183.645c0 17.921 14.579 32.5 32.5 32.5h519.915c17.921 0 32.5-14.579 32.5-32.5V552.714c0-17.921-14.579-32.5-32.5-32.5H878.301Z" style="fill:#dea2ff"/></g><g><rect x="165.758" y="848.986" width="599.915" height="263.645" rx="40" ry="40" style="fill:#dea2ff"/><path d="M725.674 1120.131H205.759c-26.191 0-47.5-21.309-47.5-47.5V888.986c0-26.191 21.309-47.5 47.5-47.5h519.915c26.191 0 47.5 21.309 47.5 47.5v183.645c0 26.191-21.309 47.5-47.5 47.5ZM205.759 856.486c-17.921 0-32.5 14.579-32.5 32.5v183.645c0 17.921 14.579 32.5 32.5 32.5h519.915c17.921 0 32.5-14.579 32.5-32.5V888.986c0-17.921-14.579-32.5-32.5-32.5H205.759Z" style="fill:#dea2ff"/></g><g><rect x="165.758" y="512.715" width="599.915" height="263.645" rx="40" ry="40" style="fill:#dea2ff"/><path d="M725.674 783.859H205.759c-26.191 0-47.5-21.309-47.5-47.5V552.714c0-26.191 21.309-47.5 47.5-47.5h519.915c26.191 0 47.5 21.309 47.5 47.5v183.645c0 26.191-21.309 47.5-47.5 47.5ZM205.759 520.215c-17.921 0-32.5 14.579-32.5 32.5V736.36c0 17.921 14.579 32.5 32.5 32.5h519.915c17.921 0 32.5-14.579 32.5-32.5V552.715c0-17.921-14.579-32.5-32.5-32.5H205.759Z" style="fill:#dea2ff"/></g></g><g><g><rect x="1136.965" y="285.184" width="301.251" height="113.602" rx="56.801" ry="56.801" style="fill:#95ff80"/><path d="M1381.415 406.286h-187.648c-35.456 0-64.302-28.846-64.302-64.301s28.846-64.302 64.302-64.302h187.648c35.455 0 64.301 28.845 64.301 64.301s-28.846 64.302-64.301 64.302Zm-187.648-113.603c-27.186 0-49.302 22.116-49.302 49.301s22.116 49.302 49.302 49.302h187.648c27.185 0 49.301-22.116 49.301-49.301s-22.116-49.302-49.301-49.302h-187.648Z" style="fill:#95ff80"/></g><g><g><rect x="165.758" y="285.184" width="898.668" height="113.602" rx="56.801" ry="56.801" style="fill:#fff"/><path d="M1007.625 406.286H222.56c-35.456 0-64.302-28.845-64.302-64.301s28.846-64.302 64.302-64.302h785.065c35.456 0 64.301 28.846 64.301 64.301s-28.845 64.302-64.301 64.302ZM222.56 292.683c-27.186 0-49.302 22.116-49.302 49.301s22.116 49.302 49.302 49.302h785.065c27.185 0 49.301-22.116 49.301-49.301s-22.116-49.302-49.301-49.302H222.56Z" style="fill:#95ff80"/></g><g><g><circle cx="1007.625" cy="341.985" r="56.801" style="fill:#95ff80"/><path d="M1007.625 406.286c-35.456 0-64.302-28.845-64.302-64.301s28.846-64.302 64.302-64.302 64.301 28.846 64.301 64.302-28.846 64.301-64.301 64.301Zm0-113.603c-27.186 0-49.302 22.116-49.302 49.302s22.116 49.301 49.302 49.301 49.301-22.116 49.301-49.301-22.116-49.302-49.301-49.302Z" style="fill:#95ff80"/></g><g><path d="M1001.107 363.646c-15.538 0-28.18-12.642-28.18-28.18s12.642-28.179 28.18-28.179 28.18 12.641 28.18 28.179-12.642 28.18-28.18 28.18Zm0-41.358c-7.268 0-13.18 5.912-13.18 13.179s5.912 13.18 13.18 13.18 13.18-5.912 13.18-13.18-5.912-13.179-13.18-13.179Z" style="fill:#fff"/><path d="M1032.393 374.253a7.481 7.481 0 0 1-5.304-2.196l-16.666-16.666a7.5 7.5 0 0 1 10.607-10.607l16.666 16.666a7.5 7.5 0 0 1-5.304 12.803Z" style="fill:#fff"/></g></g></g></g></svg></g><g transform="translate(1195.5882352941176 155.2941176470588) rotate(0.0 180.0 298.2352941176471) scale(0.8803914807451046 0.8822589727651702)"><svg width="408.909" height="676.072" viewBox="0 0 408.909 676.072"><path d="M206.717 7.513C99.112 6.301 9.845 92.557 7.546 200.144c-1.007 47.11 14.535 90.555 41.21 124.931 28.01 36.096 42.739 80.739 42.739 126.427v13.192a42.905 42.905 0 0 0 11.464 29.194l.907.977a42.907 42.907 0 0 0 31.44 13.71h137.272a42.902 42.902 0 0 0 42.904-42.905v-11.682c0-46.574 15.668-91.754 44.325-128.468 26.068-33.397 41.602-75.416 41.602-121.067 0-108.02-86.959-195.729-194.692-196.942z" fill="#FFF"/><path d="M272.579 516.075H135.307c-13.969 0-27.431-5.871-36.936-16.107l-.907-.976a50.251 50.251 0 0 1-13.469-34.298v-13.191c0-44.354-14.619-87.62-41.165-121.83C14.242 292.83-.952 246.772.048 199.984 2.432 88.463 95.172-1.25 206.801.013c54.119.609 104.901 22.146 142.993 60.643 38.121 38.527 59.115 89.596 59.115 143.799 0 46.022-14.935 89.482-43.189 125.681-27.559 35.308-42.737 79.293-42.737 123.853v11.682a50.434 50.434 0 0 1-12.134 32.802 50.347 50.347 0 0 1-38.27 17.602zM204.486 15C102.008 15 17.237 97.682 15.045 200.304c-.94 43.99 12.766 85.545 39.637 120.173 28.576 36.827 44.314 83.359 44.314 131.025v13.191a35.3 35.3 0 0 0 9.46 24.091l.907.976a35.513 35.513 0 0 0 25.944 11.314h137.272a35.363 35.363 0 0 0 26.881-12.364 35.427 35.427 0 0 0 8.523-23.041v-11.682c0-47.888 16.305-95.151 45.913-133.083 26.177-33.538 40.014-73.806 40.014-116.452 0-103.297-84.012-188.28-187.276-189.442-.713-.008-1.435-.012-2.146-.012z" fill="#1E284C"/><rect fill="#FFF" height="40" rx="20" width="178.826" x="115.041" y="508.574"/><path d="M273.867 556.074H135.041c-15.164 0-27.5-12.336-27.5-27.5s12.336-27.5 27.5-27.5h138.826c15.164 0 27.5 12.336 27.5 27.5s-12.336 27.5-27.5 27.5zm-138.826-40c-6.893 0-12.5 5.607-12.5 12.5s5.607 12.5 12.5 12.5h138.826c6.893 0 12.5-5.607 12.5-12.5s-5.607-12.5-12.5-12.5z" fill="#1E284C"/><rect fill="#FFF" height="40" rx="20" width="178.826" x="115.041" y="548.572"/><path d="M273.867 596.072H135.041c-15.164 0-27.5-12.336-27.5-27.5s12.336-27.5 27.5-27.5h138.826c15.164 0 27.5 12.336 27.5 27.5s-12.336 27.5-27.5 27.5zm-138.826-40c-6.893 0-12.5 5.607-12.5 12.5s5.607 12.5 12.5 12.5h138.826c6.893 0 12.5-5.607 12.5-12.5s-5.607-12.5-12.5-12.5z" fill="#1E284C"/><rect fill="#FFF" height="40" rx="20" width="173.467" x="117.721" y="588.572"/><path d="M271.188 636.072H137.721c-15.164 0-27.5-12.336-27.5-27.5s12.336-27.5 27.5-27.5h133.467c15.164 0 27.5 12.336 27.5 27.5s-12.336 27.5-27.5 27.5zm-133.467-40c-6.893 0-12.5 5.607-12.5 12.5s5.607 12.5 12.5 12.5h133.467c6.893 0 12.5-5.607 12.5-12.5s-5.607-12.5-12.5-12.5z" fill="#1E284C"/><path d="M234.91 668.572h-60.911c-11 0-20-9-20-20v-20H254.91v20c0 11-9 20-20 20z" fill="#FFF"/><g fill="#1E284C"><path d="M234.91 676.072h-60.911c-15.164 0-27.5-12.336-27.5-27.5v-20a7.5 7.5 0 0 1 7.5-7.5H254.91a7.5 7.5 0 0 1 7.5 7.5v20c0 15.164-12.336 27.5-27.5 27.5zm-73.411-40v12.5c0 6.893 5.607 12.5 12.5 12.5h60.911c6.893 0 12.5-5.607 12.5-12.5v-12.5zm83.542-119.998h-81.173a7.501 7.501 0 0 1-7.394-6.241l-47.411-278.466a7.5 7.5 0 0 1 14.486-3.698c2.757 8.018 16.461 16.541 36.426 16.541 21.792 0 36.979-10.405 36.979-19.743a7.5 7.5 0 0 1 15 0c0 9.338 15.187 19.743 36.979 19.743 19.965 0 33.669-8.522 36.426-16.541a7.5 7.5 0 0 1 14.486 3.698l-47.411 278.466a7.5 7.5 0 0 1-7.394 6.241zm-74.842-15h68.511l42.426-249.189c-8.892 4.63-20.107 7.325-32.203 7.325-19.073 0-35.442-6.536-44.479-16.511-9.037 9.976-25.406 16.511-44.479 16.511-12.096 0-23.311-2.695-32.203-7.325l42.426 249.188z"/></g></svg></g><g transform="translate(150.0 386.4705882352941) rotate(0.0 671.9117647058823 965.7352941176471) scale(0.8838868301403977 0.8842693293438564)"><svg width="1520.357" height="2184.256" viewBox="0 0 1520.357 2184.256"><path d="M807.789 357.642c-18.347-83.812-16.907-125.177-14.131-166.979 2.898-43.649 4.643-160.798-112.259-156.606-151.167 5.421-89.084 263.01-89.084 263.01 59.851 29.466 141.413 61.034 215.474 60.575z" fill="#1e284c"/><path d="M806.213 365.147c-76.477 0-160.234-33.301-217.211-61.351a7.5 7.5 0 0 1-3.979-4.971c-.391-1.619-9.584-40.194-12.174-88.273-3.525-65.452 6.703-114.471 30.402-145.696 18.379-24.216 44.581-37.099 77.878-38.293 36.558-1.311 65.467 8.708 85.905 29.779 26.74 27.568 38.216 72.927 34.105 134.819-2.916 43.927-3.739 83.96 13.975 164.879a7.5 7.5 0 0 1-7.28 9.104c-.54.003-1.082.005-1.623.005zm-207.37-73.234c53.468 26.04 129.553 56.019 199.645 58.118-16.094-76.742-15.196-116.44-12.313-159.865 3.816-57.477-6.245-98.989-29.905-123.381-17.358-17.896-42.454-26.385-74.602-25.232-28.579 1.025-50.941 11.916-66.467 32.372-47.409 62.464-21.333 195.075-16.357 217.989z" fill="#1e284c"/><path d="M703.021 316.007c77.207 10.566 118.156-62.744 117.906-140.394-.081-25.25-5.29-48.929-14.342-69.382-18.784-42.444-58.291-70.908-98.694-70.778-59.872.193-125.808 45.95-116.427 143.714 4.098 42.71 28.57 79.746 28.57 79.746-10.842 60.324-63.777 92.234-63.777 92.234s17.368 90.645 111.268 91.002c53.097.202 55.666-48.333 55.666-48.333s-22.305-26.426-20.194-77.812l.022.002z" fill="#fff"/><path d="M667.856 449.65h-.357c-51.697-.196-81.25-26.646-96.939-48.8-16.825-23.759-21.477-47.3-21.667-48.29a7.502 7.502 0 0 1 3.494-7.835c.483-.293 48.522-29.997 59.725-84.322-5.775-9.453-24.47-42.56-28.111-80.518-5.49-57.221 14.3-92.356 31.868-111.753 23.022-25.419 56.555-40.063 92-40.177h.296c43.068 0 85.346 30.201 105.28 75.243 9.721 21.964 14.902 46.997 14.983 72.393.168 52.299-17.577 99.143-47.468 125.307-19.539 17.103-43.803 25.108-70.596 23.385.398 42.665 18.368 64.47 18.561 64.698a7.5 7.5 0 0 1 1.758 5.234c-.03.572-.835 14.156-8.983 27.71-7.613 12.664-23.133 27.726-53.843 27.727zm-103.04-95.18c2.13 7.532 7.424 22.949 18.298 38.151 19.851 27.751 48.261 41.892 84.441 42.029h.29c38.796 0 46.21-29.642 47.569-38.711-5.824-8.301-21.755-35.313-19.91-80.242a7.505 7.505 0 0 1 2.57-5.35 7.492 7.492 0 0 1 5.963-1.771c26.035 3.563 48.593-2.818 67.042-18.967 26.671-23.346 42.502-65.952 42.348-113.972-.075-23.338-4.813-46.288-13.7-66.371-17.567-39.694-54.339-66.314-91.56-66.314h-.251c-31.236.101-60.734 12.947-80.931 35.246-22.286 24.606-31.987 59.272-28.055 100.251 3.861 40.252 27.13 75.976 27.365 76.332a7.516 7.516 0 0 1 1.121 5.457c-9.497 52.84-48.86 84.586-62.602 94.229z" fill="#1e284c"/><path d="M702.999 316.005c-12.967-1.835-29.312-7.982-43.2-17.557" fill="#fff"/><g fill="#1e284c"><path d="M703.008 323.506c-.351 0-.704-.024-1.061-.075-15.068-2.133-32.416-9.164-46.406-18.808a7.5 7.5 0 0 1 8.514-12.35c11.985 8.263 27.311 14.511 39.994 16.306a7.499 7.499 0 0 1 6.375 8.477 7.5 7.5 0 0 1-7.416 6.45zm-49.878-113.52a7.502 7.502 0 0 1-2.921-14.411l5.192-2.192c-1.35-2.046-3.226-4.234-5.735-5.86a7.5 7.5 0 1 1 8.158-12.588c10.974 7.112 14.54 18.977 14.91 20.307a7.498 7.498 0 0 1-4.307 8.922l-12.383 5.229a7.482 7.482 0 0 1-2.915.593z"/><path d="M687.456 168.163c-5.938-8.718-15.376-15.008-26.64-16.625-21.276-3.055-41 11.717-44.055 32.993-2.965 20.654 10.87 39.843 31.145 43.742-6.493 53.331-38.74 118.381-38.74 118.381s-77.282-45.869-104.525-99.243c-.71-78.149 10.008-254.78 183.952-238.908 53.689 4.899 82.209 36.512 82.209 36.512 54.556 11.24 76.869 67.133 72.264 99.915-3.634 25.873-22.524 44.314-22.524 44.314-.649-49.409-27.849-79.969-27.849-79.969.886 35.159-18.726 53.315-18.726 53.315-.464-36.176-31.384-62.159-31.384-62.159-18.958 49.218-25.964 55.039-55.128 67.733z"/><path d="M609.166 354.154a7.503 7.503 0 0 1-3.828-1.05c-3.231-1.918-79.468-47.605-107.376-102.283a7.484 7.484 0 0 1-.82-3.342c-.9-99.141 20.651-169.685 64.058-209.674C592.956 8.548 636.044-3.823 689.275 1.034c49.061 4.477 78.078 29.979 85.332 37.135 56.799 13.109 80.963 71.664 75.887 107.803-3.944 28.085-23.865 47.812-24.711 48.638a7.498 7.498 0 0 1-12.738-5.268c-.329-25.041-7.985-45.062-14.898-58.114-5.194 23.733-18.375 36.211-19.083 36.866a7.5 7.5 0 0 1-12.594-5.407c-.274-21.369-12.718-39.171-21.134-48.794-16.692 41.122-26.14 48.637-54.886 61.148a7.5 7.5 0 0 1-9.191-2.655 31.508 31.508 0 0 0-21.508-13.424c-17.156-2.462-33.103 9.486-35.565 26.635-2.387 16.631 8.654 32.141 25.138 35.311a7.499 7.499 0 0 1 6.029 8.271c-6.573 53.985-38.126 118.103-39.466 120.806a7.501 7.501 0 0 1-6.72 4.169zm-97.038-108.606c21.755 40.96 74.761 77.86 93.864 90.249 8.023-17.507 27.348-62.468 33.575-102.048-20.448-7.306-33.412-28.122-30.23-50.284 3.637-25.336 27.209-42.989 52.544-39.351 10.766 1.546 20.631 6.856 27.855 14.847 22.506-10.123 28.598-16.439 45.849-61.226a7.501 7.501 0 0 1 11.824-3.046c1.126.946 23.06 19.679 31.123 48.056 3.727-7.874 7.025-18.975 6.664-33.281a7.5 7.5 0 0 1 13.1-5.175c1.024 1.151 21.945 25.094 28.081 64.829 4.008-6.762 7.888-15.453 9.262-25.232 2.237-15.928-2.718-36.275-12.932-53.1-8.678-14.297-24.99-32.568-53.419-38.425a7.5 7.5 0 0 1-4.055-2.322c-.255-.279-27.458-29.517-77.323-34.067-48.833-4.456-88.041 6.602-116.549 32.866-39.902 36.76-59.828 102.941-59.234 196.711z"/></g><path d="M575.511 2065.624c-72.973-28.911-105.653-58.689-135.027-107.033-10.919-17.971-13.05-37.206-11.484-54.601 3.645-40.489 270.098-1037.289 270.098-1037.289l-305.872-.024c-51.626 222.361-39.136 448.292-68.835 521.624-41.069 101.407-37.689 347.462-40.494 463.825-1.201 49.83-18.853 85.043-22.454 93.323-3.867 8.891-8.878 22.772-12.205 40.802-5.321 28.833 13.213 56.684 41.891 62.787 0 0 54.066 10.425 87.448 45.452 35.135 36.866 63.128 48.443 88.24 48.443h162.239v-18.513c-.126-32.168-24.866-47.433-53.544-58.795z" fill="#fff"/><path d="M629.056 2150.432H466.817c-30.896 0-60.66-16.132-93.67-50.768-31.271-32.813-82.925-43.162-83.443-43.263-.043-.009-.092-.018-.135-.028-15.79-3.36-29.419-12.609-38.376-26.045-8.947-13.421-12.261-29.559-9.33-45.439 3.504-18.987 8.842-33.554 12.702-42.432.283-.649.647-1.457 1.082-2.418 4.867-10.767 19.679-43.534 20.753-88.094.411-17.05.694-37.285.994-58.708 1.783-127.402 4.479-319.933 40.046-407.752 13.035-32.187 17.774-96.2 23.773-177.243 7.296-98.568 16.377-221.239 44.708-343.262a7.5 7.5 0 0 1 7.306-5.804l305.871.025a7.5 7.5 0 0 1 7.244 9.437c-92.103 344.557-267.036 1004.506-269.873 1036.025-1.711 19 1.796 35.834 10.425 50.034 26.303 43.292 56.244 74.185 131.379 103.955 28.737 11.385 58.135 28.099 58.282 65.739v18.542a7.5 7.5 0 0 1-7.5 7.5zm-336.435-108.745c3.188.623 57.051 11.602 91.385 47.628 29.984 31.463 56.299 46.117 82.811 46.117h154.739v-11.012c-.091-23.101-14.231-38.124-48.808-51.823-69.79-27.65-106.078-56.464-138.674-110.111-10.328-17-14.549-36.906-12.544-59.168 3.511-39.005 238.995-921.292 267.801-1029.117l-290.132-.023c-27.025 118.99-35.885 238.688-43.027 335.172-6.097 82.353-10.911 147.401-24.83 181.767-34.51 85.212-37.182 276.05-38.949 402.331-.301 21.462-.585 41.734-.997 58.86-1.147 47.604-16.903 82.458-22.08 93.911-.399.884-.736 1.626-.995 2.223-3.549 8.159-8.461 21.578-11.707 39.171-4.618 25.02 11.195 48.758 36.008 54.075z" fill="#1e284c"/><path d="M326.085 2082.436c-80.678 0 32.031 94.32 32.031 94.32h-102.75l-14.323-133.685c66.517.99 111.699 28.082 130.21 44.238 10.811 9.436 48.15 55.56 94.313 55.622l171.961-.046v33.87H462.712c-68.976 0-76.514-94.32-136.628-94.32z" fill="#1e284c"/><path d="M637.528 2184.256H462.713c-39.386 0-60.674-27.914-79.455-52.542-17.097-22.417-31.861-41.778-57.173-41.778-12.034 0-19.771 2.296-21.225 6.3-1.993 5.488 3.585 19.74 25.219 43.284 15.698 17.084 32.681 31.341 32.851 31.483a7.5 7.5 0 0 1-4.814 13.251h-102.75a7.5 7.5 0 0 1-7.457-6.701l-14.323-133.685a7.5 7.5 0 0 1 7.568-8.298c61.679.918 110.193 24.41 135.03 46.087 1.852 1.616 4.172 3.963 7.11 6.934 15.016 15.187 46.262 46.79 82.281 46.838l171.95-.046h.002a7.502 7.502 0 0 1 7.5 7.5v33.87a7.5 7.5 0 0 1-7.5 7.5zm-247.609-68.502c1.77 2.28 3.521 4.576 5.266 6.864 18.291 23.984 35.567 46.638 67.528 46.638h167.315v-18.868l-164.46.044c-30.714-.041-57.169-18.31-75.649-34.678zm-127.813 53.502h76.393c-5.818-5.464-12.712-12.238-19.464-19.586-23.892-26.001-33.14-45.155-28.272-58.554 3.899-10.736 15.784-16.179 35.323-16.179 6.664 0 12.734 1.004 18.332 2.801-19.677-11.33-51.627-24.73-94.998-26.893l12.687 118.411z" fill="#1e284c"/><path d="M583.401 2062.012c-50.008-12.309-110.389-54.855-142.917-103.421L342.65 2067.97c.03.07.062.14.091.21 12.538 6.664 22.117 13.548 28.511 19.129 10.812 9.436 48.149 55.561 94.313 55.622l171.961-.046v-18.466c-.126-32.168-24.173-55.035-54.126-62.407z" fill="#dea2ff"/><path d="M465.568 2150.432c-42.283-.057-76.498-34.662-92.94-51.292-2.614-2.643-4.871-4.926-6.307-6.179-7.093-6.19-16.716-12.638-27.099-18.156a7.496 7.496 0 0 1-3.396-3.721l-.091-.21a7.5 7.5 0 0 1 1.326-7.902l97.834-109.379a7.5 7.5 0 0 1 11.821.826c30.775 45.95 89.013 88.137 138.478 100.312 16.789 4.133 31.307 12.473 41.983 24.12 11.61 12.665 17.783 28.412 17.851 45.541v18.496a7.5 7.5 0 0 1-7.498 7.5l-171.962.046zm171.96-7.546h.01zm-283.156-76.769c10.163 6.044 17.315 11.617 21.813 15.542 1.852 1.616 4.172 3.963 7.109 6.934 15.017 15.188 46.263 46.791 82.282 46.839l164.452-.044v-10.968c-.104-26.261-19.109-47.91-48.42-55.125-49.889-12.28-108.044-53.038-141.818-98.677z" fill="#1e284c"/><path d="M1032.613 2070.628c-46.924-11.537-147.717-89.529-156.213-173.839-68.325-678.018-73.515-753.868-81.245-841.086-14.518-163.8-53.081-189.002-53.081-189.002H472.732l142.386 581.781c-5.817 109.253 72.627 355.274 105.125 459.75 5.29 17.006 1.814 26.131-1.416 34.562-5.195 13.561-8.878 22.772-12.205 40.802-5.321 28.833 13.336 56.132 41.891 62.787 36.047 8.4 41.918 11.529 54.928 17.78 56.084 26.945 75.173 78.724 116.655 78.724h166.641v-18.466c-.126-32.168-24.171-46.426-54.126-53.791z" fill="#fff"/><path d="M1086.739 2150.386H920.098c-25.756 0-43.004-16.737-62.976-36.116-15.306-14.852-32.654-31.685-56.928-43.347l-1.264-.608c-11.646-5.604-18.06-8.691-52.118-16.628-32.662-7.611-53.555-38.997-47.565-71.452 3.318-17.979 6.941-27.426 11.955-40.5l.622-1.623c2.975-7.766 5.784-15.102 1.259-29.652l-4.304-13.811c-34.544-110.794-106.294-340.918-101.206-447.448L465.447 868.485a7.497 7.497 0 0 1 7.285-9.283h269.342c1.457 0 2.883.425 4.103 1.222 1.182.772 11.888 8.352 23.89 36.404 15.515 36.263 26.469 89.493 32.56 158.214.952 10.744 1.866 21.315 2.863 32.859 6.906 79.908 18.465 213.65 78.372 808.137 3.56 35.317 25.395 74.242 61.483 109.605 33.699 33.021 69.012 52.774 89.059 57.703 40.141 9.869 59.713 29.837 59.835 61.045v18.496a7.5 7.5 0 0 1-7.5 7.5zM482.29 874.201l140.115 572.498c.175.714.243 1.449.204 2.182-5.503 103.343 66.087 332.956 100.491 443.303l4.306 13.821c6.071 19.516 1.832 30.582-1.573 39.473l-.624 1.629c-4.728 12.325-8.143 21.231-11.21 37.851-4.532 24.56 11.377 48.332 36.219 54.121 35.668 8.312 42.612 11.654 55.218 17.72l1.256.604c26.473 12.718 44.751 30.454 60.877 46.103 18.356 17.812 32.855 31.881 52.53 31.881h159.141v-10.966c-.094-23.946-15.026-38.299-48.417-46.508-26.473-6.509-65.043-31.246-95.975-61.556-38.592-37.815-61.999-80.01-65.909-118.815-59.919-594.593-71.482-728.401-78.393-808.349a14704.44 14704.44 0 0 0-2.86-32.827c-12.193-137.579-41.596-175.163-48.438-182.164H482.291z" fill="#1e284c"/><path d="M804.504 2064.681c52.753 36.387 76.118 90.178 115.594 90.178h174.815v-30.44c-.126-32.168-24.387-54.213-54.126-62.407-44.673-12.309-111.206-55.044-142.63-103.501z" fill="#dea2ff"/><path d="M1094.914 2162.36H920.099c-26.653 0-45.896-20.51-68.179-44.258-14.465-15.417-30.859-32.89-51.674-47.247a7.5 7.5 0 0 1-1.366-11.135l93.652-106.17a7.5 7.5 0 0 1 11.917.881c30.353 46.805 95.437 88.533 138.33 100.351 16.771 4.621 31.181 13.038 41.673 24.342 11.684 12.588 17.895 28.24 17.961 45.267v30.47a7.5 7.5 0 0 1-7.5 7.5zm-279.308-98.927c18.856 14.142 33.854 30.126 47.253 44.406 20.717 22.081 37.081 39.521 57.239 39.521h167.315v-22.94c-.121-30.83-25.194-48.722-48.618-55.177-44.041-12.135-107.009-51.641-141.358-98.577l-81.831 92.768z" fill="#1e284c"/><path d="M783.47 2082.436c-68.72 6.116 32.031 94.32 32.031 94.32h-102.75l-14.323-134.685c66.517.99 104.481 17.623 135.446 41.282 33.417 25.532 50.301 59.579 89.077 59.579l171.961-.046v33.87H920.097c-68.976 0-67.907-100.435-136.628-94.32z" fill="#1e284c"/><path d="M1094.914 2184.256H920.099c-37.921 0-57.009-27.435-73.851-51.64-16.956-24.372-31.598-45.424-62.112-42.709-6.726.599-15.092 2.383-16.754 7.482-.931 2.856-2.024 14.42 22.997 43.334 14.362 16.597 29.908 30.253 30.063 30.389a7.501 7.501 0 0 1-4.941 13.143h-102.75a7.5 7.5 0 0 1-7.458-6.707l-14.323-134.685a7.502 7.502 0 0 1 1.919-5.85 7.567 7.567 0 0 1 5.65-2.443c59.937.893 101.772 13.699 139.889 42.822 10.714 8.186 19.558 16.984 28.11 25.493 18.277 18.183 32.713 32.545 56.413 32.545l171.96-.046h.002a7.502 7.502 0 0 1 7.5 7.5v33.87a7.5 7.5 0 0 1-7.5 7.5zm-264.772-94.312c11.321 9.526 20.137 22.199 28.42 34.105 16.175 23.248 31.453 45.207 61.537 45.207h167.315v-18.868l-164.46.044c-29.893 0-47.914-17.929-66.994-36.912-7.984-7.943-16.233-16.149-25.818-23.576zm-110.645 79.312h77.104c-5.282-5.238-11.487-11.693-17.565-18.717-21.877-25.28-30.354-44.187-25.916-57.799 3.372-10.341 13.359-16.321 29.686-17.774 16.182-1.441 29.002 2.481 39.677 9.314-23.463-16.565-56.344-32.281-115.69-34.49l12.705 119.466z" fill="#1e284c"/><path d="M880.469 1830.721s-62.001-681.923-70.313-775.018c-14.624-163.791-53.081-189.002-53.081-189.002H491.716l-32.683 997.935s262.962 8.445 421.436-33.915z" fill="#fff"/><path d="M514.715 1872.813c-34.038 0-55.549-.669-55.924-.681a7.499 7.499 0 0 1-7.254-7.741l32.684-997.935a7.5 7.5 0 0 1 7.496-7.254h265.358a7.5 7.5 0 0 1 4.112 1.228c1.178.772 11.854 8.355 23.841 36.405 15.495 36.262 26.463 89.489 32.599 158.203 8.216 92.024 69.691 768.186 70.313 775.005a7.502 7.502 0 0 1-5.533 7.925c-82.536 22.062-193.364 30.173-271.804 33.092-36.698 1.366-69.935 1.755-95.887 1.755zm-47.939-15.487c43.372.929 264.562 3.68 405.648-32.257-6.302-69.312-61.949-681.455-69.739-768.699-12.279-137.538-41.608-175.15-48.445-182.169H498.975z" fill="#1e284c"/><path d="m636.678 1080.419-7.36 806.412s-55.7 8.921-142.764 7.911c-189.874-2.204-288.679-41.393-288.679-41.393s107.084-738.353 120.524-833.887c16.649-118.346 74.827-152.784 74.827-152.784l215.481-.118" fill="#fff"/><path d="M500.091 1902.32c-4.456 0-8.994-.025-13.624-.079-98.685-1.145-172.465-12.422-216.982-21.68-48.513-10.089-73.342-19.832-74.375-20.241a7.499 7.499 0 0 1-4.656-8.048c1.07-7.384 107.234-739.43 120.519-833.856 16.957-120.532 75.933-156.712 78.435-158.194a7.502 7.502 0 0 1 3.816-1.046l215.48-.118h.004a7.5 7.5 0 0 1 .004 15l-213.21.116c-4.03 2.867-15.417 11.858-27.953 29.739-14.45 20.612-33.419 57.57-41.723 116.592-12.642 89.862-109.348 756.819-119.648 827.853 23.239 7.932 119.15 37.011 280.464 38.883 68.883.8 118.432-4.732 135.236-6.938l7.301-799.953a7.5 7.5 0 0 1 7.498-7.432h.07a7.501 7.501 0 0 1 7.432 7.568l-7.36 806.412a7.5 7.5 0 0 1-6.313 7.337c-.534.085-51.439 8.083-130.413 8.083z" fill="#1e284c"/><path d="m393.227 866.701 4.434-52.258h356.557l2.857 52.258z" fill="#dea2ff"/><path d="M757.075 874.201H393.227a7.5 7.5 0 0 1-7.473-8.134l4.435-52.258a7.5 7.5 0 0 1 7.473-6.866H754.22a7.501 7.501 0 0 1 7.489 7.091l2.856 52.258a7.504 7.504 0 0 1-7.489 7.91zm-355.685-15h347.764l-2.037-37.258H404.552l-3.161 37.258z" fill="#1e284c"/><path d="M699.095 874.201a7.5 7.5 0 0 1-7.496-7.356l-1-52.258a7.5 7.5 0 0 1 7.355-7.642l.146-.001a7.5 7.5 0 0 1 7.496 7.356l1 52.258a7.5 7.5 0 0 1-7.355 7.642l-.146.001zm-161.012 0a7.499 7.499 0 0 1-7.499-7.787l2-52.258a7.48 7.48 0 0 1 7.781-7.208 7.499 7.499 0 0 1 7.207 7.781l-2 52.258a7.5 7.5 0 0 1-7.489 7.213z" fill="#1e284c"/><path d="m1000.622 704.037 268.513-219.929 64.343 60.25-232.45 303.692c-47.294 61.902-140.116 63.034-188.906 2.304l-49.446-61.548" fill="#fff"/><path d="M1005.632 902.699c-38.844 0-74.981-17.307-99.355-47.648l-49.446-61.548a7.5 7.5 0 0 1 1.149-10.544 7.5 7.5 0 0 1 10.544 1.15l49.446 61.548c21.802 27.137 54.269 42.459 89.075 42.033 34.808-.424 66.891-16.532 88.023-44.193l228.326-298.306-54.59-51.118-263.431 215.766a7.5 7.5 0 1 1-9.504-11.605l268.513-219.929a7.498 7.498 0 0 1 9.878.328l64.343 60.25a7.501 7.501 0 0 1 .83 10.033l-232.449 303.693c-23.947 31.344-60.309 49.599-99.757 50.08-.532.006-1.065.01-1.596.01z" fill="#1e284c"/><path d="M1510.082 463.67c-3.771-4.584-10.417-5.58-15.593-2.672l-84.521 47.601 80.776-77.013a12.068 12.068 0 0 0-15.547-18.403c-8.433 6.298-49.262 36.868-71.03 53.167 20.757-24.797 39.376-47.513 49.774-60.059 4.102-4.95 3.603-12.246-1.134-16.592a12.068 12.068 0 0 0-16.46.134l-79.112 74.875-26.457-.788 21.675-63.063c2.663-7.746-1.23-16.217-8.842-19.241a15.339 15.339 0 0 0-17.778 4.845l-42.145 57.9c-6.294 8.647-29.084 51.648-29.084 51.648l-16.759 13.728s9.945 9.045 14.949 16.829 10.292 28.24 10.292 28.24 6.875 25.859 38.822 23.051l67.372-5.761a75.001 75.001 0 0 0 38.674-14.775l100.066-76.247c5.483-4.121 6.494-12.019 2.063-17.405z" fill="#fff"/><path d="M1297.227 585.569c-26.51 0-38.63-18.453-41.39-28.835a7.5 7.5 0 0 1 14.496-3.854c.562 1.963 6.351 19.666 30.917 17.507l67.39-5.763a67.416 67.416 0 0 0 34.806-13.298l100.027-76.217c1.057-.794 1.699-1.911 1.851-3.176a4.607 4.607 0 0 0-1.034-3.499c-1.392-1.692-4.024-2.078-6.127-.898l-84.515 47.597a7.5 7.5 0 0 1-7.362-13.07l84.521-47.6c8.487-4.769 19.026-2.898 25.065 4.442 3.442 4.185 4.985 9.444 4.345 14.809a19.721 19.721 0 0 1-7.693 13.357l-100.026 76.216a82.443 82.443 0 0 1-42.581 16.282l-67.372 5.761a60.783 60.783 0 0 1-5.318.238zm-59.379-68.331a7.5 7.5 0 0 1-4.756-13.303l15.594-12.773c4.367-8.216 22.944-42.98 28.939-51.215l42.144-57.9c.046-.063.093-.126.141-.187 6.196-7.978 17.081-10.945 26.471-7.214 11.354 4.511 17.138 17.095 13.165 28.65l-18.364 53.431 13.162.392 76.849-72.733c7.419-7.035 19.142-7.132 26.686-.214 7.688 7.055 8.495 18.872 1.838 26.905l-49.773 60.058a7.5 7.5 0 1 1-11.549-9.571l49.773-60.059a4.565 4.565 0 0 0-.43-6.28 4.582 4.582 0 0 0-6.229.051l-79.117 74.879a7.498 7.498 0 0 1-5.378 2.049l-26.457-.787a7.5 7.5 0 0 1-6.87-9.934l21.675-63.063a7.828 7.828 0 0 0-4.518-9.833c-3.196-1.269-6.891-.281-9.026 2.399l-42.063 57.789c-4.905 6.739-22.252 38.917-28.521 50.747a7.504 7.504 0 0 1-1.875 2.29l-16.76 13.727a7.468 7.468 0 0 1-4.748 1.698z" fill="#1e284c"/><path d="M1324.415 516.108a7.5 7.5 0 0 1-5.47-12.631c.591-.652 11.828-13.481 4.649-37.402a7.5 7.5 0 0 1 14.367-4.311c9.828 32.752-7.387 51.254-8.125 52.026a7.478 7.478 0 0 1-5.422 2.317zm85.553-.01a7.503 7.503 0 0 1-5.177-12.929l80.776-77.013a4.581 4.581 0 0 0 .366-6.22 4.565 4.565 0 0 0-6.249-.747c-11.483 8.577-84.029 62.902-84.761 63.449a7.5 7.5 0 0 1-10.498-1.508 7.499 7.499 0 0 1 1.508-10.499c.731-.548 73.284-54.879 84.774-63.461 8.359-6.243 20.122-4.839 26.777 3.196 6.528 7.881 5.839 19.585-1.567 26.645l-80.775 77.013a7.478 7.478 0 0 1-5.175 2.072z" fill="#1e284c"/><path d="M1000.622 704.037 878.053 481.133a150.002 150.002 0 0 0-97.123-73.747l-57.738-13.569s-10.49 20.138-48.575 20.138c-73.382 0-118.359-62.807-118.359-62.807l-46.911-13.094s-81.814 83.386-88.582 227.872 333.63 157.736 333.63 157.736l98.918 139.746 147.308-159.371z" fill="#95ff80"/><path d="M853.315 870.908a7.503 7.503 0 0 1-6.123-3.167l-96.809-136.766c-13.942-.747-65.217-4.076-122.854-14.983-91.295-17.275-154.411-44.368-187.596-80.526-18.897-20.591-27.866-44.105-26.659-69.89 3.563-76.067 27.93-135.177 47.742-171.369 21.551-39.365 42.113-60.523 42.979-61.405a7.5 7.5 0 0 1 7.37-1.971l46.91 13.094a7.505 7.505 0 0 1 4.081 2.857c.424.589 43.749 59.674 112.262 59.674 31.788 0 41.224-14.92 41.947-16.152 1.534-3.142 4.934-4.588 8.344-3.787l57.737 13.569c43.351 10.188 80.521 38.411 101.979 77.434l122.569 222.905a7.502 7.502 0 0 1-1.064 8.705L858.821 868.501a7.502 7.502 0 0 1-5.507 2.409zM511.773 346.517c-6.315 7.168-21.937 26.172-37.878 55.401-18.934 34.717-42.221 91.412-45.637 164.358-1.014 21.641 6.63 41.505 22.72 59.039 74.309 80.981 301.425 90.762 303.71 90.851a7.503 7.503 0 0 1 5.83 3.161l93.57 132.192 137.358-148.605L871.48 484.745c-19.414-35.306-53.044-60.842-92.267-70.059l-52.941-12.442c-6.169 7.087-21.178 19.21-51.655 19.21-31.673 0-63.233-11.397-91.271-32.958-16.795-12.917-27.604-25.783-31.537-30.804l-40.037-11.175z" fill="#1e284c"/><path d="M801.176 572.647s26.152 235.699 26.152 251.794c0 23.578-14.937 32.754-37.887 32.754l-15.323 33.835s-70.06-8.03-101.774-76.586H383.788c-14.826 0-67.511-10.833-57.798-65.32 5.226-29.315 67.473-289.767 67.473-289.767" fill="#95ff80"/><path d="M774.122 898.529c-.284 0-.569-.016-.857-.049-.768-.088-19.064-2.282-41.453-13.307-19.867-9.783-46.748-28.613-64.173-63.23h-283.85c-11.711 0-38.076-5.036-54.039-24.096-10.977-13.106-14.726-29.942-11.143-50.04 5.204-29.194 65.019-279.551 67.562-290.194a7.5 7.5 0 0 1 14.59 3.487c-.622 2.602-62.256 260.572-67.384 289.339-2.768 15.523-.118 28.233 7.875 37.777 12.803 15.286 35.572 18.727 42.539 18.727h288.556a7.5 7.5 0 0 1 6.807 4.351c12.331 26.656 32.108 46.901 58.781 60.172 13.362 6.648 25.229 9.798 31.754 11.171l12.924-28.537a7.5 7.5 0 0 1 6.832-4.406c26.933 0 30.387-13.496 30.387-25.254 0-12.863-18.846-185.523-26.106-250.966a7.499 7.499 0 0 1 6.627-8.281 7.497 7.497 0 0 1 8.281 6.627c1.07 9.641 26.198 236.299 26.198 252.621 0 24.47-14.326 38.577-40.486 40.114l-13.392 29.569a7.5 7.5 0 0 1-6.829 4.406z" fill="#1e284c"/><path d="M789.442 864.694c-13.587 0-32.781-6.133-57.049-18.228a7.5 7.5 0 1 1 6.692-13.425c21.858 10.894 39.271 16.653 50.357 16.653 4.143 0 7.5 3.358 7.5 7.5s-3.357 7.5-7.5 7.5z" fill="#1e284c"/><path d="M398.463 765.613s1.941 35.295 40.708 48.829c33.562 11.717 170.691 15.667 234.17 4.216 51.452-9.281 83.297-34.298 83.297-34.298" fill="#95ff80"/><path d="M569.957 832.979c-56.479 0-113.122-4.425-133.258-11.455-43.014-15.016-45.635-53.852-45.725-55.498a7.5 7.5 0 0 1 7.076-7.901 7.49 7.49 0 0 1 7.899 7.048c.094 1.393 2.479 30.594 35.692 42.189 31.859 11.123 167.998 15.166 230.367 3.916 48.817-8.806 79.697-32.583 80.003-32.822 3.263-2.547 7.974-1.975 10.525 1.283a7.495 7.495 0 0 1-1.268 10.519c-1.359 1.068-33.917 26.279-86.599 35.782-26.754 4.826-65.698 6.939-104.715 6.939z" fill="#1e284c"/><path d="m388.336 1058.142-93.461-82.687c-4.707-4.613-12.23-4.646-16.977-.074a12.182 12.182 0 0 0-1.617 15.634l64.952 95.336" fill="#fff"/><path d="M341.241 1093.851a7.493 7.493 0 0 1-6.205-3.278l-64.952-95.336a19.632 19.632 0 0 1 2.613-25.259c7.673-7.389 19.612-7.384 27.275-.028l93.334 82.574c3.103 2.745 3.393 7.484.647 10.587s-7.486 3.392-10.587.648l-93.461-82.687a8.64 8.64 0 0 1-.28-.261 4.658 4.658 0 0 0-6.524-.029 4.67 4.67 0 0 0-.621 6.008l64.952 95.337a7.5 7.5 0 0 1-6.192 11.723z" fill="#1e284c"/><path d="m346.364 1066.473-82.75-68.557c-5.31-3.904-12.762-2.878-16.818 2.317a12.182 12.182 0 0 0 .6 15.705l75.941 83.279" fill="#fff"/><path d="M323.339 1106.718a7.481 7.481 0 0 1-5.544-2.447l-75.94-83.279a19.632 19.632 0 0 1-.97-25.375c6.6-8.451 18.535-10.096 27.173-3.743.116.086.23.175.342.267l82.749 68.557a7.5 7.5 0 1 1-9.571 11.55l-82.543-68.387a4.66 4.66 0 0 0-6.328.988 4.67 4.67 0 0 0 .23 6.035l75.941 83.28a7.5 7.5 0 0 1-5.54 12.553z" fill="#1e284c"/><path d="M331.201 1079.519c-23.72-55.422-22.514-83.786-19.219-96.376 1.523-5.819-.49-11.988-5.083-15.873L50.01 750.013c-58.644-49.596-56.246-140.752 4.923-187.198l241.109-183.072 122.185 154.288-211.721 135.455 184.617 252.271c11.439 15.631 22.016 45.763 34.765 78.887a55.681 55.681 0 0 1-8.954 55.366l-39.751 48.635a40.001 40.001 0 0 1-44.185 12.441l-53.14-18.599a20.003 20.003 0 0 1-5.413-3.374l-38.131-33.279a12.182 12.182 0 0 1-2.714-15.481c3.318-5.695 10.564-7.717 16.352-4.565l36.844 21.677 42.327 10.824" fill="#fff"/><path d="M346.127 1126.814a47.197 47.197 0 0 1-15.607-2.65l-53.14-18.599a7.76 7.76 0 0 1-.425-.163 27.462 27.462 0 0 1-7.442-4.639l-38.075-33.23a19.632 19.632 0 0 1-4.318-24.956c5.399-9.264 17.001-12.504 26.419-7.376.073.04.145.08.216.122l35.93 21.139 26.995 6.904c-15.954-43.281-15.562-68.334-11.952-82.123.78-2.978-.269-6.215-2.67-8.247L45.167 755.739C15.468 730.623-.978 693.917.044 655.035s19.376-74.672 50.354-98.194l241.109-183.072a7.5 7.5 0 0 1 10.415 1.317l122.186 154.288a7.502 7.502 0 0 1-1.837 10.974L217.275 671.5l179.902 245.827c10.441 14.269 19.741 38.707 30.509 67.005 1.698 4.461 3.429 9.01 5.202 13.618 8.163 21.207 4.27 45.279-10.16 62.824l-39.737 48.617c-9.173 11.224-22.85 17.423-36.862 17.423zm-63.552-35.322 52.899 18.515c12.854 4.5 27.283.437 35.901-10.108l39.751-48.635c11.018-13.396 13.986-31.754 7.762-47.926a3735.674 3735.674 0 0 1-5.223-13.671c-10.383-27.283-19.349-50.845-28.596-63.481l-184.617-252.27a7.503 7.503 0 0 1 2.011-10.747l204.734-130.984-112.474-142.024L59.466 568.789c-27.333 20.754-43.526 52.334-44.429 86.641-.902 34.308 13.609 66.695 39.813 88.857l256.89 217.257c6.788 5.74 9.73 14.964 7.496 23.499-2.766 10.564-4.146 35.444 16.232 85.255.453.72.783 1.515.972 2.353a434.182 434.182 0 0 0 1.654 3.917 7.502 7.502 0 0 1-3.944 9.846 7.5 7.5 0 0 1-9.846-3.944c-.269-.627-.535-1.253-.798-1.874l-38.571-9.864a7.511 7.511 0 0 1-1.944-.802l-36.713-21.6a4.657 4.657 0 0 0-6.2 1.799 4.67 4.67 0 0 0 1.043 5.95l.122.104 38.131 33.279a12.49 12.49 0 0 0 3.199 2.03z" fill="#1e284c"/><path d="M420.766 565.926 245.175 722.324 102.186 526.936l204.353-155.163a220.002 220.002 0 0 1 192.185-36.685l57.534 16.059" fill="#95ff80"/><path d="M245.175 729.824a7.5 7.5 0 0 1-6.053-3.071L96.133 531.365a7.501 7.501 0 0 1 1.518-10.403l204.353-155.163c27.805-21.112 60.627-35.731 94.92-42.277 34.29-6.546 70.191-5.045 103.817 4.341l57.534 16.059a7.5 7.5 0 0 1 5.207 9.24 7.5 7.5 0 0 1-9.24 5.208l-57.534-16.059c-63.627-17.759-133.022-4.513-185.634 35.434L112.591 528.452l133.762 182.779 169.426-150.907a7.5 7.5 0 0 1 9.977 11.201L250.165 727.923a7.501 7.501 0 0 1-4.988 1.899z" fill="#1e284c"/><path d="M698.427 599.489a7.501 7.501 0 0 1-5.594-2.505c-.286-.32-28.969-32.562-60.781-78.359-42.875-61.722-70.821-117.448-83.063-165.631a7.5 7.5 0 0 1 14.539-3.694c23.723 93.375 106.146 196.951 132.403 228.251 10.648-29.533 35.779-110.742 19.939-182.11a7.5 7.5 0 0 1 14.644-3.25c10.871 48.985 3.432 101.517-4.724 136.961-8.797 38.23-19.992 64.673-20.465 65.78a7.5 7.5 0 0 1-6.9 4.557z" fill="#1e284c"/><circle cx="700.354" cy="616.208" fill="#fff" r="24.295"/><path d="M700.302 648.005c-7.548 0-14.773-2.653-20.579-7.604-6.463-5.511-10.392-13.208-11.064-21.674-.673-8.466 1.991-16.687 7.502-23.149s13.207-10.392 21.673-11.065c17.476-1.388 32.825 11.699 34.216 29.176 1.388 17.477-11.7 32.826-29.176 34.215-.86.068-1.719.102-2.571.102zm.063-48.593c-.445 0-.893.018-1.343.053a16.68 16.68 0 0 0-11.449 5.845c-2.91 3.414-4.317 7.756-3.962 12.228s2.431 8.538 5.844 11.449a16.68 16.68 0 0 0 12.229 3.963c9.231-.734 16.146-8.842 15.412-18.074-.698-8.78-8.068-15.464-16.73-15.464z" fill="#1e284c"/></svg></g><g transform="translate(1185.0 1110.0) rotate(0.0 836.0294117647059 603.9705882352941) scale(0.8820136335570178 0.8822756051117421)"><svg width="1895.729" height="1369.12" viewBox="0 0 1895.729 1369.12"><path d="M603.173 1150.125 491.499 754.82l128.163-366.46 214.168-22.358 189.749 276.509 91.735 421.436z" fill="#95ff80"/><path d="M603.168 1157.625a7.502 7.502 0 0 1-7.212-5.462L484.282 756.858a7.492 7.492 0 0 1 .139-4.515l128.162-366.459a7.5 7.5 0 0 1 6.301-4.984l214.168-22.358a7.5 7.5 0 0 1 6.962 3.216l189.749 276.508c.55.8.938 1.7 1.145 2.648l91.735 421.437a7.497 7.497 0 0 1-6.084 8.991l-512.141 86.177a7.48 7.48 0 0 1-1.25.105zM499.361 755.06l109.201 386.552 497.751-83.756-89.75-412.314L830.17 373.925l-204.999 21.4L499.36 755.059z" fill="#1e284c"/><path d="M902.928 910.495c-29.467-97.151-17.137-174.092-18.563-199.323-10.434-184.587-82.281-220.636-74.858-279.647l24.323-65.522s191.415 54.115 201.647 256.407l92.426 439.419-169.848 28.58s-17.754-56.697-55.127-179.914z" fill="#fff"/><path d="M958.049 1097.91a7.5 7.5 0 0 1-7.151-5.26c-.178-.567-18.196-58.153-55.146-179.978-23.537-77.597-20.787-143.461-19.31-178.845.401-9.612.719-17.205.435-22.231-6.148-108.78-33.641-164.677-53.715-205.492-13.612-27.676-24.364-49.536-21.096-75.514a7.53 7.53 0 0 1 .41-1.674l24.322-65.522a7.5 7.5 0 0 1 9.071-4.607c2.013.569 49.863 14.386 99.596 53.676 29.273 23.126 53.054 50.307 70.68 80.788 21.947 37.953 34.324 81.077 36.792 128.189l92.306 438.846a7.503 7.503 0 0 1-6.096 8.94l-169.848 28.58c-.419.07-.837.104-1.25.105zm-141.2-664.612c-2.363 21.179 6.948 40.112 19.772 66.185 20.642 41.968 48.911 99.445 55.231 211.266.325 5.763-.005 13.68-.424 23.704-1.542 36.917-4.122 98.705 18.676 173.866 30.082 99.178 47.602 155.733 53.162 173.608l155.688-26.198-90.818-431.776a7.487 7.487 0 0 1-.15-1.165c-4.12-81.441-38.229-148.128-101.381-198.209-36.988-29.333-73.681-44.074-88.256-49.203l-21.501 57.921z" fill="#1e284c"/><path d="M619.662 388.36c.683 19.522 13.892 58.166 52.63 88.403 3.794 71.508 22.543 114.736 5.462 185.763-29.133 121.145 59.665 327.17 61.498 336.09 7.735 37.641-8.222 67.286-37.619 84.084-38.953 22.259-139.524 42.369-158.21 145.557-27.348-16.265-64.331-39.389-63.165-71.186 0 0 2.936-145.021 2.133-197.095-1.629-105.613-17.238-433.371-17.238-433.371z" fill="#fff"/><path d="M543.422 1235.757a7.5 7.5 0 0 1-3.834-1.054c-25.492-15.161-68.148-40.528-66.828-77.843.072-3.6 2.917-145.819 2.131-196.769-1.608-104.285-17.075-429.854-17.23-433.13a7.504 7.504 0 0 1 2.49-5.946l154.51-138.245a7.5 7.5 0 0 1 12.496 5.327c.547 15.618 11.648 53.014 49.749 82.753a7.496 7.496 0 0 1 2.875 5.515c1.206 22.726 3.932 42.469 6.567 61.563 5.454 39.512 10.605 76.834-1.302 126.351-16.547 68.805 2.572 176.321 56.824 319.563 3.398 8.971 4.393 11.63 4.729 13.263 8.01 38.979-7.022 72.551-41.245 92.106-7.954 4.545-17.919 8.817-29.457 13.763-46.744 20.039-110.764 47.483-125.095 126.619a7.497 7.497 0 0 1-7.38 6.163zm-70.61-705.942c1.698 35.946 15.557 331.447 17.077 430.045.797 51.611-2.104 195.911-2.134 197.363l-.003.123c-.865 23.582 24.194 42.752 50.53 59.035 19.382-79.043 86.595-107.854 131.704-127.192 11.116-4.765 20.716-8.88 27.926-13 28.19-16.109 40.584-43.787 34.017-75.951-.333-1.174-2.157-5.989-4.086-11.082-8.899-23.498-29.74-78.524-45.075-140.817-19.271-78.281-23.411-141.388-12.306-187.566 11.245-46.764 6.51-81.07 1.026-120.793-2.548-18.459-5.179-37.518-6.496-59.443-31.705-25.786-45.838-56.255-50.727-77.285L472.811 529.815z" fill="#1e284c"/><path d="M1440.806 1361.611s93.293-173.438-21.261-160.332c-35.182 4.025-86.1-4.496-86.1-4.496s-79.985 95.118-20.653 164.829h128.014z" fill="#fff"/><path d="M1440.806 1369.111h-128.014a7.501 7.501 0 0 1-5.711-2.639c-26.154-30.729-30.721-70.884-13.206-116.125 12.883-33.274 32.98-57.382 33.83-58.392a7.506 7.506 0 0 1 6.978-2.57c.499.083 50.309 8.298 84.01 4.443 26.866-3.075 45.843 3.271 56.405 18.857 12.891 19.021 11.968 50.754-2.741 94.317-10.569 31.3-24.363 57.08-24.945 58.162a7.5 7.5 0 0 1-6.605 3.947zm-124.467-15h119.935c15.75-30.646 46.148-103.892 26.403-133.015-7.182-10.593-21.402-14.752-42.279-12.366-30.128 3.447-70.456-1.872-83.78-3.861-5.683 7.45-19.548 26.961-28.887 51.239-14.96 38.888-12.06 71.841 8.608 98.003z" fill="#1e284c"/><path d="M1396.787 1361.611c-29.224 0-30.206-20.958-18.231-39.774 26.517-41.668 34.556-59.726 40.285-73.877 9.843-24.313-3.405-36.51-14.794-44.345-3.623-2.492-7.039-4.568-9.501-6.403-2.942-2.192-6.139-6.431.852-9.484 61.323-17.619 45.298-48.311 113.565-82.661a20.026 20.026 0 0 1 16.027-.864l269.364 101.031c31.102 11.742 51.836 41.336 52.251 74.578.561 45.066-35.858 81.877-80.928 81.798h-368.889z" fill="#fff"/><path d="M1765.823 1369.111h-369.036c-18.443 0-26.446-7.526-29.911-13.839-5.441-9.912-3.49-23.566 5.353-37.462 25.979-40.822 33.838-58.281 39.661-72.665 7.104-17.547.304-26.823-12.094-35.352-1.482-1.02-2.93-1.967-4.286-2.856-1.976-1.294-3.842-2.517-5.444-3.71-4.51-3.359-6.806-7.817-6.299-12.229.352-3.061 2.134-7.306 8.629-10.142.303-.132.613-.244.931-.335 29.84-8.573 39.689-20.057 52.159-34.597 12.242-14.275 26.118-30.454 60.105-47.555a27.594 27.594 0 0 1 22.032-1.187l269.364 101.031c16.692 6.302 30.913 17.346 41.142 31.946 10.229 14.599 15.752 31.737 15.974 49.562.297 23.819-8.766 46.263-25.521 63.197-16.716 16.896-38.998 26.194-62.759 26.194zm-363.501-175.645c.45.297.92.605 1.407.924a241.27 241.27 0 0 1 4.568 3.045c7.562 5.203 30.574 21.034 17.496 53.339-6.084 15.025-14.254 33.2-40.911 75.088-5.643 8.868-7.504 17.371-4.858 22.191 2.748 5.006 10.633 6.057 16.763 6.057h369.022c19.738 0 38.233-7.718 52.11-21.744 13.907-14.057 21.431-32.688 21.185-52.46-.379-30.371-18.984-56.928-47.4-67.655l-269.349-101.025a12.543 12.543 0 0 0-10.022.542c-31.301 15.75-44.137 30.716-55.462 43.921-12.348 14.397-24.046 28.035-54.549 37.778z" fill="#1e284c"/><path d="M1813.091 1298.79c-.414-33.242-21.148-62.837-52.25-74.579l-277.355-104.028c-37.624 26.629-36.216 49.97-80.303 65.097-4.664 2.061-13.282 2.096-11.712 8.874 4.909 8.121 42.143 17.32 27.371 53.807-5.729 14.151-13.769 32.208-40.285 73.877-11.975 18.817-10.993 39.774 18.231 39.774h368.889a80.818 80.818 0 0 0 22.014-3.02c15.87-14.956 25.695-36.245 25.401-59.802z" fill="#fff"/><path d="M1765.814 1369.111h-369.027c-18.443 0-26.446-7.525-29.911-13.839-5.441-9.912-3.49-23.566 5.353-37.462 25.979-40.822 33.838-58.281 39.661-72.665 8.167-20.173-2.055-28.861-16.267-38.123-4.734-3.086-8.475-5.523-10.57-8.99a7.513 7.513 0 0 1-.889-2.188c-2.804-12.109 9.14-15.42 13.064-16.508 1.118-.31 2.275-.631 2.922-.917.196-.086.396-.165.599-.234 24.171-8.293 33.251-18.874 44.746-32.271 8.228-9.588 17.553-20.455 33.658-31.854a7.496 7.496 0 0 1 6.967-.901l277.354 104.028c16.692 6.302 30.913 17.346 41.142 31.946 10.228 14.598 15.751 31.738 15.974 49.562.308 24.62-9.809 48.441-27.756 65.354a7.488 7.488 0 0 1-3.116 1.763 88.455 88.455 0 0 1-23.903 3.299zm21.876-10.52h.01zm-385.361-165.106c.511.337 1.016.666 1.483.971 11.501 7.495 35.434 23.091 21.981 56.319-6.084 15.025-14.254 33.2-40.911 75.089-5.643 8.867-7.504 17.37-4.858 22.19 2.748 5.006 10.633 6.057 16.763 6.057h369.015c6.09 0 12.156-.76 18.074-2.263 14.068-13.949 21.963-33.146 21.716-52.965-.379-30.372-18.984-56.928-47.4-67.656l-273.559-102.605c-12.656 9.465-20.321 18.399-27.754 27.06-11.908 13.878-23.159 26.988-50.991 36.597-1.179.496-2.377.868-3.559 1.205z" fill="#1e284c"/><path d="M1629.052 1369.113a7.501 7.501 0 0 1-7.445-8.483l5.281-39.962-85.954 47.508a7.5 7.5 0 0 1-10.905-8.377l11.274-45.254-91.961 53.548a7.5 7.5 0 0 1-10.756-9.222l27.8-70.823a7.5 7.5 0 0 1 13.963 5.481l-19.921 50.75 88.671-51.632a7.5 7.5 0 0 1 11.051 8.295l-11.405 45.778 83.897-46.372a7.499 7.499 0 0 1 11.063 7.546l-7.229 54.7a7.503 7.503 0 0 1-7.426 6.519z" fill="#1e284c"/><path d="M1214.815 600.271c-58.323 103.282-125.554 284.912-169.687 391.524-43.205 104.37-128.856 103.566-340.429 85.87-86.421-7.228-163.887 57.956-163.887 144.679 0 76.734 62.34 139.267 139.073 139.267h261.958c256.868 0 340.262-123.882 369.684-218.25l158.191-472.202-24.849-59.048c-41.146-97.775-176.558-105.81-229.043-13.623-.34.596-.677 1.191-1.011 1.784z" fill="#dea2ff"/><path d="M941.843 1369.111H679.885c-80.82 0-146.573-65.839-146.573-146.767 0-42.159 17.343-81.33 48.833-110.297 33.032-30.385 77.923-45.639 123.179-41.857 101.546 8.494 177.573 13.679 231.259 2.958 51.684-10.318 81.123-34.719 101.615-84.223 10.313-24.915 21.988-54.176 34.348-85.156 40.464-101.422 90.822-227.645 135.739-307.187v-.002l1.024-1.807c13.18-23.148 32.281-41.64 55.239-53.474 21.535-11.1 45.932-16.189 70.531-14.722 24.597 1.468 48.194 9.418 68.242 22.99 21.375 14.47 38.132 35.091 48.46 59.634l24.849 59.048a7.505 7.505 0 0 1 .198 5.292l-158.165 472.127c-19.244 61.669-53.618 111.53-102.167 148.191-66.126 49.934-158.533 75.252-274.654 75.252zm-250.138-284.489c-36.794 0-72.463 13.682-99.405 38.465-28.366 26.093-43.988 61.343-43.988 99.257 0 72.657 59.023 131.767 131.573 131.767h261.958c196.49 0 318.461-71.658 362.524-212.982l.049-.15 157.291-469.519-23.751-56.44c-18.184-43.21-56.977-70.675-103.77-73.468-46.832-2.795-88.633 19.877-111.843 60.646l-.999 1.761c-44.42 78.662-94.57 204.365-134.867 305.37-12.379 31.025-24.07 60.331-34.421 85.334-45.91 110.906-139.861 107.882-347.983 90.476a148.14 148.14 0 0 0-12.368-.517z" fill="#1e284c"/><path d="M698.885 1361.611h613.907c-.511-117.431 20.653-164.829 20.653-164.829l-418.096-76.135s-110.904-18.017-169.283 20.346" fill="#dea2ff"/><path d="M1312.793 1369.111H698.886c-4.143 0-7.5-3.358-7.5-7.5s3.357-7.5 7.5-7.5h606.403c.297-86.083 12.163-133.323 18.068-151.542l-409.27-74.527c-3.079-.485-109.2-16.729-163.901 19.22a7.5 7.5 0 0 1-10.387-2.149 7.5 7.5 0 0 1 2.148-10.386c60.128-39.513 169.957-22.236 174.604-21.481l.142.024 418.097 76.135a7.498 7.498 0 0 1 5.505 10.436c-.197.448-20.497 47.884-20.002 161.738a7.495 7.495 0 0 1-2.186 5.325 7.495 7.495 0 0 1-5.314 2.208zm310.795-332.311s-5.559 33.738-49.401 74.961c-34.968 32.879-85.372 43.649-85.372 43.649s0-56.066 49.419-94.429c43.397-33.689 85.355-24.181 85.355-24.181z" fill="#1e284c"/><path d="M1488.814 1162.911a7.499 7.499 0 0 1-7.5-7.5c0-2.439.595-60.201 52.32-100.354 45.672-35.456 89.757-25.992 91.61-25.572a7.5 7.5 0 0 1 5.743 8.534c-.244 1.48-6.491 36.732-51.664 79.206-36.077 33.922-86.801 45.063-88.942 45.52a7.512 7.512 0 0 1-1.567.166zm120.037-119.914c-14.705 0-39.899 3.632-66.02 23.909-33.635 26.11-42.955 61.386-45.534 78.45 16.006-4.847 47.906-16.638 71.751-39.059 29.193-27.449 40.672-51.438 44.893-63.15a84.887 84.887 0 0 0-5.09-.15z" fill="#1e284c"/><path d="M1424.997 1018.634s87.046 128.951 93.241 161.317l.188.978c8.715 45.263 57.882 70.062 99.459 50.16l15.222-7.287c35.179-16.84 47.599-55.096 31.115-90.443l-87.54-208.023-151.684 93.298z" fill="#fff"/><path d="M1587.501 1245.545c-11.977 0-23.942-2.803-35.042-8.4-21.712-10.949-36.801-30.921-41.397-54.797l-.191-.996c-4.842-25.298-68.116-123.008-92.088-158.521a7.5 7.5 0 0 1 2.286-10.584l151.685-93.297a7.502 7.502 0 0 1 10.843 3.479l87.485 207.894c18.414 39.648 3.82 81.789-34.735 100.246l-15.223 7.287c-10.717 5.13-22.174 7.691-33.622 7.691zm-151.927-224.61c19.056 28.53 84.329 127.819 90.03 157.607l.189.987c3.708 19.259 15.89 35.384 33.419 44.223 17.526 8.838 37.73 9.046 55.434.573l15.223-7.287c30.838-14.761 42.427-48.62 27.557-80.508a6.088 6.088 0 0 1-.116-.261l-84.147-199.961-137.588 84.627z" fill="#1e284c"/><path d="M1510.213 1186.423c6.194 32.366-.423 62.858-.423 117.825 0 .708 192.982-.003 193.679 0 95.176.351 99.638-99.991 99.638-99.991s-39.346-18.471-75.374-37.714c-11.144-5.952-24.828-18.565-36.695-34.749-28.955-39.487-53.255-3.103-81.73 17.236-29.189 20.849-62.954 30.091-81.451 23.89-13.811-4.63-20.048.945-17.644 13.503z" fill="#fff"/><path d="M1559.673 1312.062c-9.114 0-17.017-.008-23.654-.024-8.263-.02-14.667-.052-19.037-.097-9.238-.094-10.203-.104-12.483-2.377a7.51 7.51 0 0 1-2.208-5.316c0-21.186.969-38.683 1.823-54.121 1.335-24.128 2.391-43.186-1.267-62.294-2.134-11.148 1.499-17.053 4.922-20.044 3.589-3.136 10.402-6.025 22.473-1.98 14.079 4.721 45.048-1.695 74.708-22.881 5.354-3.825 10.725-8.388 15.918-12.802 14.602-12.41 29.685-25.243 46.777-23.237 10.624 1.247 20.255 7.943 29.441 20.471 10.803 14.732 23.581 26.907 34.181 32.568 35.435 18.926 74.636 37.356 75.028 37.541a7.502 7.502 0 0 1 4.305 7.122c-.048 1.092-1.346 27.042-14.966 53.252-12.791 24.616-39.079 53.903-91.669 53.906h-.523l-3.565.012c-40.213.135-75.45.227-104.733.271-13.313.021-25.166.031-35.47.031zm-42.344-15.113c20.599.199 86.093.136 182.497-.189 2.325-.007 3.643-.01 3.674-.012h.472c36.017 0 62.303-15.273 78.133-45.402 8.942-17.022 12.024-34.364 13.04-42.565-11.616-5.537-42.471-20.414-70.944-35.623-12.672-6.768-26.963-20.228-39.21-36.93-6.589-8.984-12.834-13.709-19.095-14.443-10.582-1.241-22.6 8.963-35.314 19.769-5.43 4.614-11.045 9.386-16.913 13.578-30.554 21.824-66.823 32.064-88.194 24.897-5.214-1.748-7.51-1.189-7.839-.944-.196.229-.818 1.938-.056 5.927 4.003 20.917 2.903 40.787 1.511 65.943-.742 13.421-1.573 28.42-1.761 45.992z" fill="#1e284c"/><path d="M1651.938 1304.248h236.291c0-44.038-20.569-74.362-47.627-88.262-15.166-7.791-31.762-12.864-52.666-12.41" fill="#fff"/><path d="M1888.229 1311.748h-236.291c-4.143 0-7.5-3.358-7.5-7.5s3.357-7.5 7.5-7.5h228.576c-1.979-34.073-17.525-60.83-43.339-74.09-16.117-8.28-31.705-11.947-49.077-11.583l-.166.002a7.5 7.5 0 0 1-.16-14.998c19.955-.438 37.833 3.772 56.257 13.237 15.292 7.855 28.099 20.221 37.035 35.761 9.73 16.921 14.665 36.83 14.665 59.172a7.5 7.5 0 0 1-7.5 7.5z" fill="#1e284c"/><path d="M1713.096 1253.882a7.5 7.5 0 0 1-7.091-9.942c4.752-13.817 13.952-23.65 24.522-30.646-25.435 4.8-46.821 12.232-47.19 12.362a7.5 7.5 0 0 1-8.497-11.562c.745-.998 14.378-19.011 37.94-34.126-39.245.902-71.658 12.184-72.056 12.325a7.5 7.5 0 0 1-6.505-13.413c.373-.236 37.537-23.809 56.778-45.007a7.501 7.501 0 0 1 11.108 10.081c-7.691 8.474-17.753 17.11-27.429 24.659 18.992-3.2 43.041-5.269 67.783-2.248a7.5 7.5 0 0 1 1.715 14.472c-15.354 5.732-28.143 14.399-37.716 22.393 23.609-5.966 57.439-12.125 82.952-7.006a7.501 7.501 0 0 1-1.245 14.85c-.548.018-55.769 2.252-67.978 37.747a7.503 7.503 0 0 1-7.092 5.063z" fill="#1e284c"/><path d="M1888.229 1361.611h-378.447s-.17-44.243.008-57.364h378.438v57.364z" fill="#fff"/><path d="M1888.229 1369.111h-378.447a7.5 7.5 0 0 1-7.5-7.471c-.007-1.809-.168-44.458.01-57.494a7.5 7.5 0 0 1 7.499-7.398h378.438a7.5 7.5 0 0 1 7.5 7.5v57.363a7.5 7.5 0 0 1-7.5 7.5zm-370.972-15h363.472v-42.363h-363.496c-.052 12.239-.008 31.749.024 42.363z" fill="#1e284c"/><path d="M1264.21 829.152c43.277 102.091 224.604 326.259 224.604 326.259s17.929-65.058 134.774-118.611l-174.791-415.358" fill="#dea2ff"/><path d="M1488.803 1162.894a7.475 7.475 0 0 1-5.82-2.767c-7.431-9.187-182.486-226.158-225.678-328.048a7.5 7.5 0 0 1 13.811-5.855c37.257 87.892 180.431 270.369 215.669 314.646 10.946-21.693 42.686-67.571 127.092-107.811L1441.885 624.35a7.5 7.5 0 0 1 13.826-5.818l174.79 415.357a7.5 7.5 0 0 1-3.788 9.727c-58.43 26.78-90.871 56.357-107.798 76.453-18.24 21.656-22.836 37.214-22.88 37.369a7.532 7.532 0 0 1-5.722 5.303 7.584 7.584 0 0 1-1.51.152z" fill="#1e284c"/><path d="M600.755 155.879a182.986 182.986 0 0 1 9.128-20.549c31.165-59.866 94.375-91.236 148.317-71.446 56.209 20.622 99.009 82.793 56.584 174.804-14.374 31.174-43.339 52.156-43.339 52.156 1.738 10.154 7.242 27.413 11.314 35.894 13.082 27.248 45.297 66.32 45.297 66.32s-47.073 57.452-128.278 48.576c-67.5-7.378-65.584-54.809-65.584-54.809s27.078-21.754 28.544-58.406c-76.088-16.829-89.111-99.784-61.982-172.541z" fill="#fff"/><g fill="#1e284c"><path d="M716.531 450.055c-5.667 0-11.523-.304-17.567-.964-37.864-4.138-55.517-20.59-63.657-33.662-9.075-14.573-8.631-28.327-8.607-28.905a7.5 7.5 0 0 1 2.797-5.544c.213-.174 21.481-17.789 25.238-46.834-26.574-7.454-47.189-23.566-59.876-46.894-18.979-34.898-19.402-84.988-1.13-133.992a190.915 190.915 0 0 1 9.503-21.392c15.883-30.511 40.385-54.971 68.991-68.876 29.211-14.198 60.665-16.383 88.561-6.147 32.499 11.923 57.275 35.056 69.766 65.137 14.354 34.569 11.258 76.012-8.954 119.848-11.984 25.991-33.168 44.997-41.881 52.081 2.158 9.473 6.46 22.614 9.806 29.583 12.531 26.1 44.007 64.411 44.323 64.795a7.502 7.502 0 0 1 .015 9.524c-.515.627-12.848 15.519-35.608 29.281-18.108 10.949-46.1 22.961-81.718 22.962zm-74.689-60.008c1.002 9.462 8.212 38.609 58.751 44.133 31.805 3.476 61.879-3.127 89.399-19.624 13.537-8.115 23.107-16.771 28.15-21.84-9.252-11.634-31.517-40.594-42.145-62.731-4.443-9.253-10.137-27.306-11.946-37.875a7.503 7.503 0 0 1 2.993-7.34c.269-.195 27.588-20.289 40.929-49.222 18.412-39.933 21.429-77.214 8.723-107.815-10.866-26.169-32.558-46.344-61.079-56.807-49.659-18.219-109.454 10.956-139.081 67.868a176.063 176.063 0 0 0-8.753 19.705c-16.777 44.995-16.683 90.447.252 121.586 11.714 21.539 30.663 35.337 56.322 41.012a7.5 7.5 0 0 1 5.874 7.623c-1.302 32.54-20.8 54.121-28.39 61.327zm-41.086-234.168h.01z"/><path d="M677.003 337.396c-9.698 0-15.7-1.591-16.268-1.747a7.501 7.501 0 0 1-5.228-9.229 7.504 7.504 0 0 1 9.196-5.237c1.207.318 27.597 6.914 61.112-13.6a7.5 7.5 0 0 1 10.312 2.481 7.499 7.499 0 0 1-2.481 10.312c-22.858 13.992-43.266 17.019-56.644 17.019zm91.786-100.777a7.479 7.479 0 0 1-5.443-2.339l-7.119-7.507a7.5 7.5 0 0 1-1.415-8.199c2.17-4.896 8.846-13.098 20.354-12.842a7.5 7.5 0 0 1 7.322 7.673 7.502 7.502 0 0 1-7.495 7.325c-.06 0-.118 0-.179-.002a6.413 6.413 0 0 0-3.028.653l2.444 2.577a7.5 7.5 0 0 1-5.441 12.661z"/><path d="M757.642 15.749c24.225 9.257 35.657 34.613 35.657 34.613s80.631 7.606 80.631 96.933c0 109.598-102.486 143.549-102.486 143.549-2.324-12.72-1.63-24.048-.304-32.186 17.548.578 33.867-10.846 38.758-28.516 5.734-20.715-6.411-42.157-27.127-47.891-11.552-3.197-23.325-.83-32.479 5.477l-6.036-55.098s-43.171 19.837-74.502 17.514c21.127-12.51 16.052-32.113 16.052-32.113-66.145 27.109-111.681 9.596-111.681 9.596s24.643-30.218 30.142-41.255c17.673-35.471 70.77-102.189 153.375-70.623z"/><path d="M771.445 298.345a7.504 7.504 0 0 1-7.378-6.151c-2.617-14.32-1.624-26.796-.329-34.741a7.472 7.472 0 0 1 7.649-6.29 31.348 31.348 0 0 0 31.282-23.021c4.621-16.697-5.203-34.04-21.899-38.662-8.977-2.485-18.534-.873-26.222 4.425a7.501 7.501 0 0 1-11.711-5.359l-4.942-45.115c-14.95 5.884-44.659 15.976-68.695 14.193a7.5 7.5 0 0 1-3.267-13.934c7.642-4.524 10.877-10.083 12.165-14.689-62.389 22.096-104.796 6.344-106.665 5.625a7.501 7.501 0 0 1-3.12-11.739c6.708-8.227 25.038-31.424 29.241-39.86 4.691-9.415 22.514-41.81 54.896-63.35C685.028-1.992 722.328-5.775 760.318 8.743c21.164 8.087 33.405 26.708 37.877 34.755 7.388 1.293 23.41 5.11 39.499 15.539 19.952 12.934 43.736 38.745 43.736 88.258 0 59.447-29.274 97.277-53.833 118.543-26.449 22.904-52.69 31.759-53.795 32.125a7.49 7.49 0 0 1-2.358.381zm6.34-32.468a88.913 88.913 0 0 0-.137 14.338c9.34-4.244 25.035-12.55 40.546-26.076 32.008-27.913 48.237-63.86 48.237-106.843 0-34.105-12.251-59.458-36.413-75.356-18.397-12.104-37.253-14.093-37.44-14.112a7.528 7.528 0 0 1-6.115-4.383c-.096-.209-10.569-22.693-31.497-30.69-90.323-34.513-138.759 56.473-143.985 66.962-3.91 7.848-15.825 23.48-23.77 33.562 16.482 3.178 51.34 6.014 95.751-12.187a7.502 7.502 0 0 1 10.105 5.06c1.453 5.613 1.468 15.812-4.279 25.608 25.48-3.717 52.006-15.792 52.337-15.944a7.497 7.497 0 0 1 10.587 5.999l4.854 44.306a46.298 46.298 0 0 1 28.206-1.097c24.667 6.828 39.182 32.452 32.354 57.12-5.116 18.483-20.782 31.604-39.342 33.733z"/></g><path d="M1236.135 585.715 944.227 749.69a124.378 124.378 0 0 0-53.699 60.122c-1.329 3.153-28.926 70.968-30.464 85.029-14.146 129.297-12.005 111.103-14.069 129.11-.72 6.284 3.861 11.614 10.182 11.835a12.067 12.067 0 0 0 13.711-9.107l22.314-101.203 3.033 116.323c.726 6.551 6.53 11.336 13.099 10.8 5.92-.483 9.959-5.262 11.145-11.082l3.09-15.176-.004.512c.308 6.583 5.797 11.728 12.386 11.61a12.181 12.181 0 0 0 11.826-10.352l16.913-111.429c24.034-47.095 33.673-70.255 30.417-91.873l-2.927-11.462 308.808-95.497-63.852-132.133z" fill="#fff"/><path d="M858.132 1043.446c-.895 0-1.796-.062-2.703-.189-4.976-.298-9.458-2.494-12.664-6.217-3.265-3.791-4.804-8.873-4.223-13.943.849-7.401.984-8.667 1.839-16.632 1.27-11.829 3.912-36.443 12.227-112.44 1.729-15.805 30.719-86.439 31.009-87.127 11.315-26.839 31.536-49.478 56.938-63.747l291.908-163.975a7.5 7.5 0 0 1 7.346 13.078L947.901 756.229c-22.512 12.646-40.433 32.71-50.461 56.496-4.177 9.908-28.641 71.234-29.921 82.931-8.313 75.981-10.953 100.585-12.222 112.409-.86 8.017-.998 9.291-1.852 16.739-.138 1.203.298 1.995.687 2.447.388.45 1.103.996 2.307 1.038.323.011.646.043.965.097a4.587 4.587 0 0 0 5.178-3.402l22.296-101.124a7.5 7.5 0 0 1 14.648 3.23l-22.313 101.203-.028.125c-2.122 8.9-10.157 15.029-19.051 15.03z" fill="#1e284c"/><path d="m991.179 813.344 474.149-146.627" fill="#fff"/><path d="M991.175 820.846a7.503 7.503 0 0 1-7.162-5.286 7.5 7.5 0 0 1 4.949-9.381l474.149-146.627a7.5 7.5 0 0 1 4.432 14.33L993.394 820.509a7.473 7.473 0 0 1-2.219.337zm-83.886 239.293c-9.978 0-18.39-7.414-19.509-17.517a7.35 7.35 0 0 1-.043-.63l-3.212-123.187a7.5 7.5 0 1 1 14.994-.39l3.202 122.798a4.671 4.671 0 0 0 5.001 3.909c3.259-.266 4.241-4.298 4.405-5.103l22.871-112.33a7.497 7.497 0 0 1 8.846-5.853 7.5 7.5 0 0 1 5.854 8.846l-22.871 112.329c-1.962 9.637-8.981 16.334-17.884 17.061-.555.045-1.107.068-1.654.068z" fill="#1e284c"/><path d="M975.982 788.862s10.417 11.104 15.197 24.482c9.155 25.627.799 47.901-27.49 103.335l-16.912 111.429a12.182 12.182 0 0 1-11.826 10.352c-6.59.118-12.078-5.027-12.386-11.61l.777-106.011" fill="#fff"/><path d="M934.718 1045.962c-10.556 0-19.151-8.173-19.646-18.762a7.817 7.817 0 0 1-.008-.405l.776-106.011a7.5 7.5 0 0 1 7.499-7.445h.056a7.5 7.5 0 0 1 7.445 7.555l-.774 105.762a4.656 4.656 0 0 0 4.663 4.307h.087a4.67 4.67 0 0 0 4.545-3.979l16.913-111.429a7.528 7.528 0 0 1 .734-2.284c27.768-54.412 35.13-74.946 27.107-97.402-4.206-11.772-13.51-21.775-13.604-21.875a7.5 7.5 0 0 1 10.94-10.263c.469.5 11.545 12.411 16.789 27.091 10.378 29.045.232 54.128-27.319 108.183l-16.73 110.229a19.633 19.633 0 0 1-19.472 16.729z" fill="#1e284c"/><path d="m1035.477 622.409 128.812-.481 76.462 137.699 200.037-81.804c119.928-40.231 104.04-214.66-21.183-232.562l-196.261-32.359c-49.634-9.027-108.184-20.196-173.676-33.616-34.493-7.068-52.994-18.386-96.36-13.938-34.511 3.54-68.17 12.142-119.477.653" fill="#fff"/><path d="M1240.753 767.128a7.501 7.501 0 0 1-6.56-3.86l-74.311-133.823-124.378.464h-.029a7.5 7.5 0 0 1-.027-15l128.812-.481h.028a7.5 7.5 0 0 1 6.557 3.859l73.229 131.877 193.874-79.283a8.22 8.22 0 0 1 .453-.169c62.24-20.879 79.979-76.003 76.257-116.863-3.722-40.861-31.128-91.873-96.116-101.163l-.158-.024-196.262-32.359-.122-.021c-56.854-10.34-115.342-21.661-173.84-33.647-9.78-2.004-18.174-4.305-26.291-6.531-20.295-5.563-37.819-10.369-67.798-7.294-6.373.654-12.63 1.471-19.255 2.337-27.962 3.655-59.654 7.797-102.626-1.826a7.5 7.5 0 0 1 3.277-14.638c40.384 9.043 69.372 5.255 97.404 1.591 6.435-.841 13.089-1.711 19.668-2.385 32.776-3.36 52.454 2.036 73.295 7.75 7.884 2.161 16.037 4.396 25.337 6.302 58.368 11.96 116.728 23.256 173.452 33.573l196.126 32.337c31.124 4.468 57.914 18.534 77.478 40.679 17.71 20.047 28.851 46.313 31.368 73.96 2.519 27.646-3.692 55.493-17.489 78.41-15.214 25.272-38.968 43.926-68.701 53.957l-199.816 81.713a7.494 7.494 0 0 1-2.836.559z" fill="#1e284c"/><path d="M1434.53 530.031s-35.158-44.644-97.251-9.132l-143.312 83.399" fill="#fff"/><path d="M1193.974 611.799a7.5 7.5 0 0 1-3.779-13.983l143.312-83.399c34.741-19.869 61.861-15.977 78.505-9.218 18.183 7.385 28.002 19.672 28.411 20.192a7.5 7.5 0 0 1-1.252 10.532 7.501 7.501 0 0 1-10.515-1.229c-1.316-1.641-32.238-38.978-87.653-7.285L1197.74 610.78a7.464 7.464 0 0 1-3.766 1.019z" fill="#1e284c"/><path d="M1256.812 721.46c10.743 19.92 21.701 29.335 8.054 41.348-8.197 7.216-37.244 17.586-46.077 14.803-4.152-1.308-9.236-2.221-19.649-26.989-11.676-27.772-61.031-83.649-63.255-116.452-1.351-19.922 24.592-19.653 32.073-29.213 7.482-9.56 20.203-12.878 27.105 1.375s55.644 103.811 61.748 115.128z" fill="#fff"/><path d="M1222.457 785.532c-2.24 0-4.245-.239-5.921-.767l-.342-.106c-7.088-2.197-13.354-5.885-23.968-31.129-4.068-9.677-13.59-23.837-23.672-38.83-18.103-26.921-38.621-57.435-40.151-80.022-1.228-18.102 13.704-24.513 23.585-28.755 4.019-1.725 8.573-3.681 10.064-5.587 6.065-7.751 14.418-11.873 22.345-11.026 4.236.453 12.133 2.842 17.417 13.753 5.658 11.684 40.398 75.737 55.233 103.089 3.072 5.664 5.331 9.829 6.366 11.748 2.067 3.834 4.122 7.228 6.109 10.509 7.824 12.92 15.916 26.281.3 40.029-7.563 6.658-32.573 17.094-47.366 17.094zm-40.122-181.331c-2.568 0-5.903 2.099-8.47 5.379-3.857 4.93-10.01 7.571-15.959 10.126-10.691 4.591-15 7.138-14.538 13.958 1.26 18.572 21.429 48.566 37.635 72.667 10.5 15.615 20.417 30.364 25.052 41.386 8.747 20.807 12.543 21.983 14.581 22.615l.407.126c5.372 1.529 31.468-6.764 38.869-13.278 5.674-4.996 5.403-6.762-3.219-21-1.986-3.279-4.236-6.995-6.482-11.159a6364.654 6364.654 0 0 0-6.349-11.716c-14.884-27.443-49.739-91.708-55.548-103.702-1.115-2.303-2.977-5.105-5.512-5.376a4.483 4.483 0 0 0-.468-.024z" fill="#1e284c"/><path d="M1011.681 555.777s11.898 20.942 23.796 66.632" fill="#a1d7f1"/><path d="M1035.472 629.911a7.503 7.503 0 0 1-7.253-5.612c-11.441-43.933-22.951-64.624-23.066-64.828-2.031-3.604-.765-8.178 2.836-10.216 3.603-2.037 8.169-.781 10.212 2.817.506.89 12.525 22.331 24.534 68.447a7.5 7.5 0 0 1-7.263 9.392z" fill="#1e284c"/><path d="m242.223 1310.682-75.383 21.054a15.354 15.354 0 0 0-10.369 15.255c.388 8.19 7.141 14.63 15.34 14.629l97.436-.009c19.978-.002 35.7-12.665 41.986-22.824 6.011-9.713 11.88-49.326 17.611-58.464l117.108-278.992-135.624-52.571s-67.238 301.363-70.123 306.744c-10.671 19.905-83.41 49.282-219.126 78.9-6.174 1.347-11.807 4.345-13.229 10.502-1.683 7.292 2.863 14.567 10.155 16.251l153.805.464" fill="#fff"/><path d="M171.811 1369.12h-.146l-153.683-.463a7.452 7.452 0 0 1-1.664-.192 20.91 20.91 0 0 1-13.116-9.355 20.914 20.914 0 0 1-2.659-15.89c1.091-4.723 5.001-13.101 18.937-16.142 63.691-13.899 117.444-28.698 155.446-42.796 46.127-17.112 56.291-28.378 58.456-31.945 3.876-12.342 43.593-188.521 69.627-305.208a7.498 7.498 0 0 1 10.031-5.359l135.623 52.571a7.498 7.498 0 0 1 4.204 9.896l-117.108 278.992a7.4 7.4 0 0 1-.562 1.082c-2.184 3.482-5.229 16.199-7.675 26.417-3.884 16.226-6.489 26.477-9.912 32.008-7.86 12.703-26.348 26.376-48.363 26.377l-97.436.009zm-.067-15h.088l97.413-.008c17.379-.001 30.817-11.525 35.609-19.271 2.399-3.878 5.55-17.036 8.081-27.608 3.634-15.181 6.111-24.966 9.199-30.305l113.918-271.39-120.305-46.633a67298.63 67298.63 0 0 1-32.083 142.862c-34.564 153.021-35.939 155.584-36.849 157.281-18.505 34.517-162.911 69.321-224.139 82.683-4.47.976-7 2.611-7.52 4.862a6.008 6.008 0 0 0 .765 4.566 6.004 6.004 0 0 0 3.116 2.5l131.273.396a22.877 22.877 0 0 1-1.333-6.709c-.479-10.098 5.868-19.435 15.434-22.706.135-.046.271-.089.409-.127l75.383-21.054a7.496 7.496 0 0 1 9.241 5.206 7.5 7.5 0 0 1-5.206 9.241l-75.142 20.986c-3.193 1.175-5.298 4.333-5.137 7.745a7.845 7.845 0 0 0 7.782 7.483zm61.849-102.152-.002.003s0-.002.002-.003zm.003-.006-.003.006.003-.006z" fill="#1e284c"/><path d="M619.662 388.36s-27.714 15.448-104.218 32.052c-69.7 15.128-104.728 17.885-136.074 146.143-3.306 13.527-107.79 510.797-107.79 510.797l138.338 50.542 115.775-265.492c8.114-20.247-32.786-55.9 1.667-78.742 6.104-4.047 9.322-11.26 8.333-18.516l-18.277-134.035" fill="#fff"/><path d="M409.916 1135.396a7.48 7.48 0 0 1-2.573-.457l-138.337-50.542a7.5 7.5 0 0 1-4.766-8.586c4.268-20.31 104.548-497.545 107.845-511.036 14.882-60.896 30.857-95.895 53.418-117.026 21.761-20.383 47.747-25.954 80.646-33.007 2.521-.54 5.088-1.091 7.704-1.658 74.033-16.068 101.9-31.133 102.174-31.283 3.623-1.996 8.184-.687 10.187 2.93 2.004 3.617.712 8.169-2.9 10.182-1.171.653-29.569 16.182-106.278 32.831-2.629.571-5.209 1.124-7.741 1.667-31.823 6.822-54.815 11.751-73.537 29.287-20.006 18.74-35.149 52.554-49.102 109.64-3.037 12.43-94.199 446.148-106.399 504.202l125.607 45.891 112.9-258.899c1.883-4.9-1.694-13.822-5.154-22.452-7.125-17.77-16.882-42.106 9.605-59.667 3.666-2.431 5.646-6.848 5.046-11.252l-18.277-134.034a7.5 7.5 0 0 1 14.863-2.027l18.277 134.035c1.373 10.07-3.188 20.19-11.62 25.781-15.521 10.29-11.621 22.505-3.973 41.583 4.58 11.423 9.315 23.235 5.123 33.697-.028.07-.057.139-.087.208l-115.775 265.492a7.503 7.503 0 0 1-6.876 4.503z" fill="#1e284c"/><path d="M273.991 1110.546c-10.211-7.816-29.983-4.621-22.121-28.622 5.823-17.776 1.559-33.654 11.852-42.134 4.23-3.484 18.174-9.32 41.707 20.451 18.41 23.289 14.806 15.733 104.487 67.655 17.28 10.005-5.324 28.789-7.14 40.792s-11.263 21.146-24.28 12.127c-13.017-9.018-94.296-62.453-104.507-70.269z" fill="#fff"/><path d="M388.549 1191.939c-3.95 0-8.847-1.165-14.323-4.959-4.798-3.324-19.128-12.853-35.722-23.887-29.283-19.471-62.473-41.541-69.072-46.592-1.955-1.497-4.908-2.581-8.036-3.729-8.586-3.153-24.568-9.022-16.653-33.183 2.035-6.214 2.704-12.281 3.351-18.147 1.102-10 2.241-20.34 10.86-27.44 2.488-2.051 7.899-5.36 16.15-4.479 11.309 1.208 23.491 9.978 36.21 26.067 11.99 15.168 13.188 15.83 43.872 32.787 13.382 7.396 31.709 17.523 58.488 33.027 5.153 2.984 8.402 6.972 9.655 11.854 2.338 9.108-3.07 18.063-7.843 25.964-2.31 3.823-4.927 8.156-5.294 10.586-1.473 9.731-6.721 17.427-14.039 20.585a19.204 19.204 0 0 1-7.604 1.544zm-110-87.349c6.203 4.748 40.612 27.628 68.261 46.012 16.657 11.076 31.043 20.642 35.959 24.047 2.104 1.458 5.104 2.979 7.441 1.973 2.42-1.044 4.489-4.684 5.15-9.057.815-5.385 3.958-10.589 7.286-16.098 2.923-4.84 6.927-11.468 6.154-14.479-.215-.837-1.104-1.713-2.643-2.604-26.649-15.429-44.901-25.516-58.228-32.88-31.256-17.273-34.523-19.079-48.385-36.614-13.276-16.795-22.011-20.024-26.035-20.454-2.912-.309-4.479.694-5.021 1.141-3.732 3.075-4.483 8.385-5.488 17.505-.696 6.319-1.485 13.481-4.006 21.175-.951 2.904-2.303 8.094-.666 10.22 1.274 1.656 4.813 2.956 8.236 4.212 3.853 1.415 8.22 3.019 11.982 5.899z" fill="#1e284c"/><path d="m657.659 353.008-37.997 35.351s-26.409 64.835 6.95 133.777c0 0 11.668-37.155 45.68-45.374 0 0-39.943-75.92-14.633-123.754z" fill="#fff"/><path d="M626.61 529.628a7.493 7.493 0 0 1-6.749-4.225c-34.418-71.129-8.274-137.099-7.146-139.873a7.507 7.507 0 0 1 1.838-2.662l37.997-35.352a7.5 7.5 0 0 1 11.737 8.999c-23.191 43.829 14.261 116.031 14.642 116.755a7.5 7.5 0 0 1-4.876 10.783c-29.354 7.093-40.186 40.016-40.291 40.348a7.514 7.514 0 0 1-7.152 5.227zm-.54-136.986c-3.162 8.909-18.489 57.413.915 111.093 6.448-10.88 17.486-24.46 34.811-31.461-7.744-16.996-23.889-57.918-19.216-94.992l-16.51 15.361z" fill="#1e284c"/><path d="m782.758 326.739 51.071 39.263c17.577 22.358 33.129 51.198 37.855 98.456 0 0-32.509-38.411-62.177-32.934 0 0 7.429-54.033-26.749-104.786z" fill="#fff"/><path d="M871.686 471.959a7.5 7.5 0 0 1-5.727-2.655c-8.282-9.752-34.34-34.237-55.091-30.404a7.5 7.5 0 0 1-8.791-8.397c.066-.502 6.524-51.959-25.54-99.575a7.5 7.5 0 0 1 10.792-10.135l51.071 39.263c.494.38.939.82 1.325 1.311 15.569 19.804 34.12 49.333 39.421 102.345a7.499 7.499 0 0 1-7.461 8.246zm-54.064-48.403c16.412.862 32.232 10.949 43.479 20.244-6.927-35.433-20.64-57.099-32.592-72.429l-23.154-17.801c11.832 29.651 12.77 56.529 12.268 69.986z" fill="#1e284c"/></svg></g></svg>