<svg xmlns="http://www.w3.org/2000/svg" viewBox="0 0 3000 3000" width="3000" height="3000"><g transform="translate(1174.2857142857142 199.28571428571428) rotate(0.0 169.28571428571433 233.57142857142858) scale(2.145749830920346 2.1492951692126283)"><svg width="157.787" height="217.347" viewBox="0 0 157.787 217.347"><path d="M37.236 147.927c5.31-23.17 57.148-23.362 64.569.577-2.249 30.659-66.415 22.468-64.569-.577z" fill="#172635"/><ellipse cx="78.894" cy="77.483" fill="#9de9ff" rx="82.869" ry="73.212" transform="matrix(.7569 -.6535 .6535 .7569 -31.4583 70.39)"/><g fill="#172635"><path d="M77.461 183.637c-.021 0-.042 0-.064-.002a1 1 0 0 1-.935-1.061c.016-.247 1.618-24.964 7.503-50.176 4.224-18.095 9.478-31.871 15.712-41.248-2.324-1.401-4.481-3.092-6.321-5.078a23.092 23.092 0 0 1-2.656-3.457c-3.824 1.245-8.019 1.652-11.9 1.258-3.406-.344-7.007-1.343-10.189-3.143-2.265 2.732-5.133 5.275-8.537 7.224a27.535 27.535 0 0 1-5.99 2.557c5.372 29.37 2.028 86.856 1.978 87.548-.04.551-.519.955-1.07.924a1 1 0 0 1-.924-1.071c.77-10.501 2.786-60.795-1.916-86.919-5 1.042-11.125.752-18.078-2.681-5.212-2.573-7.975-6.437-7.581-10.599.361-3.811 3.36-7.133 7.463-8.268 5.354-1.48 11.069 1.061 15.289 6.8 1.881 2.557 3.337 6.86 4.456 12.29a25.415 25.415 0 0 0 5.38-2.316c3.05-1.746 5.689-4.065 7.806-6.573-3.81-2.664-6.768-6.658-7.629-12.281-.96-6.27 1.493-8.985 3.041-10.046 2.137-1.465 5-1.494 7.471-.076 3.349 1.922 5.145 5.891 4.803 10.615-.233 3.223-1.866 7.354-4.714 11.268 2.863 1.572 6.088 2.449 9.143 2.758 3.497.354 7.264.021 10.708-1.034-1.995-3.994-2.616-8.459-1.8-13.177.839-4.849 4.233-7.506 7.13-8.375 2.777-.833 5.448-.251 7.147 1.557 1.273 1.355 3.045 4.616.605 11.228-1.719 4.657-5.564 7.907-10.179 9.827a21.885 21.885 0 0 0 2.211 2.804c1.741 1.879 3.784 3.476 5.987 4.796 5.258-7.325 11.186-11.632 17.758-12.881 7.316-1.389 10.657 1.179 11.997 2.834 1.932 2.388 2.261 5.777.879 9.066-1.799 4.283-6.034 7.241-11.053 7.719-5.442.518-12.637-.803-18.93-4.096C82.62 120.4 78.507 181.922 78.458 182.7a1 1 0 0 1-.997.937zm25.143-93.128c5.864 3.022 12.538 4.232 17.597 3.75 5.121-.488 8.213-3.679 9.399-6.503 1.092-2.599.871-5.228-.59-7.033-1.828-2.258-5.403-3.015-10.069-2.128-6.365 1.209-11.765 5.589-16.337 11.914zM37.012 71.04a9.501 9.501 0 0 0-2.524.334c-3.309.915-5.722 3.539-6.005 6.529-.312 3.291 2.049 6.432 6.476 8.618 6.48 3.2 12.175 3.47 16.815 2.502-1.055-5.181-2.411-9.239-4.141-11.592-3.863-5.254-7.874-6.391-10.621-6.391zM97.48 60.928c-.597 0-1.225.094-1.866.286-2.324.697-5.051 2.85-5.735 6.8-.767 4.433-.189 8.507 1.717 12.171 4.246-1.704 7.774-4.611 9.318-8.794 1.533-4.152 1.467-7.408-.186-9.166-.8-.852-1.949-1.297-3.248-1.297zm-31.5-2.727c-.921 0-1.805.256-2.552.768-1.975 1.354-2.775 4.303-2.195 8.093.77 5.029 3.446 8.608 6.902 11.001 2.646-3.587 4.228-7.386 4.442-10.349.285-3.939-1.137-7.206-3.804-8.736-.901-.518-1.866-.777-2.793-.777z"/><path d="M64.456 217.26c17.747 1.302 33.188-12.03 34.489-29.776l2.859-38.979c-13.146 31.338-58.975 19.976-64.569-.577L34.68 182.77c-1.301 17.747 12.03 33.188 29.776 34.49z"/><path d="M70.817 168.874a45.5 45.5 0 0 1-2.318-.059c-13.886-.706-29.419-8.032-32.239-20.67a1 1 0 0 1 1.952-.436c2.603 11.664 17.257 18.441 30.389 19.108 12.39.628 27.369-3.935 32.255-18.629a1 1 0 0 1 1.898.631c-4.936 14.842-19.318 20.055-31.937 20.055z"/></g></svg></g><g transform="translate(207.85714285714286 432.85714285714283) rotate(0.0 1347.857142857143 1225.7142857142858) scale(2.1422900660749464 2.142037027282012)"><svg width="1258.333" height="1144.438" viewBox="0 0 1258.333 1144.438"><path d="m663.581 286.928 34.502 24.384 36.326-39.519 22.302 14.242-75.224 66.035-42.989-40.139z" fill="#0275a4"/><path d="M132.877 1023.548c139.682 22.536 368.627-35.283 507.006-111.369 16.691 24.335 68.673 56.052 103.702 70.978 0 0 33.268 57.269 56.466 39.545 37.004-28.272-2.617-92.883-2.617-92.883-2.328-56.834-9.129-110.736-54.792-132.974-34.912-85.213-90.115-185.733-202.117-79.368-142.105 16.238-310.861 84.8-411.919 181.277-26.305 46.624-27.229 88.647 4.271 124.794z" fill="#fdc0bb"/><path d="M627.823 918.644c27.813 29.28 78.638 52.22 115.81 66.227 0 0 37.299 58.671 60.638 38.88 37.228-31.568-7.027-97.658-7.027-97.658-5.057-59.721-14.635-116.136-63.221-137.323-32.773-71.562-79.987-153.125-156.549-117.975-17.597 8.078-34.616 27.129-55.494 49.076-18.225 2.601-40.928 7-55.584 10.262 46.539 81.571 51.08 202.618 90.848 235.02 19.616-9.611 46.503-26.696 70.579-46.509z" fill="#e6e6e6"/><path d="M793.441 1028.829a20 20 0 0 1-3.012-.233c-21.348-3.24-44.973-39.051-47.46-42.906-37.362-14.1-87.42-36.87-115.228-65.685-22.022 18.028-48.789 35.626-70.059 46.045a1 1 0 0 1-1.072-.123c-21.269-17.329-32.391-59.003-45.269-107.258-11.22-42.042-23.938-89.694-45.816-128.042a1.002 1.002 0 0 1 .651-1.471c14.451-3.216 37.106-7.613 55.316-10.227 1.848-1.943 3.665-3.863 5.456-5.754 18.223-19.251 33.961-35.877 50.107-43.29 18.299-8.401 36.065-10.595 52.806-6.521 14.813 3.605 29.283 12.247 43.007 25.687 26.56 26.009 47.023 66.491 61.904 98.956 49.561 21.863 58.544 80.002 63.446 137.748 1.328 2.036 11.47 17.923 17.453 37.03 8.517 27.195 4.798 48.541-10.754 61.729-3.384 2.87-7.234 4.315-11.476 4.315zM627.823 917.644c.265 0 .53.105.725.312 27.489 28.939 77.948 51.853 115.437 65.98a.993.993 0 0 1 .491.399c.248.391 25.066 39.07 46.254 42.284 4.849.733 9.186-.486 12.893-3.63 36.117-30.627-6.774-95.686-7.211-96.34a1 1 0 0 1-.165-.472c-4.857-57.363-13.694-115.154-62.625-136.491a.999.999 0 0 1-.51-.5c-14.823-32.366-35.224-72.834-61.644-98.706-13.464-13.185-27.622-21.654-42.081-25.172-16.293-3.966-33.619-1.814-51.498 6.395-15.794 7.251-31.408 23.747-49.489 42.847-1.869 1.974-3.767 3.979-5.698 6.01a.996.996 0 0 1-.583.3c-17.672 2.522-39.648 6.758-54.188 9.957 21.597 38.364 34.206 85.607 45.343 127.337 12.687 47.539 23.658 88.646 44.107 105.815 21.278-10.504 47.961-28.121 69.806-46.097a.997.997 0 0 1 .636-.228z" fill="#172635"/><path d="M719.318 870.513c-8.962 0-18.591-1.279-27.171-5.166-15.95-7.225-23.427-17.711-31.342-28.812-6.618-9.282-13.46-18.879-25.868-28.041-13.211-9.754-30.523-11.479-47.266-13.146-18.138-1.807-36.894-3.675-50.833-15.659-26.728-22.979-15.928-59.742-15.816-60.11a1.001 1.001 0 0 1 1.914.582c-.108.356-10.52 35.895 15.206 58.012 13.46 11.572 31.897 13.409 49.727 15.185 17.011 1.694 34.602 3.447 48.256 13.527 12.664 9.351 19.601 19.08 26.309 28.489 7.755 10.876 15.079 21.149 30.539 28.151 24.304 11.008 57.477.434 57.809.326a1.001 1.001 0 0 1 .618 1.903c-.223.072-14.93 4.759-32.082 4.759z" fill="#172635"/><path d="M692.596 963.838a1 1 0 0 1-.983-.824l-19.356-108.218-60.348 53.457a.998.998 0 0 1-1.566-.32l-56.462-118.938a1 1 0 0 1 1.806-.857l55.892 117.736 60.686-53.756a1 1 0 0 1 1.647.573l19.67 109.972a1.001 1.001 0 0 1-.986 1.175z" fill="#172635"/><path d="M577.474 670.796c23.199-66.785 104.443-51.868 135.907-3.038s27.75 116.017 27.75 116.017c41.307 7.483 63.769 57.014 56.74 101.386 54.24 38.26 50.596 133.549 1.313 141.627 18.126-71.829-30.438-92.132-38.913-112.278-4.237-10.073-.011-32.585-9.18-49.707s-31.529-27.935-35.63-35.634c-4.872-9.147-1.993-27.439-21.371-54.567-15.111-21.154-48.086-22.736-54.255-31.646-11.447-16.53-18.625-65.14-62.361-72.16z" fill="#fff"/><path d="M799.183 1027.787a1.001 1.001 0 0 1-.969-1.244c13.312-52.753-9.368-77.072-25.929-94.829-5.73-6.144-10.678-11.45-12.936-16.816-1.765-4.196-2.106-10.264-2.5-17.29-.586-10.438-1.25-22.269-6.64-32.333-5.385-10.056-15.493-17.966-23.615-24.321-5.737-4.489-10.268-8.035-12.015-11.315-1.62-3.042-2.389-6.899-3.363-11.783-2.049-10.279-4.856-24.357-17.939-42.673-8.963-12.548-24.334-18.068-36.686-22.503-8.358-3.002-14.959-5.373-17.578-9.154-2.897-4.184-5.47-10.25-8.45-17.274-8.822-20.796-20.904-49.277-53.247-54.467a.999.999 0 0 1-.786-1.315c9.07-26.109 27.929-42.146 53.106-45.157 31.482-3.764 66.262 13.467 84.587 41.906 29.335 45.525 28.225 107.636 27.943 115.735 42.14 8.258 63.297 58.928 56.788 101.751 34.207 24.502 44.582 70.025 37.116 102.502-5.245 22.816-18.63 37.602-36.724 40.568a1.128 1.128 0 0 1-.163.012zM578.814 670.01c32.548 5.853 44.692 34.485 53.589 55.46 2.937 6.922 5.473 12.901 8.253 16.916 2.253 3.254 8.906 5.644 16.609 8.41 12.613 4.53 28.31 10.167 37.637 23.224 13.333 18.666 16.188 32.987 18.273 43.444.941 4.722 1.685 8.451 3.167 11.233 1.549 2.907 6.152 6.509 11.483 10.681 8.27 6.471 18.562 14.524 24.146 24.952 5.599 10.455 6.306 23.047 6.874 33.165.384 6.841.716 12.749 2.347 16.626 2.119 5.038 6.955 10.224 12.555 16.228 16.716 17.923 39.55 42.408 26.779 95.173 16.49-3.39 28.689-17.424 33.594-38.765 7.352-31.986-2.936-76.874-36.826-100.779a1.001 1.001 0 0 1-.411-.974c6.702-42.305-14.172-92.681-55.93-100.245a1 1 0 0 1-.82-1.039c.037-.669 3.329-67.433-27.592-115.42-17.925-27.819-51.92-44.679-82.668-41.003-24.018 2.872-42.11 18.023-51.059 42.713z" fill="#172635"/><path d="M132.877 1023.548c47.878 13.53 289.939-.771 393.552-26.916 5.81-80.372-16.462-219.812-44.764-269.761-127.635 25.891-265.662 88.449-353.058 171.883-26.306 46.624-27.23 88.647 4.27 124.794z" fill="#9de9ff"/><path d="M672.408 706.326c-4.862-64.349-59.175-142.426-295.504-93.33C210.113 647.646-17.228 805.911 1.035 929.988c7.054 47.923 70.615 84.771 131.842 93.56 6.173.886-30.823-55.439 9.776-80.072 1.539-74.251 169.935-123.122 353.485-96.6 99.191 14.332 184.245-34.996 176.27-140.55z" fill="#9de9ff"/><path d="M136.943 929.37a1 1 0 0 1-.596-1.804c46.553-34.478 94.716-58.166 147.241-72.417 63.823-17.316 135.384-20.433 212.693-9.263a1 1 0 1 1-.286 1.98c-77.038-11.131-148.326-8.031-211.883 9.214-52.281 14.185-100.225 37.768-146.574 72.094-.18.132-.388.196-.595.196z" fill="#172635"/><path d="M607.823 463.319c-10.46 5.313-35.744 7.457-70.169 33.542-31.695 24.016-43.656 55.633-100.71 105.466-52.672 46.006-133.333 50.021-169.63 2.953-34.615-44.887-16.507-121.693 44.531-160.038 54.176-34.034 104.27-30.831 134.013-50.783 15.587-10.456 33.12-26.353 53.748-51.694 50.329-61.829 115.361-55.167 157.266-35.77 60.127 27.834 6.324 128.198-49.049 156.324z" fill="#0275a4"/><path d="M333.881 638.365c181.029-16.517 118.552-291.979 172.228-352.33 9.947-38.583-84.737-74.339-117.049-46.938.546 49.153-46.617 117.428-98.257 181.909-54.598 68.174-75.786 205.362 43.078 217.359z" fill="#fff"/><path d="M333.881 638.365c50.627-4.619 87.769-26.274 113.079-65.865 31.25-9.808 26.985-35.326 7.645-37.05 19.468-57.074 52.629-86.477 57.497-125.936 3.843-31.149-2.795-58.723-24.157-76.851 9.947-38.583-111.79-62.194-144.101-34.793-35.497 15.008-63.186 47.802-81.57 100.231-26.741 76.263-32.286 167.991 8.514 212.424 14.789 16.107 39.625 26.733 63.093 27.84z" fill="#0275a4"/><path d="M446.96 573.501a1 1 0 0 1-.299-1.954c10.932-3.432 23.264-11.464 22.038-22.809-.72-6.66-6.419-11.6-14.183-12.292a1 1 0 0 1-.858-1.319c9.115-26.723 21.278-47.498 32.009-65.827 12.272-20.961 22.87-39.063 25.442-59.909 4.074-33.021-4.16-59.29-23.812-75.966a1 1 0 0 1 1.294-1.526c20.19 17.134 28.663 44.015 24.503 77.736-2.622 21.254-13.317 39.522-25.701 60.674-10.525 17.978-22.435 38.321-31.439 64.292 8.094 1.186 13.949 6.656 14.733 13.92.888 8.219-4.8 19.085-23.427 24.932a.984.984 0 0 1-.3.048z" fill="#172635"/><path d="M784.241 566.068s15.131 74.585 15.822 139.355c1.371 128.431-51.626 213.197-187.097 193.283-85.362-12.549-128.922-86.2-128.922-86.2s-8.464 51.745-68.09 18.721c-95.231-52.743-43.115-177.962 22.016-235.754 46.825-41.549 101.292-74.919 101.292-74.919z" fill="#9de9ff"/><path d="M647.539 309.339a1 1 0 0 1-1-1c0-4.755 2.038-11.207 6.513-14.133 2.744-1.796 5.972-1.968 9.336-.496a1 1 0 0 1-.801 1.832c-2.754-1.204-5.257-1.09-7.44.337-3.853 2.521-5.608 8.226-5.608 12.46a1 1 0 0 1-1 1z" fill="#172635"/><path d="M854.475 376.905c32.467 49.426-11.564 129.078-18.968 179.808 28.092 31.082 29.055 89.773-18.903 97.296-105.627-88.065-252.013-3.846-327.676-99.624 0 0-9.884-43.25 33.006-56.058 4.851-32.972 9.191-124.21 21.181-137.674 22.577-25.353 77.036-50.461 90.931-55.355 37.394-13.173 190.932 26.703 220.429 71.607z" fill="#0275a4"/><path d="M488.927 555.385a1 1 0 0 1-.974-.777c-.1-.439-9.499-43.897 33.083-57.053 1.353-9.407 2.646-23.061 4.139-38.815 3.752-39.608 8.421-88.901 17.193-98.751a1 1 0 0 1 1.494 1.33c-8.336 9.361-13.168 60.367-16.696 97.61-1.529 16.136-2.849 30.071-4.242 39.544a.996.996 0 0 1-.703.812c-17.392 5.194-28.119 15.97-31.883 32.031-2.825 12.055-.459 22.74-.435 22.847a1 1 0 0 1-.976 1.222z" fill="#172635"/><path d="M465.658 155.706c-51.449-18.902-79.397-74.422-66.925-101.769 15.984-35.048 73.324-64.896 90.79-48.148 10.609 10.173-7.747 52.818-43.421 64.632 14.55 7.095 28.992 21.627 35.679 41.893 0 0 6.647 51.758-16.123 43.392z" fill="#fff"/><path d="M377.898 204.418c2.473 13.351 6.558 25.038 11.162 34.679l117.049 46.938s42.861-38.482 58.303-65.306c11.328-19.678-42.174-64.713-42.174-64.713-3.377-15.243-26.163-37.72-40.457-43.701z" fill="#fff"/><path d="M440.354 143.386a.99.99 0 0 1-.575-.183c-33.4-23.546-53.005-65.453-41.956-89.681C409.622 27.651 442.906 5.415 466.589.879c10.5-2.011 18.671-.563 23.625 4.188 3.289 3.154 4.155 9.073 2.439 16.667-3.942 17.441-20.602 40.076-44.026 48.855 15.594 8.352 28.248 23.666 34.103 41.41a1 1 0 0 1-1.899.627c-5.948-18.028-19.095-33.47-35.167-41.307a1.001 1.001 0 0 1 .123-1.848c23.888-7.911 40.971-30.727 44.916-48.178 1.533-6.784.851-12.172-1.872-14.783-4.467-4.283-12.028-5.552-21.865-3.667-23.193 4.442-55.78 26.2-67.323 51.509-9.485 20.798 5.139 61.731 41.288 87.216a1.001 1.001 0 0 1-.577 1.818z" fill="#172635"/><path d="M431.972 171.128c-32.448-14.972-47.659-37.502-71.268-59.788-35.394-33.412-74.834-62.789-61.989-75.167 14.67-14.138 72.955-.446 87.345 36.972 26.398 3.165 62.342 32.649 72.351 59.89-.001 0-4.412 48.256-26.439 38.093z" fill="#fff"/><path d="M421.529 166.737a.997.997 0 0 1-.497-.133c-18.177-10.45-30.645-23.459-43.845-37.232-5.424-5.66-11.033-11.512-17.169-17.305-7.192-6.79-14.524-13.387-21.614-19.767-23.059-20.75-42.974-38.671-43.17-50.176-.044-2.601.893-4.845 2.788-6.671 6.057-5.837 19.384-7.342 34.776-3.925 19.178 4.256 44.716 17.459 53.978 40.7 26.823 3.591 62.608 33.336 72.574 60.462a1 1 0 1 1-1.878.689c-9.828-26.748-45.259-56.092-71.531-59.242a1 1 0 0 1-.814-.634c-8.787-22.85-33.915-35.841-52.763-40.024-14.746-3.271-27.374-1.964-32.955 3.414-1.499 1.444-2.211 3.144-2.176 5.196.182 10.635 19.797 28.286 42.509 48.724 7.099 6.388 14.439 12.994 21.649 19.8 6.172 5.827 11.799 11.697 17.24 17.375 13.098 13.667 25.469 26.575 43.397 36.882a1 1 0 0 1-.499 1.867z" fill="#172635"/><path d="M403.981 191.027c-31.569-13.546-46.771-34.803-70.035-55.607-34.878-31.19-73.54-58.398-61.517-70.626 13.731-13.966 70.096-2.319 84.893 33.265 25.449 2.357 59.958 32.645 70.282 58.563.001-.001-2.193 43.6-23.623 34.405z" fill="#fff"/><path d="M403.981 192.027a.984.984 0 0 1-.394-.082c-23.514-10.09-38.012-24.423-53.362-39.598-5.359-5.298-10.9-10.776-16.946-16.182-7.088-6.339-14.305-12.489-21.284-18.437-22.703-19.348-42.309-36.057-42.797-47.125-.111-2.509.736-4.7 2.517-6.511 5.679-5.776 18.458-7.571 33.352-4.684 18.543 3.593 43.43 15.62 52.944 37.715 24.874 2.715 59.629 31.785 70.521 59.128a1 1 0 0 1-1.858.74c-10.552-26.489-45.599-55.729-69.446-57.937a1 1 0 0 1-.831-.612c-9.03-21.715-33.5-33.542-51.712-37.071-14.243-2.76-26.331-1.18-31.545 4.123-1.395 1.419-2.031 3.062-1.945 5.021.449 10.198 19.749 26.646 42.096 45.69 6.988 5.956 14.214 12.113 21.32 18.468 6.083 5.44 11.642 10.936 17.019 16.251 15.211 15.038 29.578 29.242 52.744 39.183a1 1 0 0 1-.393 1.92z" fill="#172635"/><path d="M397.238 207.306c-27.584-1.422-44.97-13.219-68.312-22.429-34.994-13.807-71.733-23.557-66.072-36.129 6.466-14.358 52.221-21.276 73.294 1.439 19.851-5.312 56.349 4.55 71.356 21.221 0 0 8.459 36.863-10.266 35.898z" fill="#fff"/><path d="M440.359 213.532a1 1 0 0 1-.615-1.789c27.607-21.493 42.146-51.5 43.97-70.287a.994.994 0 0 1 1.092-.898 1 1 0 0 1 .899 1.092c-1.182 12.171-6.507 25.807-15.397 39.433-8.038 12.32-18.457 23.769-29.335 32.238a.998.998 0 0 1-.614.211z" fill="#172635"/><path d="M506.109 287.035a1 1 0 0 1-.668-1.744c.427-.384 42.92-38.683 58.105-65.061 4.398-7.639-1.381-20.974-16.713-38.564-11.772-13.506-25.106-24.772-25.239-24.885a.997.997 0 0 1-.332-.549c-3.249-14.663-25.574-37.014-39.867-42.995a1 1 0 1 1 .772-1.845c7.067 2.957 16.516 10.088 24.659 18.609 8.694 9.097 14.618 18.353 16.312 25.466 4.496 3.818 53.464 46.091 42.141 65.76-15.344 26.655-58.072 65.166-58.502 65.551a.995.995 0 0 1-.668.257zm-117.048-46.938c-.373 0-.731-.21-.903-.569-5.175-10.837-8.958-22.588-11.243-34.929a1 1 0 0 1 1.967-.365c2.253 12.168 5.982 23.752 11.081 34.431a1 1 0 0 1-.902 1.432z" fill="#172635"/><path d="M378.211 205.497a.99.99 0 0 1-.24-.029c-11.586-2.86-21.566-7.387-32.131-12.18-5.515-2.502-11.219-5.089-17.28-7.48-7.109-2.805-14.264-5.433-21.184-7.974-22.556-8.284-42.036-15.438-45.52-23.728-.804-1.914-.775-3.854.086-5.768 2.701-5.997 11.895-10.955 23.996-12.937 15.005-2.459 37.14-.324 50.532 13.67 21.233-5.312 57.221 5.499 71.777 21.668a1 1 0 1 1-1.486 1.338c-14.284-15.868-49.791-26.426-70.354-20.924a.999.999 0 0 1-.992-.286c-12.808-13.806-34.484-15.898-49.153-13.493-11.447 1.875-20.067 6.391-22.496 11.785-.633 1.406-.655 2.771-.066 4.172 3.147 7.488 22.248 14.503 44.366 22.625 6.93 2.545 14.096 5.177 21.228 7.991 6.108 2.41 11.834 5.007 17.372 7.52 10.479 4.753 20.378 9.244 31.785 12.06a.999.999 0 0 1-.24 1.97z" fill="#172635"/><path d="M587.206 602.792c93.249 24.46 171.935 55.288 212.857 102.631 18.777-.894 33.083-31.743 16.542-51.414-50.308-51.614-140.891-53.67-229.399-51.217z" fill="#0275a4"/><path d="M816.605 655.009a.997.997 0 0 1-.716-.302c-50.139-51.441-140.45-53.359-228.655-50.915-.565.024-1.012-.42-1.027-.972s.42-1.012.972-1.027c88.647-2.458 179.439-.502 230.143 51.519a1 1 0 0 1-.717 1.697z" fill="#172635"/><path d="M783.692 690.002a1 1 0 0 1-.586-1.811c6.7-4.833 11.095-12.514 12.376-21.628 1.672-11.894-2.06-24.678-10.24-35.076a1 1 0 1 1 1.571-1.236c8.515 10.823 12.396 24.16 10.648 36.59-1.358 9.659-6.041 17.817-13.187 22.972a.986.986 0 0 1-.582.189zm-36.793-26.193a1 1 0 0 1-.722-1.692c5.191-5.414 13.19-27.373 5.109-45.351a1 1 0 1 1 1.824-.82c8.865 19.723-.453 42.302-5.49 47.555a.992.992 0 0 1-.721.308zm-43.602-21.844a1.001 1.001 0 0 1-.862-1.507c2.837-4.829 8.426-24.994 8.126-32.846a1 1 0 0 1 .961-1.038 1.004 1.004 0 0 1 1.037.961c.316 8.299-5.392 28.814-8.4 33.935a.993.993 0 0 1-.862.495z" fill="#172635"/><path d="M656.872 306.996c-2.2-.383-19.762-9.126-34.779-11.214 3.129 12.945 12.568 106.169 30.675 110.668 21.477 5.336 108.215-115.813 94.132-121.266l-12.331.621" fill="#fff"/><path d="M670.293 229.456c.259 29.86-2.886 56.17-13.421 77.541-2.108 20.122 61.031 9.39 77.696-21.192-2.546-14.534-2.544-28.97-.534-46.979z" fill="#fff"/><path d="M673.623 318.253c-3.719 0-7.047-.413-9.776-1.262-5.638-1.754-8.469-5.341-7.97-10.099a.974.974 0 0 1 .098-.338c9.377-19.021 13.609-43.517 13.318-77.089-.002-.292.123-.571.343-.763s.513-.281.802-.235l63.741 9.37a1 1 0 0 1 .848 1.1c-2.088 18.708-1.931 32.673.525 46.696.039.223.001.452-.107.651-5.867 10.766-18.363 20.391-34.284 26.408-9.596 3.625-19.483 5.561-27.538 5.561zm-15.773-10.98c-.316 3.723 1.901 6.349 6.592 7.809 16.982 5.284 56.566-7.024 69.081-29.452-2.391-13.862-2.57-27.679-.588-45.955l-61.633-9.06c.184 33.202-4.098 57.594-13.452 76.658z" fill="#172635"/><path d="M673.8 318.199c-4.474 0-8.362-.572-11.299-1.738-4.51-1.79-6.805-4.829-6.676-8.817-12.817-5.305-23.923-8.867-33.93-10.882a1 1 0 0 1 .395-1.961c10.309 2.076 21.747 5.763 34.967 11.272a1 1 0 0 1 .61 1.027c-.358 3.421 1.449 5.945 5.373 7.502 14.135 5.611 51.272-3.147 66.944-23.707a1 1 0 0 1 1.59 1.213c-12.926 16.956-40.106 26.091-57.974 26.091z" fill="#172635"/><path d="M498.335 346.214c20.666-9.79 26.547-37.874 7.774-60.179-19.628 5.598-107.162-10.785-117.695-48.317-49.827 3.064-71.873 40.734-56.946 65.846 22.504 37.858 119.881 64.907 166.867 42.65z" fill="#0275a4"/><path d="M348.898 322.856a1 1 0 0 1-.888-.539c-3.571-6.867-6.566-22.933-.184-39.048 6.711-16.947 21.655-29.585 44.417-37.564a1 1 0 0 1 .661 1.888c-22.19 7.778-36.731 20.029-43.219 36.413-6.092 15.383-3.173 31.098.099 37.389a1 1 0 0 1-.886 1.461zm44.536 22.085a1 1 0 0 1-.883-.528c-5.464-10.221-10.718-48.129 20.654-79.845a1 1 0 1 1 1.422 1.406c-30.58 30.916-25.59 67.622-20.312 77.495a1.001 1.001 0 0 1-.881 1.472zm53.526 10.094a1 1 0 0 1-.933-1.36c5.469-14.169 11.441-50.76 3.875-73.237a1 1 0 0 1 1.896-.638c7.72 22.933 1.658 60.184-3.904 74.595-.154.396-.533.64-.934.64zm46.762-5.863a1.001 1.001 0 0 1-.89-1.454c.157-.308 15.444-31.163-7.291-60.425a1 1 0 1 1 1.579-1.227c23.534 30.29 7.656 62.243 7.493 62.562a.998.998 0 0 1-.891.544z" fill="#172635"/><path d="M454.99 355.352c-15.481 0-32.495-2.288-49.813-6.881-35.281-9.358-63.854-26.37-74.569-44.396a1 1 0 1 1 1.72-1.021c10.458 17.593 38.569 34.255 73.363 43.484 35.869 9.514 70.343 9.054 92.219-1.229 8.176-3.844 14.166-10.922 16.866-19.932a1 1 0 0 1 1.916.574c-2.866 9.561-9.234 17.078-17.931 21.167-11.659 5.482-26.793 8.234-43.771 8.234zm260.522-278.92c-2.422-41.877 22.604-55.758 42.322-54.334 24.474 1.768 52.104 21.508 48.952 40.767-1.521 9.296-12.591 7.007-12.29-3.393.679-23.443 24.128-34.145 42.614-22.788 19.574 12.026 35.062 37.423 32.942 61.108-5.22 58.32-47.974 60.835-89.241 120.214 0-.001-62.384-91.186-65.299-141.574z" fill="#172635"/><path d="M690.666 111.917c-13.192 13.082-16.244 31.349-20.056 40.85-6.712 16.729-26.688 18.643-32.595 49.813-8.191 43.221 40.525 77.413 93.792 36.912 2.614 20.507 28.463 15.69 33.044-3.066 46.332-13.311 64.238-86.282-4.854-49.355 57.378-77.567-29.587-114.565-69.331-75.154z" fill="#fff"/><path d="M684.949 258.565c-13.65 0-23.23-4.821-27.273-7.322-16.509-10.213-24.419-28.93-20.644-48.849 3.663-19.328 12.662-27.613 20.602-34.923 4.891-4.503 9.511-8.756 12.047-15.077.865-2.155 1.679-4.736 2.623-7.725 3.094-9.801 7.331-23.223 17.657-33.463 22.313-22.126 57.119-19.841 75.629-3.827 20.111 17.4 19.152 45.949-2.351 76.885 22.433-11.232 33.194-9.384 38.301-5.687 4.438 3.213 6.175 9.018 4.891 16.344-2.752 15.707-18.718 35.718-40.754 42.303-3.055 11.377-13.113 17.028-21.181 16.578-6.985-.394-11.905-5.035-13.41-12.522-17.991 13.305-33.743 17.285-46.137 17.285zm6.421-145.938c-9.976 9.893-14.127 23.043-17.158 32.645-.956 3.027-1.781 5.643-2.674 7.868-2.704 6.74-7.486 11.143-12.549 15.803-7.711 7.099-16.452 15.146-19.992 33.823-3.617 19.086 3.944 37.009 19.731 46.775 7.529 4.658 35.007 17.642 72.473-10.845a1 1 0 0 1 1.597.67c.961 7.538 5.266 12.072 11.811 12.441 7.485.433 16.75-5.303 19.269-15.618a.998.998 0 0 1 .695-.724c21.569-6.197 37.219-25.655 39.888-40.887 1.145-6.532-.309-11.639-4.094-14.379-6.954-5.035-21.124-2.281-39.9 7.754a.999.999 0 0 1-1.275-1.477c23.156-31.303 25.059-60.307 5.09-77.583-17.833-15.429-51.387-17.61-72.912 3.734z" fill="#172635"/><path d="M743.386 230.456a1 1 0 0 1-.031-2c6.82-.214 11.89-2.677 13.562-6.588.833-1.948.617-3.975-.563-5.289-1.28-1.425-3.491-1.792-6.069-1.003a1 1 0 0 1-1.031-1.631c10.477-11.464 22.452-18.5 35.592-20.914a1 1 0 0 1 .361 1.967c-11.871 2.181-22.78 8.288-32.464 18.169 2.078 0 3.854.689 5.099 2.077 1.706 1.899 2.056 4.739.914 7.411-1.986 4.646-7.72 7.562-15.338 7.801h-.032zm15.338-94.309c-10.515 34.798 1.272 50.924 1.272 50.924 50.294-33.097 17.761-110.756-26.958-98.957 0 .001 13.82 17.145 25.686 48.033z" fill="#172635"/><path d="M765.434 126.459c2.674-36.148-20.727-104.825-79.766-91.929-21.417 4.678-44.181 18.221-51.487 41.367-7.427 23.532 4.003 53.291 34.385 45.765 7.799-1.932 13.513-8.352 11.556-13.682-2.161-5.885-8.663-10.155-20.001-3.318-18.245 11.003-23.168 44.442 17.381 54.394 46.796 11.486 61.438-44.388 107.616-12.817z" fill="#172635"/><path d="M755.39 75.495c-.381 0-.744-.219-.912-.588-5.263-11.635-14.931-27.226-31.096-35.433a1 1 0 0 1 .905-1.783c13.206 6.704 24.276 19.288 32.013 36.392a1 1 0 0 1-.91 1.412z" fill="#fff"/><path d="M654.083 880.776c59.865-24.096 117.859-99.479-.413-309.892-83.471-148.5-303.082-317.328-415.825-262.395-43.545 21.217-64.113 73.897-66.265 135.714-.217 6.233 51.668-36.503 80.524 1.21 73.986-6.456 184.467 126.879 214.7 309.855 16.339 98.881 89.081 165.033 187.279 125.508z" fill="#9de9ff"/><path d="M704.582 681.74a1 1 0 0 1-.945-.674c-11.402-33.057-28.506-69.962-50.838-109.692a.998.998 0 0 1 .382-1.361.999.999 0 0 1 1.362.382c22.39 39.833 39.544 76.85 50.985 110.02a1 1 0 0 1-.946 1.325z" fill="#172635"/><path d="M527.274 809.357c-4.7-18.829-11.912-42.171-16.615-55.955-77.438 53.133-195.906 64.111-224.903 106.426 11.201 18.754 24.757 42.063 45.392 69.996z" fill="#fff"/><path d="M331.148 929.824c-26.877 30.142-45.986 83.207-56.867 121.41 0 0-55.381 42.029-33.726 63.649 34.542 34.487 96.741-15.089 96.741-15.089 59.097-9.984 114.526-24.201 131.617-74.374 68.602-38.586 145.976-92.39 104.609-165.78-9.508-16.867-22.646-31.294-46.246-50.284 0 0-57.298-14.645-72.999 37.422-26.892 16.518-123.129 83.046-123.129 83.046z" fill="#e6e6e6"/><path d="M394.554 1049.725c-.396 0-.763-.236-.922-.613-.138-.33-13.717-33.229-4.502-59.083 5.879-16.493 15.71-24.812 26.118-33.62 8.702-7.363 17.7-14.978 25.802-28.102 8.627-13.973 8.912-31.369 9.188-48.192.299-18.226.608-37.071 11.396-51.954l.81.587-.81-.587c8.573-11.827 22.692-18.996 40.833-20.731 13.628-1.305 24.892.925 25.004.948.157.032.304.101.429.201 23.376 18.809 36.845 33.46 46.491 50.571 9.887 17.541 13.545 35.064 10.871 52.084-2.366 15.061-9.78 30.197-22.037 44.986-23.721 28.622-62.373 52.369-93.494 69.887-.141.393-.289.779-.437 1.165l-.286.752a.998.998 0 0 1-.577.584c-21.794 8.417-46.582 15.515-73.676 21.097-.066.013-.134.02-.201.02zM511.261 809.02c-2.697 0-5.615.113-8.655.406-12.221 1.177-28.969 5.587-39.351 19.91-10.418 14.372-10.722 32.897-11.015 50.813-.28 17.094-.57 34.769-9.486 49.21-8.27 13.395-17.391 21.113-26.212 28.578-10.197 8.628-19.828 16.778-25.526 32.765-8.184 22.96 2.212 51.841 4.159 56.875 26.494-5.497 50.752-12.45 72.122-20.673l.132-.347c.185-.481.369-.962.538-1.458.08-.233.242-.428.456-.549 31.027-17.451 69.668-41.134 93.263-69.605 25.795-31.125 29.381-62.138 10.964-94.812-9.484-16.826-22.764-31.276-45.808-49.838-1.252-.231-7.392-1.275-15.581-1.275z" fill="#172635"/><path d="M271.387 1128.036c-12.582 0-23.241-4.161-31.539-12.446-3.868-3.861-5.64-8.605-5.267-14.1 1.461-21.543 35.193-48.052 38.829-50.849 20.715-72.588 44.039-106.732 56.453-120.874-18.823-25.552-31.857-47.428-42.347-65.034l-2.619-4.392a1 1 0 0 1 .034-1.078c15.387-22.454 55.087-35.996 101.055-51.676 40.955-13.97 87.374-29.804 124.108-55.009a1.002 1.002 0 0 1 1.512.501c4.73 13.859 11.909 37.149 16.558 55.709 23.216 18.709 36.62 33.314 46.229 50.361 9.887 17.541 13.545 35.064 10.871 52.084-2.366 15.061-9.78 30.196-22.037 44.986-23.721 28.622-62.37 52.367-93.491 69.885-17.685 51.201-74.88 64.967-132.022 74.633-1.919 1.492-16.912 12.914-35.457 20.459-11.22 4.566-21.571 6.84-30.87 6.84zm15.558-268.166 2.289 3.839c10.556 17.718 23.694 39.769 42.718 65.521a1 1 0 0 1-.058 1.26c-12.173 13.652-35.72 47.527-56.652 121.018a.997.997 0 0 1-.357.522c-.368.28-36.86 28.215-38.309 49.596-.331 4.892 1.245 9.114 4.685 12.548 8.632 8.618 19.108 11.823 29.914 11.823 31.146.001 65.041-26.623 65.498-26.986.133-.105.29-.176.457-.204 56.764-9.59 113.625-23.182 130.837-73.71a.997.997 0 0 1 .456-.549c31.027-17.451 69.668-41.134 93.263-69.605 12.024-14.509 19.292-29.32 21.602-44.021 2.602-16.564-.977-33.653-10.637-50.792-9.51-16.873-22.838-31.357-46.002-49.996a.998.998 0 0 1-.343-.537c-4.496-18.014-11.427-40.605-16.169-54.629-36.782 24.927-82.831 40.636-123.504 54.51-45.267 15.442-84.41 28.795-99.688 50.392z" fill="#172635"/><path d="M283.013 1024.205a1 1 0 0 1-.451-1.892l133.647-67.475-85.333-24.051a.999.999 0 0 1-.288-1.792l123.128-83.045a1 1 0 1 1 1.118 1.658l-121.339 81.838 85.73 24.163a1 1 0 0 1 .179 1.855l-135.941 68.633a.993.993 0 0 1-.45.108z" fill="#172635"/><path d="M573.519 859.641c68.477 17.59 60.338 99.79 14.28 135.189s-113.321 37.26-113.321 37.26c-4.037 41.785-51.539 68.271-96.34 64.939-33.638 57.221-128.901 61.48-141.032 13.035 73.083 12.116 89.295-37.962 108.671-48.075 9.688-5.057 32.472-2.709 48.776-13.264s25.229-33.734 32.562-38.458c8.712-5.612 27.18-4.258 52.61-25.816 19.831-16.811 18.677-49.803 27.045-56.689 15.526-12.775 63.375-23.953 66.749-68.121z" fill="#fff"/><path d="M292.412 1144.438c-4.404 0-8.692-.299-12.804-.892-23.172-3.337-39.017-15.453-43.47-33.24a.998.998 0 0 1 1.134-1.229c7.803 1.293 14.95 1.879 21.508 1.879 38.545.002 56.897-20.21 70.849-35.57 5.648-6.219 10.527-11.59 15.688-14.284 4.036-2.107 10.054-2.949 17.023-3.923 10.354-1.448 22.089-3.089 31.673-9.294 9.575-6.199 16.621-16.928 22.282-25.548 3.998-6.089 7.156-10.898 10.281-12.911 2.898-1.867 6.678-2.953 11.464-4.327 10.074-2.894 23.871-6.856 41.04-21.411 11.763-9.972 15.991-25.747 19.389-38.423 2.299-8.578 4.115-15.354 7.667-18.275 3.93-3.234 9.762-6.3 16.515-9.851 19.994-10.513 47.377-24.912 49.872-57.574a.998.998 0 0 1 1.246-.893c26.77 6.877 44.314 24.344 49.399 49.185 6.358 31.059-7.935 67.15-34.758 87.766-42.94 33.003-104.93 37.04-113.025 37.43-4.74 42.679-53.479 67.96-96.699 65.018-18.895 31.615-55.357 46.366-86.274 46.367zm-53.933-33.14c4.744 16.153 19.74 27.148 41.414 30.27 32.485 4.679 76.367-9.292 97.385-45.044a.991.991 0 0 1 .936-.49c42.714 3.177 91.189-21.797 95.27-64.038a1 1 0 0 1 .968-.903c.67-.019 67.477-2.266 112.739-37.054 26.24-20.167 40.228-55.441 34.018-85.779-4.851-23.697-21.448-40.472-46.794-47.346-3.138 32.921-30.667 47.394-50.833 57.997-6.656 3.5-12.403 6.522-16.175 9.625-3.057 2.515-4.887 9.343-7.006 17.249-3.47 12.945-7.789 29.055-20.028 39.431-17.497 14.833-31.533 18.864-41.782 21.808-4.628 1.329-8.283 2.379-10.933 4.086-2.769 1.784-5.978 6.669-9.693 12.327-5.764 8.777-12.938 19.701-22.867 26.129-9.956 6.445-22.446 8.192-32.483 9.596-6.785.949-12.645 1.769-16.375 3.715-4.845 2.529-9.612 7.778-15.132 13.855-16.477 18.142-38.987 42.926-92.629 34.566z" fill="#172635"/><path d="M189.905 369.515c-52.682 94.82-2.005 368.137 40.201 496.927 103.066 5.221 218.203-37.948 285.257-99.256-27.418-95.604-111.95-255.291-220.56-343.18-49.606-20.125-73.077-90.355-104.898-54.491z" fill="#9de9ff"/><path d="M515.362 768.187a1 1 0 0 1-.961-.725c-14.804-51.621-43.864-115.129-79.727-174.24-29.764-49.059-78.301-118.105-140.501-168.438a1 1 0 1 1 1.258-1.554c62.424 50.514 111.106 119.76 140.952 168.955 35.952 59.257 65.089 122.942 79.939 174.726a1 1 0 0 1-.96 1.276zm-268.224 99.681c-5.763 0-11.46-.142-17.083-.427a1 1 0 0 1-.9-.687c-15.788-48.174-31.387-112.088-42.8-175.353a1 1 0 0 1 1.969-.356c11.345 62.894 26.831 126.417 42.518 174.432 18.531.899 37.907.243 57.6-1.951a1 1 0 1 1 .222 1.987c-14.063 1.568-27.971 2.355-41.526 2.355z" fill="#172635"/><path d="M782.568 383.382c4.829 10.691 23.201 28.195 33.711 70.088 9.677 38.57-.793 70.712 12.492 145.291 12.265 68.852 72.645 122.485 130.417 108.511 55.095-13.327 89.065-84.552 65.481-152.668-20.933-60.458-61.999-89.325-72.698-123.505-5.607-17.912-9.325-41.285-9.543-73.96-.531-79.722-22.574-115.001-67.393-126.114-64.31-15.945-141.997 63.845-141.997 63.845-5.55 6.194 23.964 31.911 49.53 88.512z" fill="#fff"/><path d="M1032.434 599.042c2.083 78.264 2.786 231.283 51.653 273.855 4.784 39.557-97.986 84.926-126.411 53.511 2.234-72.599-102.392-242.923-121.649-301.576-13.799-42.031 193.091-150.38 196.407-25.79z" fill="#fff"/><path d="M955.233 924.412c-3.585 31.087-.965 50.738 1.103 58.32 3.776 13.844 110.615-19.398 110.615-19.398 24.419 1.878 50.693-19.222 53.797-39.552l-7.244-37.984s-22.259-9.506-43.134-11.404c-11.218-1.02-112.626 28.249-115.137 50.018z" fill="#fff"/><path d="M966.371 987.064c-3.897 0-6.92-.441-8.756-1.448-1.193-.654-1.947-1.536-2.243-2.621-.927-3.4-5.34-22.209-1.132-58.698l.993.115-.993-.115c.783-6.792 10.953-18.269 54.953-34.379 26.772-9.802 55.409-17.038 61.269-16.52 20.791 1.891 43.212 11.385 43.436 11.48a1 1 0 0 1 .59.732l7.244 37.984c.021.112.023.226.006.338-3.195 20.924-28.736 40.512-51.834 40.514-.951 0-1.896-.033-2.837-.101-5.164 1.602-73.757 22.718-100.696 22.719zm103.347-111.696c-13.009 0-111.108 28.494-113.491 49.159-4.166 36.124.164 54.604 1.074 57.942.15.549.567 1.005 1.275 1.394 3.979 2.18 17.468 2.596 59.136-7.812 25.084-6.266 48.706-13.597 48.942-13.671a.966.966 0 0 1 .374-.042c24.85 1.919 49.681-19.554 52.706-38.538l-7.111-37.285c-3.373-1.386-23.56-9.417-42.343-11.124a5.884 5.884 0 0 0-.562-.023z" fill="#172635"/><path d="M1113.504 885.798c51.063-19.921 97.597 9.427 117.549 31.906 19.989 22.52 37.829 75.615 16.142 86.349-14.123 6.99-64.507-25.505-63.543-64.913-15.6 4.323-40.377-1.398-62.904-15.358 0 0-29.843-29.168-7.244-37.984z" fill="#fff"/><path d="M1242.429 1006.003c-6.003 0-14.302-3.052-23.123-8.679-16.994-10.841-36.577-32.141-36.666-56.892-16.272 3.857-40.562-2.256-62.418-15.801a1.024 1.024 0 0 1-.172-.135c-.747-.73-18.276-18.033-15.754-30.412.847-4.158 3.823-7.26 8.845-9.219l.364.932-.364-.932c22.721-8.864 47.325-8.848 71.154.048 25.635 9.57 41.762 25.654 47.506 32.125 7.583 8.542 15.096 21.819 20.099 35.514 5.433 14.875 7.386 28.396 5.499 38.072-1.36 6.973-4.644 11.792-9.76 14.324-1.432.71-3.192 1.055-5.21 1.055zm-58.776-67.863a1.003 1.003 0 0 1 1 1.024c-.599 24.479 18.872 45.721 35.729 56.474 11.031 7.037 21.382 9.989 26.371 7.519 4.528-2.242 7.45-6.587 8.684-12.915 3.923-20.114-10.287-55.153-25.13-71.875-5.645-6.36-21.496-22.167-46.71-31.58-23.36-8.72-47.472-8.74-69.728-.058-4.349 1.696-6.91 4.306-7.613 7.755-2.229 10.937 13.862 27.255 15.116 28.506 21.959 13.582 46.291 19.543 62.014 15.185.088-.023.177-.035.267-.035z" fill="#172635"/><path d="M1065.647 838.245c72.766-230.671-73.277-325.582-110.117-398.095-27.499-54.125 12.841-173.104-68.867-205.489-55.079-21.831-124.334 28.683-153.624 60.217-5.657 6.09 20.863 96.061 40.952 134.296 41.853 79.66 41.853 126.951 41.853 183.064 0 88.596-25.563 254.646 98.909 280.192 28.425 31.414 155.678-14.628 150.894-54.185z" fill="#0275a4"/><path d="M1095.166 891.632c62.003-24.006 100.678 4.122 119.354 27.932 18.584 23.692 30.728 84.33 7.129 89.682-17.367 3.939-57.809-30.753-55.323-70.094-15.755 3.717-37.971 2.309-61.384-10.108 0 0-32.398-28.654-9.776-37.412z" fill="#fff"/><path d="M1247.647 1003.835c-22.915-6.971-34.687-57.18 4.031-48.919 9.437 25.685 6.359 43.181-4.031 48.919z" fill="#fff"/><path d="M1247.647 1004.835a.996.996 0 0 1-.291-.043c-14.973-4.555-24.622-26.065-21.174-39.413 2.633-10.195 12.002-14.364 25.706-11.441a1 1 0 0 1 .73.633c8.979 24.44 7.26 43.652-4.487 50.139a1 1 0 0 1-.484.125zm-3.871-49.828c-8.352 0-13.813 3.727-15.659 10.872-3.777 14.622 7.662 32.96 19.414 36.87 10.403-6.138 11.703-24.04 3.398-46.967-2.573-.519-4.963-.775-7.153-.775z" fill="#172635"/><path d="M1225.051 1007.968c-22.494-8.228-31.47-59.012 6.732-48.621 4.979 21.977 3.96 43.466-6.732 48.621z" fill="#fff"/><path d="M1225.051 1008.968a.998.998 0 0 1-.344-.061c-14.698-5.376-23.142-27.388-18.961-40.524 3.193-10.034 12.779-13.679 26.299-10a1 1 0 0 1 .713.744c4.356 19.229 5.065 43.794-7.273 49.743a1.008 1.008 0 0 1-.434.098zm-2.626-50.008c-7.538 0-12.668 3.418-14.773 10.029-4.579 14.389 5.825 33.329 17.341 37.887 10.083-5.384 10.282-27.134 5.947-46.718-3.102-.802-5.948-1.198-8.515-1.198z" fill="#172635"/><path d="M1218.809 1010.544c-6.993 0-16.413-4.438-25.486-12.165-14.301-12.179-29.026-33.702-28.064-57.962-14.811 3.176-32.005 1.439-48.59-4.926a1 1 0 1 1 .717-1.867c16.699 6.409 34 8.027 48.71 4.556a1 1 0 0 1 1.228 1.036c-1.521 24.064 13.104 45.554 27.296 57.641 10.006 8.521 20.279 12.894 26.807 11.415 4.654-1.056 8.048-4.502 10.087-10.244 5.947-16.741-1.233-56.75-17.781-77.847-8.094-10.319-22.121-24.173-42.977-31.572-22.513-7.986-47.824-6.656-75.229 3.955a1 1 0 1 1-.722-1.865c27.865-10.788 53.644-12.124 76.62-3.975 21.309 7.559 35.625 21.695 43.883 32.223 14.084 17.955 25.426 59.104 18.092 79.75-2.284 6.43-6.163 10.307-11.529 11.524-.956.217-1.98.323-3.062.323z" fill="#172635"/><path d="M1194.119 998.779c-1.086 11.281-57.2 32.206-109.497 29.513-47.779-2.46-126.148-13.772-129.377-51.587-2.45-28.696 44.98-32.203 86.785-23.735 23.038 4.666 44.368 12.969 54.701 22.698 29.397-13.46 99.951-3.517 97.388 23.111z" fill="#fff"/><path d="M1094.005 1029.53c-3.156 0-6.304-.077-9.436-.239-59.447-3.061-130.456-15.507-131.155-57.413a1.001 1.001 0 0 1 .983-1.017 1.009 1.009 0 0 1 1.016.983c.673 40.362 70.663 52.432 129.259 55.449 23.105 1.191 49.934-2.264 73.61-9.475 23.357-7.113 34.433-14.906 34.84-19.136.54-5.605-2.357-10.704-8.609-15.155-19.132-13.62-64.857-17.258-87.367-6.951a1 1 0 0 1-1.102-.181c-9.716-9.146-29.983-17.538-54.214-22.445a1 1 0 1 1 .397-1.96c24.183 4.898 44.544 13.282 54.696 22.495 23.217-10.198 69.34-6.405 88.75 7.414 6.877 4.896 10.053 10.607 9.44 16.976-1.136 11.809-51.813 30.654-101.108 30.655z" fill="#172635"/><path d="M1147.499 980.345c19.949-5.096 43.421 1.287 46.755 16.468 2.233 10.165-34.278 23.553-51.376 26.095-19.478-6.92-17.433-36.929 4.621-42.563z" fill="#fff"/><path d="M1142.878 1023.908c-.114 0-.227-.02-.335-.058-8.962-3.184-14.459-11.684-14.004-21.654.506-11.088 7.851-20.045 18.712-22.82 13.383-3.42 28.287-1.773 37.97 4.194 5.408 3.333 8.869 7.837 10.01 13.029.361 1.644-.083 3.387-1.32 5.182-6.824 9.9-37.251 20.09-50.886 22.117-.049.007-.098.01-.147.01zm18.578-44.299c-4.559 0-9.22.559-13.709 1.705-12.137 3.101-16.856 13.236-17.209 20.974-.327 7.162 2.777 16.038 12.442 19.594 7.515-1.15 18.368-4.312 27.748-8.086 11.131-4.48 18.78-9.15 21.537-13.149.91-1.32 1.251-2.537 1.013-3.618-1.021-4.649-4.17-8.714-9.105-11.755-6.024-3.712-14.192-5.665-22.717-5.665zm-13.957.736h.01zM813.691 700.036h-.006a1 1 0 0 1-.994-1.006c.094-16.269.646-31.951 1.179-47.116.501-14.255.975-27.72.975-39.677 0-50.715 0-103.158-41.739-182.599a1 1 0 0 1 1.77-.931c41.968 79.878 41.968 132.571 41.968 183.529 0 11.992-.474 25.474-.976 39.747-.533 15.151-1.083 30.817-1.177 47.057a1 1 0 0 1-1 .996z" fill="#172635"/><path d="M1065.647 838.245c23.645 2.177 30.292 21.971 21.495 39.022-53.883 15.856-122.984 47.098-133.683 77.384-42.918 3.8-60.918-32.583-38.705-62.221 30.488-40.68 98.312-59.026 150.893-54.185z" fill="#0275a4"/><path d="M914.753 893.43a1 1 0 0 1-.785-1.618c14.943-18.996 38.451-34.287 67.983-44.221 27.176-9.141 56.933-12.816 83.788-10.342a.999.999 0 1 1-.183 1.991c-26.585-2.447-56.05 1.192-82.968 10.246-29.162 9.81-52.347 24.873-67.049 43.562a.996.996 0 0 1-.786.382z" fill="#172635"/><path d="M675.005 397.084s84.81-82.665 97.434-123.062c8.206-26.26-17.86-26.984-38.031-2.23-.422 4.062.983 6.998.159 14.012-32.274 31.428-50.984 61.22-79.032 112.297-7.486-36.275-13.403-68.321-6.874-95.073l14.919-16.101c-26.556-24.323-70.654-2.273-23.114 109.165 8.63 19.134 19.592 23.055 34.539.992z" fill="#0275a4"/><g fill="#172635"><path d="M647.539 309.339a1 1 0 0 1-1-1c0-5.043 2.006-10.159 5.11-13.033 2.023-1.874 4.462-2.761 7.046-2.56a.999.999 0 0 1 .92 1.074.995.995 0 0 1-1.074.92c-2.047-.158-3.907.526-5.534 2.033-2.673 2.476-4.469 7.124-4.469 11.566a.998.998 0 0 1-.999 1zm87.029-22.534a1 1 0 0 1-.708-1.706c8.634-8.655 15.521-13.269 18.081-14.85a.999.999 0 1 1 1.051 1.701c-2.5 1.545-9.232 6.056-17.716 14.561a.996.996 0 0 1-.708.294zm-59.563 111.279a1 1 0 0 1-.698-1.716c.846-.825 84.774-82.95 97.178-122.644 1.611-5.153 1.931-9.592.928-12.838a1 1 0 1 1 1.911-.591c1.14 3.686.827 8.405-.929 14.025-5.278 16.889-23.331 42.811-53.657 77.044-22.544 25.449-43.821 46.229-44.034 46.436a.998.998 0 0 1-.699.284zm-34.537-.991a1 1 0 0 1-.92-.608c-24.114-56.525-23.319-86.133-18.405-101.017a1 1 0 0 1 1.899.627c-6.793 20.577-.278 55.951 18.345 99.605a1 1 0 0 1-.919 1.393zM963.29 940.561c-.089 0-.179-.012-.269-.037-17.153-4.772-32.96-20.424-37.586-37.217-2.191-7.952-2.783-19.548 6.835-29.629a1 1 0 1 1 1.447 1.381c-8.972 9.404-8.407 20.263-6.354 27.717 4.452 16.16 19.673 31.225 36.194 35.821a1 1 0 0 1-.267 1.964zm33.194-24.777c-.2 0-.402-.06-.578-.185-10.623-7.545-39.731-46.886-31.533-60.928a1 1 0 0 1 1.727 1.009c-7.018 12.021 19.778 50.344 30.964 58.289a1 1 0 0 1-.58 1.815zm40.618-19.774a1 1 0 0 1-.984-.826c-1.678-9.5-19.461-48.709-26.869-52.975a1 1 0 0 1 .998-1.734c8.219 4.733 26.038 44.155 27.841 54.361a1 1 0 0 1-.986 1.174zm36.403-13.504a1 1 0 0 1-.997-.939c-.968-15.895-11.087-38.92-21.516-43.133a1 1 0 0 1 .749-1.855c10.364 4.187 21.639 26.41 22.763 44.866a1 1 0 0 1-.937 1.059c-.021.002-.041.002-.062.002z"/></g><path d="M563.77 33.752c11.236-1.478 39.316 48.434 29.817 117.461-6.369 46.282-45.438 104.896-75.3 98.93-43.805-8.752-16.632-85.911 27.999-117.11-22.334-27.239-9.038-95.792 17.484-99.281z" fill="#fff"/><path d="M556.206 233.941a1 1 0 0 1-.799-1.599c19.359-25.872 33.957-57.771 37.19-81.265 8.25-59.953-11.5-101.903-22.358-112.825-2.461-2.477-4.708-3.728-6.337-3.508-8.418 1.107-16.024 9.228-21.418 22.865-11.558 29.225-6.75 60.977 4.576 74.79a.998.998 0 0 1-.2 1.454c-16.024 11.202-30.633 29.015-40.08 48.874a1 1 0 0 1-1.806-.86c9.421-19.803 23.914-37.616 39.872-49.04-6.408-8.321-10.234-20.86-10.803-35.471-.537-13.797 1.862-28.552 6.58-40.483 5.672-14.343 13.846-22.907 23.017-24.113 2.289-.309 5.063 1.11 8.017 4.081 11.085 11.151 31.273 53.814 22.921 114.508-3.276 23.806-18.023 56.067-37.571 82.19a.994.994 0 0 1-.801.402z" fill="#172635"/><path d="M565.987 34.046c-6.127 2.574-9.192 32.21-2.17 53.113 4.86 14.466 29.426 14.466 28.002-1.335-5.47-31.204-19.209-50.161-25.832-51.778z" fill="#fff"/><path d="M579.8 98.84c-6.826 0-14.405-3.844-16.931-11.362-3.228-9.608-4.647-21.932-3.896-33.812.271-4.279 1.549-18.409 6.626-20.542.197-.083.416-.1.624-.05 7.414 1.81 21.146 21.573 26.581 52.577.597 6.591-3.065 11.479-9.545 12.839-1.11.234-2.274.35-3.459.35zm-13.709-63.724c-4.831 3.02-8.377 30.733-1.326 51.725 2.614 7.783 11.421 11.089 18.083 9.693 5.489-1.153 8.47-5.123 7.976-10.62-5.359-30.548-18.524-48.742-24.733-50.798z" fill="#172635"/></svg></g><g transform="translate(1174.2857142857142 199.28571428571428) rotate(0.0 169.28571428571433 233.57142857142858) translate(0.0 0.0) scale(2.145749830920346 2.1492951692126283)"><svg width="50.931" height="217.347" viewBox="0 0 50.931 217.347"><path d="M37.236 147.927c5.31-23.17 57.148-23.362 64.569.577-2.249 30.659-66.415 22.468-64.569-.577z" fill="#172635"/><ellipse cx="78.894" cy="77.483" fill="#9de9ff" rx="82.869" ry="73.212" transform="matrix(.7569 -.6535 .6535 .7569 -31.4583 70.39)"/><g fill="#172635"><path d="M77.461 183.637c-.021 0-.042 0-.064-.002a1 1 0 0 1-.935-1.061c.016-.247 1.618-24.964 7.503-50.176 4.224-18.095 9.478-31.871 15.712-41.248-2.324-1.401-4.481-3.092-6.321-5.078a23.092 23.092 0 0 1-2.656-3.457c-3.824 1.245-8.019 1.652-11.9 1.258-3.406-.344-7.007-1.343-10.189-3.143-2.265 2.732-5.133 5.275-8.537 7.224a27.535 27.535 0 0 1-5.99 2.557c5.372 29.37 2.028 86.856 1.978 87.548-.04.551-.519.955-1.07.924a1 1 0 0 1-.924-1.071c.77-10.501 2.786-60.795-1.916-86.919-5 1.042-11.125.752-18.078-2.681-5.212-2.573-7.975-6.437-7.581-10.599.361-3.811 3.36-7.133 7.463-8.268 5.354-1.48 11.069 1.061 15.289 6.8 1.881 2.557 3.337 6.86 4.456 12.29a25.415 25.415 0 0 0 5.38-2.316c3.05-1.746 5.689-4.065 7.806-6.573-3.81-2.664-6.768-6.658-7.629-12.281-.96-6.27 1.493-8.985 3.041-10.046 2.137-1.465 5-1.494 7.471-.076 3.349 1.922 5.145 5.891 4.803 10.615-.233 3.223-1.866 7.354-4.714 11.268 2.863 1.572 6.088 2.449 9.143 2.758 3.497.354 7.264.021 10.708-1.034-1.995-3.994-2.616-8.459-1.8-13.177.839-4.849 4.233-7.506 7.13-8.375 2.777-.833 5.448-.251 7.147 1.557 1.273 1.355 3.045 4.616.605 11.228-1.719 4.657-5.564 7.907-10.179 9.827a21.885 21.885 0 0 0 2.211 2.804c1.741 1.879 3.784 3.476 5.987 4.796 5.258-7.325 11.186-11.632 17.758-12.881 7.316-1.389 10.657 1.179 11.997 2.834 1.932 2.388 2.261 5.777.879 9.066-1.799 4.283-6.034 7.241-11.053 7.719-5.442.518-12.637-.803-18.93-4.096C82.62 120.4 78.507 181.922 78.458 182.7a1 1 0 0 1-.997.937zm25.143-93.128c5.864 3.022 12.538 4.232 17.597 3.75 5.121-.488 8.213-3.679 9.399-6.503 1.092-2.599.871-5.228-.59-7.033-1.828-2.258-5.403-3.015-10.069-2.128-6.365 1.209-11.765 5.589-16.337 11.914zM37.012 71.04a9.501 9.501 0 0 0-2.524.334c-3.309.915-5.722 3.539-6.005 6.529-.312 3.291 2.049 6.432 6.476 8.618 6.48 3.2 12.175 3.47 16.815 2.502-1.055-5.181-2.411-9.239-4.141-11.592-3.863-5.254-7.874-6.391-10.621-6.391zM97.48 60.928c-.597 0-1.225.094-1.866.286-2.324.697-5.051 2.85-5.735 6.8-.767 4.433-.189 8.507 1.717 12.171 4.246-1.704 7.774-4.611 9.318-8.794 1.533-4.152 1.467-7.408-.186-9.166-.8-.852-1.949-1.297-3.248-1.297zm-31.5-2.727c-.921 0-1.805.256-2.552.768-1.975 1.354-2.775 4.303-2.195 8.093.77 5.029 3.446 8.608 6.902 11.001 2.646-3.587 4.228-7.386 4.442-10.349.285-3.939-1.137-7.206-3.804-8.736-.901-.518-1.866-.777-2.793-.777z"/><path d="M64.456 217.26c17.747 1.302 33.188-12.03 34.489-29.776l2.859-38.979c-13.146 31.338-58.975 19.976-64.569-.577L34.68 182.77c-1.301 17.747 12.03 33.188 29.776 34.49z"/><path d="M70.817 168.874a45.5 45.5 0 0 1-2.318-.059c-13.886-.706-29.419-8.032-32.239-20.67a1 1 0 0 1 1.952-.436c2.603 11.664 17.257 18.441 30.389 19.108 12.39.628 27.369-3.935 32.255-18.629a1 1 0 0 1 1.898.631c-4.936 14.842-19.318 20.055-31.937 20.055z"/></g></svg></g></svg>