<svg xmlns="http://www.w3.org/2000/svg" viewBox="0 0 3000 2142" width="3000" height="2142"><g transform="translate(1115.142857142857 181.7142857142857) rotate(0.0 384.0 457.2857142857143) scale(0.8529172992284875 0.8530662080380903)"><svg width="900.439" height="1072.099" viewBox="0 0 900.439 1072.099"><g><path d="M474.441 227.603c231.13 0 418.498 187.368 418.498 418.498s-187.368 418.498-418.498 418.498S55.943 877.231 55.943 646.101h418.498V227.603Z" style="fill:#fff"/><path d="M474.441 1072.099c-57.506 0-113.296-11.265-165.82-33.48-50.729-21.456-96.286-52.171-135.406-91.292-39.121-39.12-69.835-84.678-91.292-135.405-22.216-52.524-33.48-108.314-33.48-165.82a7.5 7.5 0 0 1 7.5-7.5h410.998V227.603a7.5 7.5 0 0 1 7.5-7.5c57.506 0 113.296 11.265 165.82 33.48 50.728 21.456 96.286 52.171 135.406 91.292 39.121 39.12 69.835 84.677 91.292 135.405 22.216 52.524 33.48 108.314 33.48 165.82s-11.264 113.296-33.48 165.82c-21.457 50.729-52.171 96.285-91.292 135.405-39.12 39.121-84.678 69.836-135.406 91.292-52.524 22.216-108.314 33.48-165.82 33.48ZM63.51 653.601c4.012 223.181 186.809 403.498 410.931 403.498 226.625 0 410.998-184.373 410.998-410.998 0-224.121-180.317-406.919-403.498-410.931v410.931a7.5 7.5 0 0 1-7.5 7.5H63.51Z" style="fill:#95ff80"/></g><g><path d="M7.5 425.998C7.5 194.868 194.868 7.5 425.998 7.5v418.498H7.5Z" style="fill:#fff"/><path d="M425.998 433.498H7.5a7.5 7.5 0 0 1-7.5-7.5c0-57.506 11.264-113.296 33.48-165.82 21.457-50.728 52.171-96.285 91.292-135.405 39.121-39.121 84.678-69.836 135.406-91.292C312.702 11.265 368.492 0 425.998 0a7.5 7.5 0 0 1 7.5 7.5v418.498a7.5 7.5 0 0 1-7.5 7.5Zm-410.931-15h403.431V15.067C197.81 19.034 19.034 197.81 15.067 418.498Z" style="fill:#95ff80"/></g></svg></g><g transform="translate(1611.4285714285713 1863.4285714285713) rotate(0.0 185.57142857142856 34.714285714285666) scale(0.7375975442941805 0.7440157253694043)"><svg width="503.178" height="93.316" viewBox="0 0 503.178 93.316"><path d="M365.13 7.5H46.658C25.032 7.5 7.5 25.032 7.5 46.658s17.532 39.158 39.158 39.158H365.13s-16.013-14.46-16.013-39.158S365.13 7.5 365.13 7.5z" fill="#DEA2FF"/><path d="M365.13 93.316H46.658C20.931 93.316 0 72.385 0 46.658S20.931 0 46.658 0H365.13a7.5 7.5 0 0 1 5.051 13.045c-.641.594-13.563 12.84-13.563 33.613 0 21.121 13.404 33.469 13.54 33.592a7.5 7.5 0 0 1-5.028 13.066zM46.658 15C29.202 15 15 29.202 15 46.658s14.202 31.658 31.658 31.658h303.429c-4.352-7.591-8.47-18.303-8.47-31.658s4.118-24.067 8.47-31.658z" fill="#1E284C"/><path d="M495.678 7.5H301.33c-21.626 0-39.158 17.532-39.158 39.158s17.532 39.158 39.158 39.158h194.347s-16.013-14.46-16.013-39.158S495.678 7.5 495.678 7.5z" fill="#FFF"/><path d="M495.678 93.316H301.33c-25.727 0-46.658-20.931-46.658-46.658S275.603 0 301.33 0h194.347a7.5 7.5 0 0 1 5.048 13.047c-.667.619-13.562 12.861-13.562 33.611 0 21.121 13.405 33.469 13.54 33.592a7.5 7.5 0 0 1-5.025 13.066zM301.33 15c-17.456 0-31.658 14.202-31.658 31.658s14.202 31.658 31.658 31.658h179.304c-4.352-7.591-8.47-18.303-8.47-31.658s4.118-24.067 8.47-31.658z" fill="#1E284C"/></svg></g><g transform="translate(1687.7142857142856 1920.8571428571427) rotate(0.0 164.57142857142856 29.142857142857224) scale(0.8478234231091495 0.84724996781281)"><svg width="388.221" height="68.794" viewBox="0 0 388.221 68.794"><path d="M253.149 7.5H34.397C19.542 7.5 7.5 19.542 7.5 34.397c0 14.855 12.042 26.897 26.897 26.897h218.752s-10.999-9.933-10.999-26.897S253.149 7.5 253.149 7.5z" fill="#DEA2FF"/><path d="M253.149 68.794H34.397C15.43 68.794 0 53.363 0 34.397S15.43 0 34.397 0h218.752a7.5 7.5 0 0 1 5.067 13.029c-.405.38-8.567 8.2-8.567 21.368 0 13.216 8.221 21.045 8.571 21.371 2.303 2.08 3.065 5.343 1.951 8.239s-3.919 4.787-7.022 4.787zM34.397 15C23.701 15 15 23.701 15 34.397s8.701 19.397 19.397 19.397H238.97c-2.396-5.125-4.32-11.653-4.32-19.397s1.924-14.271 4.32-19.397z" fill="#1E284C"/><path d="M380.721 7.5H209.748c-14.855 0-26.897 12.042-26.897 26.897 0 14.855 12.042 26.897 26.897 26.897H380.72s-10.999-9.933-10.999-26.897 11-26.897 11-26.897z" fill="#FFF"/><path d="M380.721 68.794H209.748c-18.967 0-34.397-15.43-34.397-34.397S190.782 0 209.748 0H380.72a7.5 7.5 0 0 1 5.066 13.031c-.425.399-8.565 8.216-8.565 21.366 0 13.261 8.44 21.254 8.526 21.33a7.5 7.5 0 0 1-5.026 13.067zM209.748 15c-10.696 0-19.397 8.701-19.397 19.397s8.701 19.397 19.397 19.397h156.793c-2.396-5.125-4.32-11.653-4.32-19.397s1.924-14.271 4.32-19.397z" fill="#1E284C"/></svg></g><g transform="translate(1625.142857142857 1738.2857142857142) rotate(0.0 189.85714285714278 35.14285714285711) scale(0.8816028588078855 0.8913172654676147)"><svg width="430.709" height="78.856" viewBox="0 0 430.709 78.856"><path d="M299.097 7.5H39.428C21.795 7.5 7.5 21.795 7.5 39.428c0 17.633 14.295 31.928 31.928 31.928h259.669s-13.057-11.79-13.057-31.928S299.097 7.5 299.097 7.5z" fill="#DEA2FF"/><path d="M299.097 78.856H39.428C17.687 78.856 0 61.168 0 39.428S17.687 0 39.428 0h259.669a7.5 7.5 0 0 1 5.06 13.036c-.489.455-10.616 10.094-10.616 26.392 0 16.346 10.187 25.993 10.621 26.396a7.467 7.467 0 0 1 1.955 8.242c-1.115 2.896-3.917 4.79-7.02 4.79zM39.428 15C25.958 15 15 25.958 15 39.428s10.958 24.428 24.428 24.428H284.51c-3.2-6.184-5.969-14.425-5.969-24.428S281.309 21.184 284.51 15z" fill="#1E284C"/><path d="M423.209 7.5H264.747c-17.633 0-31.928 14.295-31.928 31.928 0 17.633 14.295 31.928 31.928 31.928H423.21s-13.057-11.79-13.057-31.928S423.209 7.5 423.209 7.5z" fill="#FFF"/><path d="M423.21 78.856H264.747c-21.741 0-39.428-17.687-39.428-39.428S243.006 0 264.747 0H423.21a7.5 7.5 0 0 1 5.057 13.038c-.519.484-10.614 10.117-10.614 26.39 0 16.346 10.187 25.993 10.621 26.396a7.467 7.467 0 0 1 1.955 8.242c-1.115 2.896-3.916 4.79-7.019 4.79zM264.747 15c-13.47 0-24.428 10.958-24.428 24.428s10.958 24.428 24.428 24.428h143.875c-3.2-6.184-5.969-14.425-5.969-24.428s2.769-18.244 5.969-24.428z" fill="#1E284C"/></svg></g><g transform="translate(1618.2857142857142 1793.142857142857) rotate(0.0 214.28571428571422 41.14285714285711) scale(0.9849929753584304 0.999704948192373)"><svg width="435.101" height="82.31" viewBox="0 0 435.101 82.31"><path d="M314.871 7.5H41.155C22.568 7.5 7.5 22.568 7.5 41.155c0 18.587 15.068 33.655 33.655 33.655h273.716s-13.763-12.428-13.763-33.655S314.871 7.5 314.871 7.5z" fill="#95FF80"/><path d="M314.871 82.31H41.155C18.462 82.31 0 63.848 0 41.155S18.462 0 41.155 0h273.716a7.5 7.5 0 0 1 5.058 13.038c-.519.483-11.321 10.745-11.321 28.117 0 17.421 10.862 27.692 11.325 28.121 2.262 2.098 3.028 5.384 1.902 8.256-1.127 2.872-3.879 4.778-6.964 4.778zM41.155 15C26.733 15 15 26.733 15 41.155S26.733 67.31 41.155 67.31h259.008c-3.477-6.531-6.555-15.362-6.555-26.155s3.078-19.624 6.555-26.155z" fill="#1E284C"/><path d="M427.601 7.5H260.566c-18.587 0-33.655 15.068-33.655 33.655 0 18.587 15.068 33.655 33.655 33.655h167.035s-13.763-12.428-13.763-33.655S427.601 7.5 427.601 7.5z" fill="#FFF"/><path d="M427.601 82.31H260.566c-22.693 0-41.155-18.462-41.155-41.155S237.873 0 260.566 0h167.035a7.5 7.5 0 0 1 5.056 13.039c-.54.502-11.319 10.761-11.319 28.115 0 17.407 11.177 27.987 11.29 28.089a7.5 7.5 0 0 1-5.027 13.067zM260.566 15c-14.422 0-26.155 11.733-26.155 26.155s11.733 26.155 26.155 26.155h152.327c-3.477-6.531-6.555-15.362-6.555-26.155s3.078-19.624 6.555-26.155z" fill="#1E284C"/></svg></g><g transform="translate(1616.5714285714284 659.1428571428571) rotate(0.0 206.57142857142856 206.57142857142856) scale(0.8562333312805839 0.8562333312805839)"><svg width="482.512" height="482.512" viewBox="0 0 482.512 482.512"><path d="M267.692 7.5c114.5 0 207.321 92.821 207.321 207.321H267.692z" fill="#FFF"/><path d="M475.012 222.321H267.691a7.5 7.5 0 0 1-7.5-7.5V7.5a7.502 7.502 0 0 1 7.501-7.5c57.38 0 111.326 22.345 151.901 62.92 40.574 40.574 62.919 94.521 62.919 151.901a7.5 7.5 0 0 1-7.5 7.5zm-199.821-15h192.182c-3.862-104.238-87.944-188.32-192.182-192.182z" fill="#DEA2FF"/><path d="M422.141 267.692c0 114.5-92.821 207.321-207.321 207.321S7.5 382.192 7.5 267.692 100.321 60.371 214.821 60.371v207.321h207.321z" fill="#FFF"/><path d="M214.821 482.512c-57.381 0-111.327-22.345-151.901-62.919C22.345 379.018 0 325.072 0 267.691S22.345 156.364 62.919 115.79s94.52-62.92 151.901-62.92a7.5 7.5 0 0 1 7.5 7.5v199.821h199.821a7.5 7.5 0 0 1 7.5 7.5c0 57.381-22.345 111.327-62.919 151.901s-94.521 62.919-151.901 62.919zm-7.5-414.503C100.597 71.963 15 160.018 15 267.691c0 110.182 89.639 199.821 199.82 199.821 107.673 0 195.729-85.597 199.682-192.321H214.82a7.5 7.5 0 0 1-7.5-7.5V68.01z" fill="#DEA2FF"/></svg></g><g transform="translate(1001.1428571428571 252.0) rotate(-51.866347861361554 127.28571428571422 127.28571428571428) scale(0.8562692894838883 0.8562721696168494)"><svg width="297.303" height="297.302" viewBox="0 0 297.303 297.302"><path d="M284.924 207.941c-32.745 75.262-120.302 109.728-195.564 76.983C14.099 252.179-20.368 164.622 12.377 89.36c8.256-18.976 30.333-27.667 49.309-19.41 18.976 8.256 27.667 30.333 19.41 49.309-16.233 37.309.853 80.714 38.163 96.946 37.309 16.233 80.714-.853 96.946-38.163z" fill="#DEA2FF"/><path d="M207.942 12.376c74.186 32.247 109.092 118.156 77.997 193.177-7.924 19.117-29.845 28.192-48.963 20.268-19.117-7.924-28.192-29.845-20.268-48.963 15.579-37.587-2.262-80.686-39.849-96.265l31.082-68.217z" fill="#DEA2FF"/><path d="M207.941 12.377C132.68-20.368 45.122 14.099 12.378 89.36l68.719 29.898c16.233-37.309 59.637-54.395 96.946-38.163 18.976 8.257 41.053-.434 49.308-19.41 8.256-18.976-.434-41.052-19.41-49.308z" fill="#95FF80"/><path d="M74.976 148.651a73.394 73.394 0 0 1 6.121-29.392c8.256-18.976-.434-41.053-19.41-49.309-18.977-8.256-41.053.434-49.309 19.41C3.966 108.692 0 128.834.011 148.651z" fill="#DEA2FF"/></svg></g><g transform="translate(896.5714285714286 896.5714285714286) rotate(0.0 274.7142857142857 142.71428571428572) scale(0.8558317389406113 0.8560503004530897)"><svg width="641.982" height="333.425" viewBox="0 0 641.982 333.425"><g><g><path d="M615.687 7.5H249.938c-15.622 0-33.613 12.664-40.185 28.286L105.102 284.558h422.32L632.073 35.786c6.572-15.622-.765-28.286-16.387-28.286Z" style="fill:#1e284c"/><path d="M527.423 292.058H105.102a7.5 7.5 0 0 1-6.913-10.409L202.841 32.877C210.596 14.442 231.284 0 249.938 0h365.748c9.719 0 17.626 3.848 22.266 10.833 4.963 7.472 5.34 17.627 1.035 27.86L534.336 287.465a7.5 7.5 0 0 1-6.913 4.592Zm-411.028-15h406.047l102.72-244.181c2.322-5.521 2.431-10.531.297-13.744-2.27-3.416-6.566-4.133-9.771-4.133h-365.75c-12.632 0-27.869 10.851-33.271 23.693L116.395 277.057Z" style="fill:#1e284c"/></g><g><path d="M26.035 284.558h312.286v41.367H26.035c-10.237 0-18.535-8.299-18.535-18.535v-4.296c0-10.237 8.299-18.535 18.535-18.535Z" style="fill:#fff"/><path d="M338.321 333.425H26.035C11.68 333.425 0 321.745 0 307.39v-4.297c0-14.355 11.68-26.035 26.035-26.035h312.286c4.143 0 7.5 3.357 7.5 7.5v41.367c0 4.143-3.357 7.5-7.5 7.5ZM26.035 292.058c-6.085 0-11.035 4.95-11.035 11.035v4.297c0 6.085 4.95 11.035 11.035 11.035h304.786v-26.367H26.035Z" style="fill:#1e284c"/></g><g><rect x="317.638" y="284.558" width="230.469" height="41.367" rx="20.684" ry="20.684" style="fill:#fff"/><path d="M527.423 333.425H338.321c-15.54 0-28.184-12.644-28.184-28.184s12.644-28.184 28.184-28.184h189.102c15.54 0 28.184 12.644 28.184 28.184s-12.644 28.184-28.184 28.184Zm-189.102-41.367c-7.27 0-13.184 5.914-13.184 13.184s5.914 13.184 13.184 13.184h189.102c7.27 0 13.184-5.914 13.184-13.184s-5.914-13.184-13.184-13.184H338.321Z" style="fill:#1e284c"/></g></g><g><g><path d="M333.011 64.762c-44.883 0-96.573 36.384-115.453 81.267-18.881 44.882 2.198 81.267 47.08 81.267 25.706 0 53.634-11.948 76.363-30.579l-42.177-50.687 34.186-81.267Z" style="fill:#95ff80"/><path d="M380.814 89.226c-8.407-15.088-25.034-24.464-47.804-24.464l-34.186 81.267 81.99-56.803Z" style="fill:#dea2ff"/><path d="m380.814 89.226-81.99 56.803 42.177 50.687c16.956-13.899 31.023-31.511 39.09-50.687 9.302-22.112 8.888-42.15.724-56.803Z" style="fill:#dea2ff"/></g><g><path d="M421.051 204.382c-1.45 0-2.915-.42-4.206-1.296l-72.952-49.524a7.5 7.5 0 0 1 8.426-12.41l72.952 49.524a7.5 7.5 0 0 1-4.22 13.706Zm127.172-101.705h-84.382c-4.143 0-7.5-3.357-7.5-7.5s3.357-7.5 7.5-7.5h84.382c4.143 0 7.5 3.357 7.5 7.5s-3.357 7.5-7.5 7.5Z" style="fill:#fff"/><path d="M505.439 204.381h-84.382c-4.143 0-7.5-3.357-7.5-7.5s3.357-7.5 7.5-7.5h84.382c4.143 0 7.5 3.357 7.5 7.5s-3.357 7.5-7.5 7.5ZM519.7 170.48h-84.382c-4.143 0-7.5-3.357-7.5-7.5s3.357-7.5 7.5-7.5H519.7c4.143 0 7.5 3.357 7.5 7.5s-3.357 7.5-7.5 7.5Zm14.262-33.902H449.58c-4.143 0-7.5-3.357-7.5-7.5s3.357-7.5 7.5-7.5h84.382c4.143 0 7.5 3.357 7.5 7.5s-3.357 7.5-7.5 7.5Z" style="fill:#fff"/></g></g></svg></g><g transform="translate(1183.7142857142856 443.1428571428571) rotate(0.0 222.42857142857144 111.85714285714283) scale(0.8565272797337229 0.8566046075044251)"><svg width="519.373" height="261.164" viewBox="0 0 519.373 261.164"><rect fill="#FFF" height="246.023" rx="25" width="323.166" x="188.707" y="7.641"/><path d="M486.873 261.164H213.706c-17.921 0-32.5-14.58-32.5-32.5V32.641c0-17.92 14.58-32.5 32.5-32.5h273.166c17.921 0 32.5 14.58 32.5 32.5v196.023c0 17.92-14.579 32.5-32.5 32.5zM213.706 15.141c-9.649 0-17.5 7.851-17.5 17.5v196.023c0 9.649 7.851 17.5 17.5 17.5h273.166c9.649 0 17.5-7.851 17.5-17.5V32.641c0-9.649-7.851-17.5-17.5-17.5z" fill="#1E284C"/><path d="M187.799 138.153h-55.873a7.5 7.5 0 0 1-5.276-2.17L2.224 12.831A7.5 7.5 0 0 1 12.776 2.17l122.233 120.983h52.789a7.5 7.5 0 0 1 0 15z" fill="#1E284C"/><g fill="#1E284C"><path d="M472.529 199.658H278.63c-4.143 0-7.5-3.358-7.5-7.5s3.357-7.5 7.5-7.5h193.899c4.143 0 7.5 3.358 7.5 7.5s-3.357 7.5-7.5 7.5zm-233.088-20.733c-7.298 0-13.234 5.937-13.234 13.233s5.937 13.233 13.234 13.233 13.233-5.937 13.233-13.233-5.937-13.233-13.233-13.233zm233.088-40.772H278.63c-4.143 0-7.5-3.358-7.5-7.5s3.357-7.5 7.5-7.5h193.899c4.143 0 7.5 3.358 7.5 7.5s-3.357 7.5-7.5 7.5zm-233.088-20.734c-7.298 0-13.234 5.937-13.234 13.233s5.937 13.233 13.234 13.233 13.233-5.937 13.233-13.233-5.937-13.233-13.233-13.233zm233.088-40.772H278.63c-4.143 0-7.5-3.358-7.5-7.5s3.357-7.5 7.5-7.5h193.899c4.143 0 7.5 3.358 7.5 7.5s-3.357 7.5-7.5 7.5zM239.441 55.914c-7.298 0-13.234 5.937-13.234 13.233s5.937 13.233 13.234 13.233 13.233-5.937 13.233-13.233-5.937-13.233-13.233-13.233z"/></g></svg></g><g transform="translate(295.7142857142857 540.0) rotate(0.0 506.1428571428571 721.2857142857142) scale(0.8567112371715471 0.8569402058048237)"><svg width="1181.595" height="1683.398" viewBox="0 0 1181.595 1683.398"><path d="M659.373 398.895 451.167 648.348 271.75 430.578 143.07 550.799 375.034 774.55c45.821 44.199 120.73 34.895 154.347-19.17l193.232-310.771c10.214-16.427 6.885-37.854-7.832-50.408-16.558-14.125-41.462-12.015-55.408 4.694z" fill="#fff"/><path d="M444.298 810.088c-27.672 0-54.245-10.631-74.472-30.141l-231.964-223.75a7.499 7.499 0 0 1 .087-10.879l128.68-120.221a7.5 7.5 0 0 1 10.909.712l173.667 210.789 202.411-242.51c8.038-9.631 19.348-15.518 31.848-16.577 12.497-1.065 24.641 2.841 34.185 10.982 17.677 15.078 21.602 40.344 9.333 60.074L535.75 759.338c-17.225 27.702-45.67 45.896-78.042 49.917-4.483.557-8.961.832-13.41.832zM153.963 550.886l226.278 218.265c20.202 19.487 47.763 28.681 75.619 25.22 27.855-3.459 52.332-19.114 67.153-42.951l193.232-310.771c8.32-13.382 5.658-30.517-6.33-40.742-6.473-5.521-14.703-8.165-23.185-7.448-8.477.719-16.147 4.711-21.599 11.242L456.925 653.154a7.499 7.499 0 0 1-5.758 2.694h-.024a7.501 7.501 0 0 1-5.765-2.731L271.036 441.509 153.962 550.887zm505.411-151.991h.01z" fill="#1e284c"/><path d="M451.167 648.347s-14.242 25.836-15.076 40.028" fill="#fff"/><path d="M436.098 695.876a7.5 7.5 0 0 1-7.494-7.941c.908-15.44 14.454-40.412 15.996-43.209a7.5 7.5 0 0 1 13.137 7.241c-3.734 6.781-13.558 26.621-14.158 36.85a7.501 7.501 0 0 1-7.48 7.06z" fill="#1e284c"/><path d="M897.333 358.641a12.182 12.182 0 0 0-15.63-1.652l-41.134 27.892 47.853-66.618c3.38-5.658 1.648-12.978-3.909-16.521-5.008-3.193-11.345-2.074-15.577 2.094-14.305 14.091-50.835 45.582-71.424 63.174a13874.352 13874.352 0 0 0 50.864-67.446 12.068 12.068 0 0 0-18.377-15.579l-77.15 80.646-26.192 3.817 34.957-56.787c4.294-6.975 2.351-16.093-4.415-20.71a15.338 15.338 0 0 0-18.407.835s-40.655 35.111-53.799 47.268c-29.276 27.077-43.959 81.814-43.959 81.814s2.036 1.372 7.225 6.561 27.509 42.275 27.509 42.275 11.26 24.273 42.234 15.962l65.35-17.368a74.989 74.989 0 0 0 35.521-21.264l78.349-71.417c4.624-4.697 4.673-12.219.112-16.977z" fill="#fff"/><path d="M728.148 413.562s12.088-18.115-1.491-45.114l34.957-56.787c4.294-6.975 2.351-16.093-4.415-20.711a15.338 15.338 0 0 0-18.407.835s-40.655 35.111-53.799 47.268c-29.276 27.076-43.959 81.814-43.959 81.814" fill="#fff"/><path d="M641.038 428.368a7.5 7.5 0 0 1-7.249-9.444c.623-2.32 15.595-57.154 46.111-85.377 13.087-12.104 52.326-46.001 53.989-47.438l.13-.11c7.793-6.428 19.063-6.938 27.408-1.243 10.09 6.889 12.978 20.434 6.573 30.837l-32.834 53.339c12.408 28.466-.213 47.942-.78 48.793a7.498 7.498 0 0 1-10.402 2.075 7.499 7.499 0 0 1-2.114-10.342c.476-.756 9.303-15.339-1.914-37.64a7.504 7.504 0 0 1 .313-7.302l34.957-56.787a7.83 7.83 0 0 0-2.256-10.585c-2.843-1.94-6.678-1.781-9.351.381-1.968 1.7-40.898 35.347-53.535 47.033-27.311 25.259-41.667 77.728-41.808 78.255a7.506 7.506 0 0 1-7.239 5.554z" fill="#1e284c"/><path d="M793.115 372.794c22.16-29.128 44.384-58.717 55.261-73.23 3.856-5.144 3-12.407-1.943-16.516a12.067 12.067 0 0 0-16.434.938l-77.15 80.646-26.192 3.817" fill="#fff"/><path d="M793.109 380.295a7.5 7.5 0 0 1-5.964-12.041c21.952-28.854 44.025-58.24 55.229-73.188a4.564 4.564 0 0 0-.736-6.251 4.585 4.585 0 0 0-6.22.355l-77.15 80.646a7.501 7.501 0 0 1-4.338 2.237l-26.192 3.817a7.5 7.5 0 1 1-2.163-14.844l23.638-3.445 75.366-78.78c7.073-7.396 18.778-8.064 26.647-1.521 8.023 6.669 9.408 18.434 3.151 26.782-11.216 14.964-33.314 44.381-55.293 73.273a7.49 7.49 0 0 1-5.975 2.959z" fill="#1e284c"/><path d="M782.826 379.506s65.693-55.559 86.109-75.67c4.231-4.168 10.568-5.287 15.577-2.094 5.558 3.543 7.29 10.863 3.909 16.521l-67.886 94.507" fill="#fff"/><path d="M820.529 420.271a7.502 7.502 0 0 1-6.085-11.877l67.659-94.19a4.658 4.658 0 0 0-1.623-6.138c-2.161-1.376-4.712-.434-6.281 1.113-20.385 20.08-83.839 73.777-86.53 76.054a7.499 7.499 0 0 1-10.57-.884 7.5 7.5 0 0 1 .883-10.569c.655-.554 65.708-55.604 85.689-75.286 6.868-6.769 17.096-8.034 24.871-3.076 9.041 5.764 11.815 17.488 6.316 26.692a7.636 7.636 0 0 1-.347.529l-67.886 94.507a7.493 7.493 0 0 1-6.098 3.125z" fill="#1e284c"/><path d="m788.42 420.241 93.283-63.252a12.183 12.183 0 0 1 15.518 18.629l-78.348 71.417a75.005 75.005 0 0 1-35.522 21.264l-65.349 17.368c-30.974 8.31-42.234-15.963-42.234-15.963" fill="#fff"/><path d="M705.746 494.884c-20.628.002-32.808-13.455-36.783-22.023a7.5 7.5 0 0 1 3.647-9.96 7.498 7.498 0 0 1 9.96 3.647c.893 1.836 9.659 18.267 33.487 11.875l65.367-17.372a67.438 67.438 0 0 0 31.969-19.139c.136-.146.278-.286.426-.421l78.164-71.249a4.656 4.656 0 0 0-.065-6.411 4.672 4.672 0 0 0-6.007-.635l-93.283 63.252a7.497 7.497 0 0 1-10.417-1.998 7.5 7.5 0 0 1 1.999-10.417l93.283-63.252a19.627 19.627 0 0 1 25.252 2.669c7.421 7.74 7.341 19.788-.181 27.429-.095.097-.192.19-.292.281l-78.132 71.22a82.413 82.413 0 0 1-38.863 23.167l-65.35 17.368c-5.103 1.369-9.832 1.968-14.181 1.969z" fill="#1e284c"/><path d="M186.355 254.549c.771 37.165-11.334 66.444-11.334 66.444s16.852 62.425 104.839 72.068c27.058 2.965 35.537-10.585 35.537-10.585s-18.939-54.464-31.111-104.432l.022-.006c75.852-17.861 87.747-100.986 59.632-173.367-9.143-23.537-22.506-43.766-38.299-59.605-32.772-32.87-79.866-45.25-117.527-30.621-55.81 21.679-100.918 88.06-57.059 175.935 19.161 38.39 55.299 64.169 55.299 64.169z" fill="#fff"/><path d="M287.251 400.979c-2.566 0-5.298-.145-8.209-.464-47.792-5.237-75.408-25.771-90.158-42.072-16.234-17.942-20.913-34.787-21.104-35.495a7.5 7.5 0 0 1 .31-4.82c.108-.264 10.719-26.485 10.799-59.811-9.453-7.34-37.886-31.211-54.544-64.587-25.671-51.434-19.816-91.331-10.385-115.744 12.359-31.99 38.397-57.698 71.438-70.532 40.241-15.63 90.697-2.645 125.553 32.314 16.959 17.01 30.783 38.513 39.979 62.186 18.936 48.751 19.195 98.843.691 133.995-12.22 23.215-32.275 39.494-58.282 47.418 11.938 47.013 28.962 96.13 29.141 96.646a7.501 7.501 0 0 1-.726 6.441c-.407.649-9.409 14.524-34.503 14.525zm-104.267-79.811c1.699 4.586 6.654 15.943 17.565 27.805 18.907 20.552 45.866 32.877 80.128 36.632 14.866 1.631 22.672-2.311 26.152-5.009-4.724-13.955-19.69-59.148-29.831-100.778a7.501 7.501 0 0 1 5.589-9.082c25.579-6.022 44.339-20.078 55.76-41.774 16.51-31.365 15.986-76.814-1.4-121.576-8.45-21.755-21.113-41.474-36.618-57.025-30.717-30.809-74.722-42.434-109.5-28.924-29.117 11.31-52.035 33.892-62.877 61.956-11.964 30.967-8.571 66.805 9.814 103.639 18.117 36.299 52.598 61.165 52.944 61.412a7.5 7.5 0 0 1 3.143 5.95c.668 32.206-7.838 58.486-10.869 66.775z" fill="#1e284c"/><path d="M284.285 278.043c-12.761 2.943-30.223 3.075-46.624-.874" fill="#fff"/><path d="M263.7 287.699c-9.265 0-18.851-1.085-27.794-3.238a7.501 7.501 0 0 1-5.536-9.048c.97-4.026 5.02-6.5 9.047-5.536 14.155 3.409 30.701 3.736 43.182.858a7.5 7.5 0 0 1 3.372 14.615c-6.801 1.569-14.421 2.349-22.271 2.349zM196.979 197.5a7.499 7.499 0 0 1-5.205-12.9l4.058-3.91c-1.994-1.425-4.531-2.793-7.457-3.41a7.5 7.5 0 0 1 3.094-14.678c12.795 2.697 20.385 12.491 21.208 13.599a7.5 7.5 0 0 1-.816 9.874l-9.679 9.326a7.475 7.475 0 0 1-5.203 2.1z" fill="#1e284c"/><path d="M216.693 145.642c-8.672-6.004-19.74-8.486-30.833-5.951-20.954 4.789-34.059 25.658-29.27 46.612 4.649 20.342 24.452 33.282 44.775 29.641 1.167 122.177-122.641 241.891-122.641 241.891s33.883-86.95 13.746-196.127c-6.403-34.716-12.917-81.728-14.606-106.26-5.913-85.869 47.38-128.589 91.473-141.762 66.971-20.008 116.256 14.92 116.256 14.92.412 42.641-46.238 94.716-68.899 117.035z" fill="#1e284c"/><path d="M78.722 465.334a7.5 7.5 0 0 1-6.986-10.224c.329-.847 32.842-86.41 13.358-192.043-6.566-35.598-13.029-82.644-14.713-107.104-2.809-40.801 6.802-75.552 28.567-103.287 17.046-21.723 41.281-38.122 68.241-46.177 69.672-20.813 120.605 14.476 122.74 15.988a7.502 7.502 0 0 1 3.163 6.047c.452 46.838-49.597 101.236-71.135 122.451a7.502 7.502 0 0 1-9.532.822 31.505 31.505 0 0 0-24.893-4.806c-8.181 1.869-15.145 6.813-19.608 13.92s-5.891 15.527-4.021 23.709c3.743 16.378 19.618 26.885 36.141 23.93a7.5 7.5 0 0 1 8.822 7.311c.621 65.056-33.473 128.929-62.185 171.056-30.883 45.314-61.456 75.053-62.742 76.297a7.49 7.49 0 0 1-5.216 2.108zM210.821 15.06c-12.097 0-25.324 1.626-39.337 5.813-45.175 13.496-91.526 55.801-86.137 134.06 1.651 23.983 8.02 70.286 14.5 105.414 10.601 57.473 6.231 108.73.699 141.61a400.414 400.414 0 0 1-5.578 27.378c11.16-12.831 25.389-30.39 39.489-51.104 26.221-38.522 57.145-95.833 59.298-154.172-20.985-.307-39.624-14.861-44.475-36.085-2.762-12.087-.652-24.527 5.941-35.027s16.882-17.805 28.969-20.566c10.594-2.423 21.7-1.012 31.307 3.845 18.378-18.72 60.023-65.148 62.484-103.537-8.6-5.033-33.495-17.627-67.16-17.627z" fill="#1e284c"/><path d="M62.586 755.942c-.439-62.947-10.531-151.506-1.541-224.596 17.218-139.99 113.976-210.354 113.976-210.354s18.615 19.907 64.762 39.923c46.147 20.015 75.614 21.56 75.614 21.56 20.015 57.946 94.127 159.135 94.008 212.927-.168 75.599-25.147 180.834-25.147 180.834L62.587 755.943z" fill="#95ff80"/><path d="M384.261 783.736c-.158 0-.317-.005-.477-.015L62.113 763.427a7.5 7.5 0 0 1-7.028-7.433c-.137-19.629-1.223-41.843-2.374-65.359-2.51-51.303-5.354-109.45.889-160.205 9.096-73.956 40.308-128.515 64.89-161.26 26.711-35.581 51.094-53.498 52.118-54.243a7.496 7.496 0 0 1 9.889.943c.164.172 18.434 19.151 62.268 38.164 44.112 19.133 72.752 20.936 73.036 20.951a7.519 7.519 0 0 1 6.682 5.041c7.528 21.794 23.071 50.149 39.525 80.17 27.025 49.305 54.971 100.289 54.894 135.222-.168 75.6-24.322 178.218-25.35 182.55a7.502 7.502 0 0 1-7.293 5.768zm-314.26-34.841 308.36 19.454c5.246-23.518 23.401-109.476 23.543-172.964.069-31.074-28.15-82.557-53.047-127.979-15.68-28.608-30.548-55.732-38.906-77.934-10.533-1.304-36.801-5.909-73.153-21.677-34.062-14.774-53.64-29.559-62.154-36.917-8.211 6.853-25.897 22.88-44.507 47.765-23.344 31.213-52.988 83.202-61.648 153.617-6.085 49.478-3.274 106.941-.794 157.641 1.025 20.949 1.999 40.868 2.307 58.993zm736.558 846.761h-.013c-.812 0-1.612-.012-2.399-.035-33.787-.727-52.223-16.877-52.223-47.024 0 28.339 2.786 32.073 23.562 74.213 12.863 26.091 23.584 53.088 23.584 53.088h14.637l-1.643-43.648c0-36.797 35.196-33.688 38.203-33.355-12.866-2.058-27.268-3.238-43.707-3.239z" fill="#1e284c"/><path d="M813.706 1683.398h-14.637a7.5 7.5 0 0 1-6.97-4.731c-.106-.268-10.767-27.037-23.341-52.54a5447.12 5447.12 0 0 0-3.702-7.494c-17.482-35.353-20.632-41.723-20.632-70.035 0-4.143 3.358-7.5 7.5-7.5s7.5 3.357 7.5 7.5c0 25.587 15.101 38.885 44.884 39.525.776.022 1.502.033 2.238.033h.014c16.191 0 30.875 1.091 44.891 3.332a7.5 7.5 0 0 1 6.248 8.41c-.545 4.035-4.212 6.887-8.256 6.451-.581-.063-14.331-1.484-22.728 6.034-4.721 4.229-7.127 10.867-7.152 19.729l1.638 43.503a7.497 7.497 0 0 1-7.494 7.782zm-9.587-15h1.8l-1.35-35.866a8.84 8.84 0 0 1-.005-.282c0-12.165 3.378-21.903 10.05-28.996a327.323 327.323 0 0 0-8.054-.098h-.013a90.35 90.35 0 0 1-2.623-.038c-13.179-.283-24.374-2.783-33.415-7.45 2.205 4.61 4.842 9.941 7.994 16.315 1.168 2.362 2.404 4.86 3.71 7.511 9.671 19.615 18.223 39.938 21.906 48.904z" fill="#1e284c"/><path d="m929.349 1628.827 16.736 9.286a160.687 160.687 0 0 0 77.961 20.179h149.913a49.347 49.347 0 0 0-28.453-44.919c-32.203-15.052-90.176-43.178-140.31-80.442-84.633-62.908-42.128-77.466-89.846-122.604-41.143-38.919 19.83-45.22-44.664-94.147-11.625-11.459 2.924-11.555-21.722-60.685H597.605s56.169 53.061 57.962 89.365c3.336 67.552 60.982 53.233 57.136 90.351s35.002 36.218 39.968 48.2-.746 37.928-.746 65.187c0 30.855 19.303 47.059 54.622 47.059 60.372 0 93.432 15.815 122.809 33.176l-.006-.005z" fill="#fff"/><g fill="#1e284c"><path d="M1173.959 1665.793h-149.913c-28.48 0-56.697-7.304-81.601-21.122l-16.597-9.209a6.762 6.762 0 0 1-.31-.173c-27.511-16.259-59.361-32.133-118.993-32.133-19.477 0-34.762-4.63-45.432-13.76-11.075-9.478-16.69-23.204-16.69-40.799 0-10.622.845-21.084 1.591-30.313 1.09-13.488 2.119-26.228-.274-32.001-.766-1.42-6.106-3.957-9.64-5.636-12.707-6.038-33.975-16.144-30.859-46.21 1.155-11.146-4.412-15.178-17.114-23.232-16.03-10.166-37.984-24.089-40.052-65.975-1.347-27.273-40.608-70.089-55.623-84.284a7.5 7.5 0 0 1 5.151-12.952h251.359a7.5 7.5 0 0 1 6.704 4.137c14.919 29.739 16.125 42.697 16.846 50.439.426 4.574.495 5.318 3.107 7.939 36.019 27.441 36.258 43.57 32.823 61.788-1.967 10.43-3.388 17.966 12.061 32.58 21.406 20.249 26.005 35.188 30.452 49.637 5.642 18.33 11.476 37.285 58.714 72.396 47.724 35.474 102.192 62.457 139.012 79.668 20.004 9.349 32.87 29.66 32.777 51.744a7.5 7.5 0 0 1-7.5 7.469zm-240.922-43.497 16.687 9.26a153.563 153.563 0 0 0 74.323 19.237h141.768c-2.361-13.247-11.049-24.813-23.484-30.624-37.411-17.487-92.792-44.933-141.608-81.218-51.181-38.043-58.045-60.346-64.102-80.023-4.231-13.745-7.885-25.615-26.423-43.152-21.399-20.242-18.679-34.666-16.493-46.257 2.343-12.422 4.366-23.15-27.55-47.362a7.241 7.241 0 0 1-.732-.635c-6.836-6.738-7.303-11.753-7.843-17.561-.59-6.341-1.557-16.729-13.279-40.966H615.458c17.311 18.646 46.231 53.753 47.602 81.495 1.685 34.122 17.658 44.251 33.104 54.047 12.263 7.777 26.162 16.592 24 37.447-2.023 19.521 9.829 25.152 22.377 31.114 7.357 3.496 14.306 6.798 17.06 13.441 3.778 9.116 2.714 22.283 1.368 38.952-.723 8.947-1.542 19.088-1.542 29.105 0 26.249 15.854 39.559 47.122 39.559 63.319 0 97.223 16.853 126.49 34.14z"/><path d="M1024.046 1658.292h149.912l.136 17.606h-136.8c-28.47 0-56.198-9.084-79.148-25.932l-28.798-21.139 16.736 9.286a160.688 160.688 0 0 0 77.962 20.179z"/><path d="M1174.095 1683.398h-136.8c-30.275 0-59.179-9.47-83.586-27.386l-28.798-21.14a7.5 7.5 0 0 1 8.077-12.604l16.736 9.286a153.563 153.563 0 0 0 74.323 19.237h149.912a7.5 7.5 0 0 1 7.5 7.442l.136 17.605a7.5 7.5 0 0 1-7.5 7.558zm-165.888-18.357a126.73 126.73 0 0 0 29.088 3.357h129.242l-.021-2.605h-142.47a167.66 167.66 0 0 1-15.84-.752zm-659.718-42.231c-20.776-42.14-23.561-55.834-23.561-74.213 1.977 20.447 12.392 47.059 54.622 47.059 27.963 0 43.929 3.263 43.929 3.263s-38.412-5.108-38.412 33.331l1.643 43.648h-14.637s-10.721-26.998-23.584-53.088z"/><path d="M386.71 1683.398h-14.637a7.5 7.5 0 0 1-6.97-4.731c-.106-.268-10.767-27.037-23.341-52.54-20.953-42.499-24.334-57.663-24.334-77.529a7.5 7.5 0 0 1 7.139-7.491c3.993-.176 7.441 2.786 7.827 6.77 2.621 27.104 18.046 40.28 47.157 40.28 28.395 0 44.749 3.276 45.431 3.416 3.959.809 6.565 4.609 5.894 8.594s-4.373 6.731-8.385 6.188c-.109-.015-14.073-1.65-22.674 5.944-4.786 4.228-7.224 10.894-7.249 19.815l1.638 43.502a7.497 7.497 0 0 1-7.494 7.782zm-9.587-15h1.8l-1.35-35.866a8.84 8.84 0 0 1-.005-.282c0-12.172 3.379-21.909 10.052-28.998a333.74 333.74 0 0 0-8.069-.096c-14.268 0-26.322-2.893-35.923-8.471 3.004 6.965 6.799 15.093 11.59 24.809 9.671 19.615 18.223 39.938 21.906 48.904z"/></g><path d="M718.51 1613.373c-32.203-15.052-150.874-61.539-170.889-109.91-16.933-40.922 26.349-22.877 16.447-93.961-10.108-72.566 40.765-40.874 21.86-154.008H387.943l-23.719 91.181c-11.999 46.128 12.377 34.74-13.198 71.435-13.611 19.53-13.815 42.097-6.513 54.171a23.062 23.062 0 0 1 .042 23.779c-10.988 18.342-19.626 34.219-19.626 52.536 1.977 20.446 12.392 47.056 54.616 47.058h.019c27.955.001 43.916 3.263 43.916 3.263s-.075-.01-.209-.025c34.376 5.498 57.714 17.305 79.089 29.937l-.006-.005 16.736 9.286a160.687 160.687 0 0 0 77.961 20.179h149.913a49.347 49.347 0 0 0-28.453-44.919z" fill="#fff"/><path d="M746.962 1665.793H597.049c-28.48 0-56.697-7.304-81.6-21.122l-16.604-9.213a7.513 7.513 0 0 1-.303-.169c-18.812-11.117-41.785-23.442-76.458-28.988a7.466 7.466 0 0 1-.659-.136c-2.983-.539-17.958-3.008-41.864-3.009-36.696-.003-58.743-19.122-62.1-53.837a7.538 7.538 0 0 1-.035-.722c0-20.206 9.371-37.493 20.693-56.391a15.523 15.523 0 0 0-.026-16.044c-8.466-14-8.856-39.908 6.778-62.34 12.316-17.672 11.543-21.407 10.002-28.849-1.564-7.557-3.706-17.906 2.09-40.187l23.719-91.181a7.498 7.498 0 0 1 7.258-5.612h197.985a7.5 7.5 0 0 1 7.397 6.264c11.05 66.129-1.17 85.586-11.952 102.753-7.794 12.41-13.951 22.212-9.877 51.456 5.764 41.382-5.706 55.656-14.081 66.078-6.184 7.695-9.006 11.208-2.865 26.051 16.295 39.38 110.481 80.897 150.7 98.626 6.56 2.892 12.226 5.39 16.435 7.356 20.004 9.35 32.87 29.661 32.777 51.745a7.5 7.5 0 0 1-7.5 7.469zM506.046 1622.3l16.681 9.255a153.553 153.553 0 0 0 74.323 19.238h141.768c-2.361-13.247-11.049-24.813-23.484-30.624-4.059-1.897-9.654-4.364-16.133-7.22-48.897-21.555-139.914-61.675-158.51-106.618-8.854-21.396-3.499-30.564 5.033-41.182 7.399-9.208 15.787-19.646 10.917-54.611-4.828-34.661 3.743-48.308 12.031-61.505 9.471-15.078 19.252-30.649 10.859-86.038H393.743l-22.26 85.569c-4.914 18.892-3.253 26.92-1.918 33.37 2.246 10.849 2.849 18.607-12.385 40.465-11.848 16.999-12.062 36.389-6.248 46.002a30.494 30.494 0 0 1 .058 31.515c-10.44 17.426-18.443 32.069-18.559 48.324 2.724 26.854 18.14 39.914 47.115 39.916 28.406 0 44.754 3.276 45.436 3.416l.037.007c33.161 5.384 56.406 16.18 81.029 30.721z" fill="#1e284c"/><path d="M597.05 1658.292h149.912l.136 17.606h-136.8c-28.47 0-56.198-9.084-79.148-25.932l-28.798-21.139 16.736 9.286a160.688 160.688 0 0 0 77.962 20.179z" fill="#1e284c"/><path d="M747.098 1683.398H610.299c-30.275 0-59.179-9.47-83.586-27.386l-28.798-21.14a7.5 7.5 0 0 1 8.077-12.604l16.736 9.286a153.563 153.563 0 0 0 74.323 19.237h149.913a7.5 7.5 0 0 1 7.5 7.442l.136 17.605a7.5 7.5 0 0 1-7.5 7.558zm-165.887-18.357a126.724 126.724 0 0 0 29.088 3.357H739.54l-.02-2.605H597.05a167.64 167.64 0 0 1-15.839-.752z" fill="#1e284c"/><path d="m848.964 1255.495-128.04-255.239c-32.429-64.646-94.561-109.223-166.188-119.236L367.93 854.907l16.326-78.672-321.671-20.293L15.494 909.89c-35.433 115.836 51.361 232.899 172.495 232.651l229.458-.469-53.225 204.602 484.74-91.181z" fill="#dea2ff"/><path d="M364.223 1354.176a7.498 7.498 0 0 1-7.257-9.389l50.777-195.194-219.738.449h-.399c-59.988 0-114.86-27.622-150.602-75.828C1.184 1025.902-9.27 965.209 8.322 907.697l47.091-153.949a7.517 7.517 0 0 1 7.644-5.292l321.671 20.294a7.502 7.502 0 0 1 6.871 9.01l-14.698 70.828 178.873 25.004c74.073 10.354 138.317 56.448 171.853 123.3l128.04 255.239a7.499 7.499 0 0 1-5.317 10.734l-484.74 91.182a7.483 7.483 0 0 1-1.387.129zm53.225-219.603a7.503 7.503 0 0 1 7.259 9.388l-50.247 193.157 463.339-87.156-123.578-246.345c-31.325-62.444-91.333-105.499-160.522-115.171l-186.805-26.112a7.504 7.504 0 0 1-5.094-3.108 7.507 7.507 0 0 1-1.212-5.844l14.57-70.207-307.131-19.376-45.359 148.284c-16.185 52.911-6.567 108.749 26.387 153.196 32.88 44.347 83.368 69.762 138.553 69.762h.367l229.459-.469h.015z" fill="#1e284c"/><path d="M504.478 1149.574h-87.029c-4.142 0-7.5-3.357-7.5-7.5s3.358-7.5 7.5-7.5h87.029c4.142 0 7.5 3.357 7.5 7.5s-3.358 7.5-7.5 7.5z" fill="#1e284c"/><path d="m367.931 854.908-104.65-14.629" fill="#ff8d61"/><path d="M367.94 862.409c-.346 0-.695-.024-1.047-.073l-104.65-14.629a7.5 7.5 0 0 1-6.39-8.466 7.5 7.5 0 0 1 8.466-6.39l104.65 14.629a7.502 7.502 0 0 1-1.029 14.929z" fill="#1e284c"/><ellipse cx="212.135" cy="532.734" fill="#fff" rx="113.237" ry="128.969"/><path d="M212.136 669.203c-66.574 0-120.737-61.22-120.737-136.469s54.162-136.47 120.737-136.47 120.737 61.22 120.737 136.47-54.162 136.469-120.737 136.469zm0-257.938c-58.303 0-105.737 54.491-105.737 121.47s47.433 121.469 105.737 121.469 105.737-54.49 105.737-121.469-47.433-121.47-105.737-121.47z" fill="#1e284c"/><path d="M150.54 541.846h-.006l92.6 344.712c3.822 21.411 17.908 40.584 39.324 49.971 21.255 9.316 44.707 6.79 62.982-4.688l.002.004 351.565-220.804c18.098-11.367 22.744-35.705 10.105-52.939-9.582-13.065-26.58-18.328-41.868-12.964l-38.824 13.623-266.471 95.545-37.161-248.989-.028-.186-.01-.069h-.001" fill="#fff"/><path d="M309.515 949.703a74.843 74.843 0 0 1-30.067-6.305c-22.851-10.015-39.143-30.632-43.638-55.196l-92.518-344.409a7.504 7.504 0 1 1 14.541-3.69l92.546 344.511c.056.207.103.416.14.628 3.528 19.769 16.595 36.374 34.951 44.419 18.199 7.974 39.126 6.418 55.983-4.17.074-.046.148-.091.224-.135L693.021 704.69c6.969-4.377 11.657-11.239 13.2-19.324 1.543-8.084-.288-16.19-5.155-22.827-7.683-10.477-21.081-14.627-33.337-10.322l-38.824 13.622-266.423 95.528a7.494 7.494 0 0 1-6.382-.624 7.494 7.494 0 0 1-3.567-5.328l-37.161-248.989 7.393-1.274-7.414 1.137c0-.009-.016-.104-.017-.112a7.499 7.499 0 0 1 6.305-8.529c4.097-.61 7.915 2.208 8.529 6.305l.031.205 35.82 240.008 257.871-92.462 38.872-13.64c18.53-6.502 38.785-.23 50.399 15.605 7.251 9.888 10.092 22.467 7.793 34.511-2.299 12.045-9.573 22.693-19.957 29.215L349.432 938.2a7.091 7.091 0 0 1-.237.143 75.023 75.023 0 0 1-39.68 11.363z" fill="#1e284c"/><path d="M312.093 842.477a7.5 7.5 0 0 1-7.381-8.875c.497-2.664 12.61-65.474 51.763-85.942a7.5 7.5 0 1 1 6.949 13.293c-32.764 17.129-43.858 74.817-43.966 75.397a7.503 7.503 0 0 1-7.365 6.127z" fill="#1e284c"/><path d="M904.292 598.691c-1.65-6.213-7.88-10.043-14.169-8.707-35.483 7.536-144.76 30.897-176.683 39.518-38.294 10.342-87.02 29.259-87.02 29.259l6.835 52.148s11.134 13.229 23.893 19.475c0 0 37.641 22.243 116.899-11.06l112.63-4.118a12.182 12.182 0 0 0 11.631-10.571c.867-6.533-3.62-12.572-10.125-13.627l-3.428-.367c7.25-.517 13.588-.887 18.348-1.03 5.937-.177 11.125-3.984 12.279-9.81 1.281-6.465-2.813-12.776-9.239-14.243l-115.221-16.255 105.608-36.094a12.066 12.066 0 0 0 7.76-14.516z" fill="#fff"/><path d="m790.924 649.302 105.608-36.094a12.068 12.068 0 0 0-6.408-23.223c-35.483 7.536-144.761 30.897-176.683 39.518-38.294 10.342-87.02 29.259-87.02 29.259" fill="#fff"/><path d="M626.422 666.262a7.503 7.503 0 0 1-6.994-4.788 7.5 7.5 0 0 1 4.277-9.705c.491-.191 49.541-19.182 87.778-29.508 32.298-8.723 143.706-32.526 177.081-39.613 10.205-2.175 20.297 4.033 22.976 14.118 2.626 9.89-2.901 20.229-12.583 23.538L793.35 656.398c-3.921 1.343-8.184-.751-9.523-4.671s.752-8.184 4.671-9.522l105.607-36.094a4.584 4.584 0 0 0 2.938-5.495 4.567 4.567 0 0 0-5.361-3.296c-33.283 7.068-144.355 30.799-176.287 39.422-37.456 10.116-85.777 28.822-86.261 29.01a7.467 7.467 0 0 1-2.712.511z" fill="#1e284c"/><path d="M788.902 699.545s85.556-9.079 114.202-9.935c5.937-.177 11.125-3.984 12.279-9.811 1.281-6.465-2.813-12.776-9.238-14.243l-115.221-16.255" fill="#fff"/><path d="M788.893 707.047a7.501 7.501 0 0 1-.782-14.959c3.505-.372 86.168-9.119 114.77-9.975 2.203-.065 4.648-1.257 5.146-3.771a4.658 4.658 0 0 0-3.314-5.414l-114.836-16.2c-4.102-.579-6.957-4.373-6.378-8.475s4.368-6.956 8.474-6.379l115.221 16.255c.208.029.416.068.621.115 10.454 2.386 17.01 12.494 14.926 23.013-1.791 9.044-9.774 15.563-19.413 15.85-28.033.838-112.781 9.806-113.634 9.896a7.735 7.735 0 0 1-.801.043z" fill="#1e284c"/><path d="M633.255 710.908s11.134 13.229 23.893 19.475c0 0 37.642 22.243 116.9-11.06l112.63-4.118a12.182 12.182 0 0 0 11.631-10.571c.867-6.533-3.619-12.572-10.125-13.627l-105.41-11.296" fill="#fff"/><path d="M694.833 745.15c-25.268 0-38.831-6.828-41.183-8.13-13.931-6.897-25.639-20.696-26.132-21.283a7.5 7.5 0 0 1 11.472-9.664c.102.12 10.32 12.122 21.457 17.574.176.086.349.18.518.279.294.166 36.115 19.603 110.179-11.518a7.47 7.47 0 0 1 2.631-.581l112.63-4.117a4.672 4.672 0 0 0 4.47-4.063 4.658 4.658 0 0 0-3.737-5.21l-105.162-11.269a7.5 7.5 0 0 1-6.659-8.256c.442-4.118 4.146-7.096 8.256-6.658l105.41 11.295c.135.014.269.032.402.054 10.584 1.718 17.77 11.389 16.358 22.019a19.634 19.634 0 0 1-18.791 17.079l-111.271 4.067c-34.245 14.217-61.117 18.382-80.85 18.382z" fill="#1e284c"/></svg></g><g transform="translate(189.42857142857142 1054.2857142857142) rotate(0.0 297.4285714285714 462.42857142857144) scale(0.8566996940446409 0.8567307688490363)"><svg width="694.359" height="1079.519" viewBox="0 0 694.359 1079.519"><path d="m101.287 1050.063 127.338-458.415h71.722l-166.045 468.833a17.32 17.32 0 0 1-16.326 11.538c-11.454 0-19.754-10.919-16.688-21.956z" fill="#FFF"/><path d="M117.975 1079.519c-7.824 0-15.026-3.572-19.76-9.801s-6.249-14.124-4.155-21.662l127.337-458.415a7.5 7.5 0 0 1 7.226-5.493h71.722a7.502 7.502 0 0 1 7.07 10.004L141.37 1062.985c-3.503 9.889-12.905 16.534-23.396 16.534zm-16.688-29.456 7.226 2.007c-.828 2.982-.229 6.106 1.644 8.571s4.723 3.877 7.818 3.877a9.837 9.837 0 0 0 9.257-6.542l162.502-458.829h-55.409l-125.812 452.922-7.226-2.007z" fill="#1E284C"/><path d="M686.217 1050.063 558.879 591.648h-71.722l166.045 468.833a17.32 17.32 0 0 0 16.326 11.538c11.454 0 19.754-10.919 16.688-21.956z" fill="#FFF"/><path d="M669.529 1079.519c-10.491 0-19.894-6.645-23.396-16.534L480.088 594.152a7.5 7.5 0 0 1 7.07-10.004h71.722a7.5 7.5 0 0 1 7.226 5.493l127.338 458.415c2.094 7.539.579 15.434-4.155 21.663-4.734 6.228-11.936 9.8-19.76 9.8zM497.77 599.148l162.502 458.829a9.836 9.836 0 0 0 9.257 6.542c3.095 0 5.945-1.413 7.818-3.877s2.472-5.588 1.644-8.571L553.179 599.149h-55.408z" fill="#1E284C"/><path d="m429.802 453.824 197.045-24.574c28.678-3.576 51.568 23.506 43.263 51.187l-17.199 57.329c-9.107 30.357-35.276 52.475-66.726 56.397l-306.753 38.255c-64.696 8.068-125.399-32.914-142.101-95.935L8.662 50.964c-4.727-17.833 5.373-36.238 22.955-41.83 17.095-5.437 35.511 3.095 42.416 19.652L194.3 317.163c38.9 93.274 135.218 149.167 235.502 136.661z" fill="#FFF"/><path d="M263.295 640.92a137.79 137.79 0 0 1-77.108-23.596 137.797 137.797 0 0 1-56.106-78.921L1.412 52.886C-4.347 31.157 7.922 8.8 29.343 1.987c20.958-6.668 43.146 3.614 51.611 23.912l120.267 288.377c37.462 89.825 131.077 144.149 227.652 132.105l.928 7.442-.928-7.442 197.045-24.574c15.996-1.992 31.752 4.164 42.156 16.473 10.404 12.31 13.85 28.875 9.219 44.312l-17.199 57.329c-9.955 33.184-38.602 57.396-72.981 61.684L280.36 639.86a138.167 138.167 0 0 1-17.065 1.061zM42.215 14.979a27.43 27.43 0 0 0-8.325 1.302c-13.788 4.386-21.685 18.776-17.978 32.762l128.67 485.518c15.666 59.113 73.244 97.98 133.923 90.415l306.753-38.255c28.485-3.553 52.221-23.614 60.47-51.11l17.199-57.329a32.39 32.39 0 0 0-6.308-30.318c-7.118-8.422-17.9-12.633-28.844-11.271L430.73 461.267c-50.844 6.338-101.145-3.901-145.462-29.618s-78.167-64.307-97.89-111.598L67.11 31.672C62.78 21.29 52.871 14.979 42.215 14.979z" fill="#1E284C"/></svg></g><g transform="translate(809.1428571428571 1170.857142857143) rotate(0.0 777.4285714285714 404.1428571428571) scale(0.8567607626241345 0.8567340233035288)"><svg width="1814.809" height="943.45" viewBox="0 0 1814.809 943.45"><g><rect x="7.5" y="7.5" width="1799.809" height="77.714" rx="38.857" ry="38.857" style="fill:#fff"/><path d="M1768.451 92.714H46.357C20.796 92.714 0 71.919 0 46.357S20.796 0 46.357 0h1722.094c25.561 0 46.357 20.796 46.357 46.357s-20.796 46.357-46.357 46.357ZM46.357 15C29.067 15 15 29.067 15 46.357s14.067 31.357 31.357 31.357h1722.094c17.29 0 31.357-14.067 31.357-31.357S1785.741 15 1768.451 15H46.357Z" style="fill:#1e284c"/></g><g><g><path d="M45.283 909.268 274.187 85.214h107.554L85.405 921.928a21.05 21.05 0 0 1-19.841 14.022c-13.92 0-24.006-13.27-20.281-26.682Z" style="fill:#fff"/><path d="M65.564 943.45c-8.999 0-17.283-4.109-22.728-11.273s-7.188-16.246-4.779-24.916L266.96 83.208a7.5 7.5 0 0 1 7.227-5.493h107.554a7.5 7.5 0 0 1 7.07 10.004L92.475 924.432c-4.029 11.375-14.844 19.018-26.911 19.018Zm-20.281-34.183 7.226 2.008a13.446 13.446 0 0 0 2.268 11.825 13.447 13.447 0 0 0 10.786 5.35 13.572 13.572 0 0 0 12.771-9.025L371.128 92.714h-91.241L52.509 911.275l-7.226-2.008Z" style="fill:#1e284c"/></g><g><path d="M1769.526 909.268 1540.622 85.215h-107.554l296.336 836.714a21.05 21.05 0 0 0 19.841 14.022c13.92 0 24.006-13.27 20.281-26.682Z" style="fill:#fff"/><path d="M1749.245 943.45c-12.067 0-22.882-7.643-26.911-19.018L1425.998 87.718a7.5 7.5 0 0 1 7.07-10.004h107.554a7.5 7.5 0 0 1 7.227 5.493l228.904 824.053c2.408 8.67.667 17.752-4.779 24.916-5.446 7.164-13.73 11.273-22.729 11.273ZM1443.68 92.714l292.793 826.71a13.572 13.572 0 0 0 12.771 9.025c4.271 0 8.202-1.95 10.786-5.35a13.446 13.446 0 0 0 2.268-11.825L1534.92 92.713h-91.241Z" style="fill:#1e284c"/></g></g></svg></g><g transform="translate(1782.8571428571427 166.28571428571428) rotate(0.0 514.2857142857142 906.4285714285714) scale(0.8552833286391741 0.8558794738249935)"><svg width="1202.609" height="2118.122" viewBox="0 0 1202.609 2118.122"><path d="m238.801 943.808-94.815 19.101a50.007 50.007 0 0 0-25.573 9.651l-43.962 32.578a75.22 75.22 0 0 0-20.031 19.117l-44.712 60.198c-3.656 5.081-2.675 12.138 2.227 16.031a11.725 11.725 0 0 0 15.7-1.01l60.761-54.458 35.148-22.264 7.856 32.597-87.096 77.165c-4.548 4.77-4.477 12.293.161 16.976a12.155 12.155 0 0 0 15.043 1.78 115816.37 115816.37 0 0 1 67.951-42.072 61.044 61.044 0 0 1 20.306-7.98l44.122-8.708a96.021 96.021 0 0 0 50.42-27.441l24.882-25.721a73.079 73.079 0 0 1 12.478-10.319l11.103-7.274-51.97-77.947z" fill="#fff"/><path d="M53.082 1160.62c-5.095 0-10.129-1.996-13.947-5.852-7.544-7.62-7.658-19.667-.259-27.428.145-.152.297-.299.455-.438l83.722-74.176-4.345-18.03-25.771 16.324-60.127 53.89a19.167 19.167 0 0 1-25.539 1.45c-8.051-6.394-9.655-17.939-3.651-26.284l.067-.092 44.68-60.155a82.375 82.375 0 0 1 21.798-20.846l43.783-32.445a57.454 57.454 0 0 1 28.965-11.06l94.408-19.019a7.498 7.498 0 0 1 7.721 3.191l51.97 77.947a7.502 7.502 0 0 1-2.13 10.434l-11.103 7.274a65.68 65.68 0 0 0-11.197 9.26l-24.882 25.721c-14.749 15.247-33.546 25.477-54.358 29.584l-44.122 8.708a53.373 53.373 0 0 0-17.812 7 112541.583 112541.583 0 0 0-67.945 42.068 19.649 19.649 0 0 1-10.378 2.976zm-3.513-22.749a4.656 4.656 0 0 0 .226 6.343 4.632 4.632 0 0 0 5.761.682c17.795-11.034 51.549-31.922 67.958-42.076a68.325 68.325 0 0 1 22.801-8.959l44.122-8.708c17.797-3.513 33.87-12.261 46.482-25.298l24.883-25.721a80.658 80.658 0 0 1 13.758-11.377l4.779-3.131-44.985-67.471-89.885 18.107a7.405 7.405 0 0 1-.852.122 42.473 42.473 0 0 0-21.737 8.204l-43.962 32.578a7.57 7.57 0 0 1-.375.26 67.458 67.458 0 0 0-18.034 17.21l-.067.092-44.67 60.141a4.221 4.221 0 0 0 .828 5.743 4.214 4.214 0 0 0 5.658-.364 6.95 6.95 0 0 1 .372-.357l60.761-54.458a7.47 7.47 0 0 1 .992-.751l35.148-22.264a7.5 7.5 0 0 1 11.305 4.578l7.856 32.597a7.5 7.5 0 0 1-2.318 7.371l-86.805 76.908zm94.417-174.961h.01z" fill="#1e284c"/><path d="m131.4 1055.349-98.64 76.515a12.067 12.067 0 0 1-16.4-1.407c-4.309-4.77-4.123-12.081.424-16.625l71.612-68.816" fill="#fff"/><path d="M25.348 1141.917c-5.371 0-10.716-2.185-14.554-6.433-6.994-7.742-6.692-19.583.688-26.958l.105-.102 71.613-68.815a7.5 7.5 0 0 1 10.393 10.815l-71.547 68.753a4.564 4.564 0 0 0-.121 6.252 4.582 4.582 0 0 0 6.208.533l98.671-76.539a7.498 7.498 0 0 1 10.523 1.33 7.5 7.5 0 0 1-1.329 10.523l-98.64 76.515c-3.534 2.771-7.78 4.126-12.009 4.126z" fill="#1e284c"/><path d="M199.299 1036.971c-14.396 20.261-43.878 20.33-43.878 20.33l-47.809 21.803c-7.922 2.08-16.081-2.432-18.532-10.247a15.339 15.339 0 0 1 6.152-17.369l60.015-60.911a42.37 42.37 0 0 1 30.181-12.633c23.72 0 42.819 19.471 42.362 43.187-.262 13.582-14.408 22.405-26.721 16.666l-1.77-.825z" fill="#fff"/><path d="M103.684 1087.115a22.812 22.812 0 0 1-21.76-16.014c-2.937-9.366.537-19.672 8.457-25.375l48.358-49.081a7.5 7.5 0 0 1 10.685 10.527l-48.849 49.579a7.457 7.457 0 0 1-1.194.984 7.877 7.877 0 0 0-3.144 8.877 7.827 7.827 0 0 0 8.946 5.356l47.127-21.491a7.496 7.496 0 0 1 3.094-.676c.238-.002 25.855-.389 37.782-17.174a7.5 7.5 0 1 1 12.228 8.688c-14.477 20.375-41.145 23.075-48.244 23.432l-46.445 21.181a7.52 7.52 0 0 1-1.208.431 22.973 22.973 0 0 1-5.832.756z" fill="#1e284c"/><path d="m548.653 411.828-11.545 301.515-298.307 230.466 72.548 108.811 304.509-160.087c56.313-29.605 94.072-85.431 100.587-148.717l34.179-331.987H548.652z" fill="#fff"/><path d="M311.354 1060.12a7.498 7.498 0 0 1-6.245-3.34l-72.548-108.811a7.501 7.501 0 0 1 1.655-10.096l295.531-228.322 11.411-298.011a7.5 7.5 0 0 1 7.495-7.213h201.972a7.497 7.497 0 0 1 7.46 8.268l-34.179 331.987c-6.79 65.948-45.876 123.737-104.558 154.587l-304.509 160.087a7.48 7.48 0 0 1-3.485.862zm-62.432-114.653 64.919 97.369 298.528-156.943c54.225-28.507 90.343-81.907 96.617-142.846l33.328-323.719H555.872L544.603 713.63a7.502 7.502 0 0 1-2.909 5.648zm288.186-232.125h.01z" fill="#1e284c"/><path d="M537.108 713.343s0 39.485 23.091 70.285" fill="#f7e5c6"/><path d="M560.204 791.129a7.49 7.49 0 0 1-6.007-3.001c-24.311-32.427-24.59-73.07-24.59-74.785a7.5 7.5 0 0 1 15-.01c0 .371.349 37.461 21.592 65.797a7.501 7.501 0 0 1-5.995 12zm-15.597-77.786h.01z" fill="#1e284c"/><path d="M748.16 1872.939c11.638-28.234 20.609-10.902 35.931 13.358 17.591 27.852 154.406 47.837 154.406 47.837s19.193 93.786 7.985 176.489H461.846v-53.465c0-30.564 16.403-61.547 45.357-71.336 63.018-21.306 215.176-50.334 240.957-112.883z" fill="#dea2ff"/><path d="M946.482 2118.122H461.846a7.5 7.5 0 0 1-7.5-7.5v-53.465c0-16.743 4.581-33.553 12.9-47.334 9.133-15.132 22.12-25.888 37.555-31.107 12.869-4.351 28.922-8.883 47.51-14.132 67.582-19.082 169.713-47.919 188.915-94.504 3.511-8.518 8.73-18.395 18.005-19.179 10.937-.927 18.309 10.826 28.501 27.092.878 1.401 1.778 2.837 2.7 4.297 2.812 4.452 16.154 16.39 79.16 31.063 35.684 8.311 69.65 13.308 69.989 13.357a7.502 7.502 0 0 1 6.264 5.918c.794 3.88 19.318 95.989 8.069 179a7.5 7.5 0 0 1-7.432 6.493zm-477.136-15h470.518c7.844-67.943-4.167-142.496-7.754-162.386-11.087-1.759-38.001-6.271-65.919-12.772-75.802-17.654-85.314-32.713-88.439-37.663-.933-1.476-1.842-2.927-2.729-4.343-4.751-7.582-11.154-17.801-14.475-19.861-.841.805-2.764 3.177-5.453 9.699-21.979 53.324-124.124 82.165-198.707 103.224-18.391 5.193-34.274 9.678-46.781 13.906-23.704 8.014-40.259 34.427-40.259 64.231v45.965z" fill="#1e284c"/><path d="M946.478 2110.621h-484.63v-53.46h488.12l.01.04" fill="#fff"/><path d="M946.479 2118.121h-484.63a7.5 7.5 0 0 1-7.5-7.5v-53.46a7.5 7.5 0 0 1 7.5-7.5h488.12a7.501 7.501 0 0 1 7.266 5.639c1.027 4.013-1.387 8.119-5.4 9.146a7.536 7.536 0 0 1-2.463.214H469.349v38.46h477.13a7.5 7.5 0 0 1 0 15zm-306.253-111.196a7.497 7.497 0 0 1-4.672-1.632l-48.283-38.436a7.5 7.5 0 0 1 9.343-11.735l39.064 31.098 11.483-47.912a7.501 7.501 0 0 1 10.509-5.028l52.273 24.802-2.414-48.029a7.5 7.5 0 0 1 7.988-7.86l60.863 4.047c4.133.275 7.261 3.848 6.986 7.981s-3.856 7.258-7.981 6.986l-52.452-3.488 2.621 52.141a7.501 7.501 0 0 1-10.705 7.153l-55.255-26.217-12.075 50.378a7.5 7.5 0 0 1-7.293 5.752z" fill="#1e284c"/><path d="M1040.214 890.343s55.566 131.408 15.521 293.304c-40.044 161.896-86.336 374.674-86.336 374.674s29.8 125.774 22.657 173.071-12.371 53.377-6.309 113.498 2.071 90.23-42.94 114.898c-93.409-36.139-211.671-5.199-240.187-42.271-21.705-28.218-10.782-133.361 9.258-177.954 20.039-44.593-11.116-81.676-20.885-134.41-9.77-52.734 17.467-128.897 8.162-190.981-4.279-28.55-10.312-457.307-10.312-457.307l351.37-66.522z" fill="#95ff80"/><path d="M942.809 1967.287a7.493 7.493 0 0 1-2.706-.505c-44.511-17.221-94.745-18.799-139.065-20.193-48.961-1.539-87.634-2.754-104.36-24.5-14.995-19.494-14.306-63.466-12.562-87.942 2.67-37.462 10.688-74.883 20.923-97.659 12.121-26.973 3.73-50.561-6.893-80.425-5.487-15.424-11.16-31.372-14.526-49.545-5.047-27.241-.8-59.282 3.696-93.205 4.411-33.276 8.971-67.685 4.423-98.03-4.305-28.72-10.147-440.786-10.395-458.313a7.5 7.5 0 0 1 6.104-7.475l351.37-66.521a7.503 7.503 0 0 1 8.303 4.448c.582 1.375 14.338 34.278 23.267 87.624 8.225 49.136 13.621 125.525-7.372 210.401-37.709 152.456-81.508 352.569-85.927 372.813 3.667 15.751 29.291 128.513 22.384 174.251-1.456 9.636-2.831 17.568-4.044 24.567-4.774 27.538-6.953 40.106-2.218 87.059 6.381 63.289 1.139 95.956-46.798 122.227a7.495 7.495 0 0 1-3.604.923zM696.433 963.061c2.13 149.775 6.862 428.122 10.141 449.998 4.862 32.44.16 67.917-4.387 102.225-4.335 32.709-8.43 63.604-3.817 88.502 3.149 17.001 8.62 32.379 13.91 47.25 10.817 30.409 21.034 59.131 6.442 91.601-9.417 20.957-17.128 57.295-19.643 92.577-2.671 37.475.876 66.533 9.489 77.73 12.4 16.122 49.725 17.294 92.942 18.653 44.443 1.397 94.676 2.976 140.675 19.937 37.433-21.638 42.024-47.166 36.103-105.892-4.94-48.996-2.499-63.076 2.364-91.126 1.2-6.923 2.561-14.77 3.991-24.245 6.847-45.336-22.245-168.978-22.539-170.222a7.5 7.5 0 0 1-.031-3.323c.463-2.129 46.772-214.734 86.384-374.881 20.327-82.181 15.146-156.208 7.22-203.839-6.548-39.355-15.998-67.681-20.207-79.132l-339.036 64.187z" fill="#1e284c"/><path d="M982.068 1872.939c11.638-28.234 20.609-10.902 35.931 13.358 17.591 27.852 154.406 47.837 154.406 47.837s19.193 93.786 7.985 176.489H695.754v-53.465c0-30.564 16.403-61.547 45.357-71.336 63.018-21.306 215.176-50.334 240.957-112.883z" fill="#dea2ff"/><path d="M1180.391 2118.122H695.755a7.5 7.5 0 0 1-7.5-7.5v-53.465c0-16.743 4.581-33.553 12.899-47.334 9.133-15.132 22.12-25.888 37.556-31.107 12.868-4.351 28.921-8.883 47.51-14.132 67.582-19.082 169.713-47.919 188.915-94.504 3.51-8.518 8.729-18.395 18.005-19.179 10.938-.925 18.31 10.827 28.502 27.094.878 1.401 1.777 2.836 2.7 4.296 2.812 4.451 16.153 16.39 79.16 31.063 35.684 8.311 69.65 13.308 69.989 13.357a7.502 7.502 0 0 1 6.264 5.917c.794 3.88 19.319 95.989 8.07 179a7.5 7.5 0 0 1-7.432 6.493zm-477.136-15h470.518c7.844-67.943-4.167-142.496-7.755-162.386-11.087-1.759-38.001-6.271-65.919-12.772-75.802-17.654-85.314-32.713-88.44-37.663-.932-1.476-1.84-2.926-2.728-4.342-4.751-7.583-11.154-17.802-14.475-19.862-.841.805-2.764 3.177-5.453 9.699-21.979 53.324-124.124 82.165-198.707 103.224-18.391 5.193-34.274 9.678-46.781 13.906-23.704 8.014-40.259 34.427-40.259 64.231v45.965zm278.813-230.184h.01z" fill="#1e284c"/><path d="M1180.387 2110.621h-484.63v-53.46h488.12l.01.04z" fill="#fff"/><path d="M1180.387 2118.121h-484.63a7.5 7.5 0 0 1-7.5-7.5v-53.46a7.5 7.5 0 0 1 7.5-7.5h488.12a7.501 7.501 0 0 1 7.287 5.723c.181.742.257 1.546.207 2.308l-3.5 53.42a7.5 7.5 0 0 1-7.484 7.01zm-477.13-15h470.105l2.52-38.46H703.257zm170.877-96.196a7.497 7.497 0 0 1-4.672-1.632l-48.282-38.436a7.5 7.5 0 1 1 9.342-11.735l39.064 31.098 11.483-47.912a7.501 7.501 0 0 1 10.509-5.028l52.273 24.802-2.414-48.029a7.502 7.502 0 0 1 8.663-7.784l71.296 11.275a7.5 7.5 0 0 1-2.343 14.815l-62.171-9.832 2.58 51.333a7.501 7.501 0 0 1-10.705 7.153l-55.255-26.217-12.074 50.378a7.499 7.499 0 0 1-7.293 5.752z" fill="#1e284c"/><path d="M1123.69 869.585s71.166 123.657 51.151 289.226c-10.008 82.785-16.441 353.492-16.441 353.492s31.991 64.171 36.012 193.483c2.834 91.15-3.101 220.16-15.391 271.296-96.747-42.89-192.492-12.16-257.66-51.421-37.324-22.486-21.215-93.666-20.064-173.172.708-48.884-36.008-97.919-52.132-149.07s8.448-85 .176-143.444c-13.562-95.821-25.643-281.876-25.643-281.876" fill="#95ff80"/><path d="M1179.02 1984.581a7.492 7.492 0 0 1-3.04-.644c-47.723-21.156-94.478-23.891-139.693-26.536-43.726-2.557-85.028-4.973-118.797-25.318-32.467-19.56-29.504-68.908-26.073-126.048 1.039-17.304 2.113-35.198 2.381-53.657.423-29.249-13.514-58.916-28.269-90.325-8.584-18.273-17.461-37.168-23.517-56.381-9.265-29.392-5.891-53.012-2.317-78.019 2.877-20.14 5.853-40.965 2.221-66.629-13.446-95.003-25.581-280.578-25.702-282.441a7.5 7.5 0 0 1 6.999-7.97c4.13-.272 7.702 2.865 7.97 6.999.121 1.857 12.219 186.871 25.585 281.312 3.931 27.775.802 49.674-2.224 70.852-3.469 24.28-6.465 45.25 1.774 71.388 5.754 18.254 14.413 36.687 22.787 54.513 14.83 31.567 30.165 64.209 29.691 96.92-.272 18.8-1.357 36.867-2.406 54.338-3.269 54.432-5.85 97.426 18.841 112.301 30.6 18.435 68.291 20.64 111.933 23.192 41.893 2.45 89.061 5.208 136.446 24.23 11.14-56.522 15.904-177.06 13.305-260.64-3.911-125.794-34.918-189.747-35.231-190.378a7.53 7.53 0 0 1-.782-3.516c.064-2.711 6.557-272.02 16.493-354.213 10.16-84.046-4.004-156.891-17.675-203.2-14.852-50.309-32.356-81.083-32.532-81.388a7.5 7.5 0 0 1 13.003-7.479c.744 1.294 18.408 32.275 33.771 84.135 14.151 47.768 28.818 122.93 18.324 209.732-9.427 77.986-15.763 327.363-16.345 350.99 5.226 11.343 32.254 75.446 35.967 194.852 2.771 89.113-2.835 220.19-15.595 273.282a7.504 7.504 0 0 1-7.293 5.747z" fill="#1e284c"/><path d="M1098.845 1962.744a7.5 7.5 0 0 1-7.497-7.863c7.657-157.898-2.725-216.481-20.733-294.2-1.134-4.893-3.042-11.087-5.063-17.645-3.478-11.29-7.419-24.085-8.851-34.942-2.019-15.308 1.528-25.063 10.54-28.998 5.176-2.259 7.853-3.992 9.204-5.074-5.18-3.409-20.465-7.268-25.887-8.637-3.524-.889-6.567-1.658-8.907-2.386-2.703-.842-8.329-2.595-8.735-8.404-.186-2.655 1.102-6.369 5.34-8.096 10.264-4.182 28.464-11.597 33.867-15.955-2.333-1.693-8.287-4.9-23.434-10.025-13.05-4.416-15.028-17.771-15.381-27.433-.446-12.207 1.558-28.83 4.33-51.838 4.056-33.654 9.61-79.745 10.96-141.496 2.617-119.698-15.884-218.132-31.865-279.631-17.328-66.683-35.514-105.536-35.696-105.921a7.5 7.5 0 0 1 13.56-6.412c.761 1.609 18.852 40.197 36.534 108.103 16.277 62.508 35.122 162.553 32.462 284.19-1.366 62.486-6.971 109-11.064 142.962-4.388 36.416-7.288 60.474.967 63.267 22.243 7.527 34.354 13.543 34.664 23.764.273 9.002-8.34 14.881-26.232 22.775 17.207 4.678 29.691 9.79 30.535 20.038.815 9.896-9.845 15.864-19.224 19.957-1.996.872-2.635 5.963-1.669 13.289 1.267 9.607 5.011 21.763 8.315 32.487 2.101 6.82 4.085 13.262 5.339 18.675 17.767 76.678 28.834 138.867 21.103 298.313a7.5 7.5 0 0 1-7.485 7.137zm-25.345-430.938h.01z" fill="#1e284c"/><path d="M1047.248 1145.458a7.491 7.491 0 0 1-2.885-.58c-101.42-42.311-127.34-101.766-128.394-104.276a7.5 7.5 0 0 1 4.013-9.818 7.5 7.5 0 0 1 9.809 3.99c.099.229 6.256 14.275 23.987 33.003 16.458 17.385 46.537 42.472 96.36 63.258a7.5 7.5 0 0 1-2.891 14.424z" fill="#1e284c"/><path d="M687.52 1075.011s149.758-11.453 275.338-47.943c78.302-22.752 151.728-56.4 183.757-105.685l-21.924-53.142-440.437 108.917 3.267 97.853z" fill="#fff"/><path d="M687.519 1082.512a7.497 7.497 0 0 1-7.496-7.249l-3.267-97.854a7.499 7.499 0 0 1 5.695-7.531l440.438-108.917a7.502 7.502 0 0 1 8.733 4.42l21.924 53.142a7.498 7.498 0 0 1-.645 6.947c-28.807 44.326-92.043 80.932-187.953 108.8-124.882 36.287-275.354 48.104-276.859 48.219a7.308 7.308 0 0 1-.572.022zm4.432-99.531 2.8 83.882c32.321-2.929 158.833-15.853 266.013-46.996 89.933-26.132 149.578-59.541 177.383-99.339l-17.928-43.455L691.95 982.981z" fill="#1e284c"/><path d="M649.118 912.951C601.496 793.726 511.342 600.2 518.733 422.26c5.828-140.319 119.259-205.649 119.259-205.649s70.617 5.344 126.997 30.609c69.583 31.181 150.813 87.039 220.372 263.576 51.666 131.124 72.858 193.374 98.537 244.854 24.143 48.402 54.594 76.396 40.792 112.591-12.022 31.526-61.838 51.35-125.813 86.658-67.767 37.401-104.526 38.97-196.311 44.786-52.146 3.305-88.19 10.13-109.586 15.405-12.555 3.095-24.96-5.538-26.41-18.387-2.713-24.038-7.922-59.893-17.452-83.751z" fill="#fff"/><path d="M687.848 1023.213a28.914 28.914 0 0 1-16.528-5.186 28.92 28.92 0 0 1-12.203-20.484c-4.048-35.87-9.915-64.161-16.964-81.81-5.521-13.822-11.621-28.66-18.08-44.369-24.248-58.981-54.425-132.384-77.276-209.715-26.852-90.87-38.483-169.277-35.558-239.701 3.1-74.634 36.308-128.213 63.619-160.019 29.582-34.449 58.188-51.125 59.391-51.818a7.52 7.52 0 0 1 4.309-.98c2.937.222 72.577 5.736 129.499 31.243 71.352 31.974 153.796 88.779 224.283 267.67 16.384 41.581 29.5 75.706 41.071 105.814 24.831 64.603 39.818 103.597 57.199 138.442 6.499 13.028 13.357 24.371 19.99 35.34 17.392 28.762 32.412 53.603 21.099 83.271-10.594 27.783-44.899 45.843-92.379 70.84-11.76 6.191-23.92 12.593-36.818 19.712-67.731 37.381-104.524 39.706-193.416 45.322l-6.045.382c-51.845 3.286-87.491 10.081-108.265 15.202a28.938 28.938 0 0 1-6.927.841zm-48.049-798.912c-6.772 4.285-30.255 20.142-53.932 47.834-25.601 29.942-56.729 80.347-59.641 150.436-6.464 155.618 61.844 321.771 111.721 443.09 6.473 15.745 12.587 30.617 18.136 44.508 7.647 19.145 13.683 47.976 17.939 85.691.456 4.038 2.541 7.538 5.871 9.857 3.333 2.321 7.345 3.064 11.292 2.089 21.369-5.268 57.956-12.252 110.908-15.607l6.047-.383c86.517-5.466 122.327-7.729 187.113-43.485 13.028-7.19 25.254-13.627 37.079-19.852 44.571-23.465 76.774-40.419 85.351-62.912 8.705-22.828-3.302-42.684-19.919-70.165-6.472-10.703-13.807-22.833-20.577-36.406-17.702-35.488-32.786-74.734-57.777-139.755-11.562-30.081-24.666-64.175-41.026-105.697C909.872 339.666 830.515 284.8 761.923 254.063 713.14 232.203 652.46 225.501 639.8 224.3z" fill="#1e284c"/><path d="M416.855 348.766c-28.737-20.582 133.881-214.752 168.278-184.958 35.572 30.812-17.786 124.754-73.514 160.902-61.714 40.031-59.575 49.26-94.764 24.056z" fill="#1e284c"/><path d="M445.918 370.352c-9.359 0-18.793-5.006-33.429-15.489-3.593-2.573-7.594-7.822-6.25-18.21 3.094-23.907 33.488-66.784 60.901-98.938 35.937-42.153 71.344-72.637 94.715-81.545 11.942-4.552 21.426-3.89 28.189 1.969 10.276 8.9 15.083 22.609 13.902 39.645-1.456 21.01-11.798 46.814-29.12 72.658-16.735 24.969-38.286 47.042-59.125 60.56-10.912 7.078-20.005 13.318-27.312 18.332-20.019 13.738-31.189 21.016-42.471 21.018zm-24.65-27.652c14.302 10.241 20.435 13.16 26.223 12.494 7.023-.807 16.58-7.365 32.411-18.229 7.378-5.063 16.561-11.364 27.636-18.548 19.198-12.453 39.182-32.983 54.829-56.327 15.656-23.358 25.357-47.175 26.616-65.344.854-12.321-2.093-21.496-8.759-27.27-3.996-3.462-19.834-1.319-53.84 28.682-25.879 22.83-55.444 56.113-77.157 86.862-28.193 39.925-29.239 55.554-27.958 57.68zm.024.038h.01z" fill="#1e284c"/><path d="M334.591 215.929c-24.793-73.584 1.104-148.735 57.843-167.852s140.42-3.941 160.517 97.25c7.098 35.741 18.558 52.263 18.558 52.263 2.41 58.259 68.826 53.629 68.826 53.629s-5.844 16.808-32.359 71.278c-31.941 65.615-63.573 75.847-63.573 75.847s-21.399-55.727-52.943-87.521c-69.68 34.89-132.074-21.307-156.868-94.893z" fill="#fff"/><g fill="#1e284c"><path d="M544.402 405.844a7.505 7.505 0 0 1-7.001-4.811c-.2-.521-19.554-50.338-47.644-81.119-25.609 11.343-52.104 11.961-76.947 1.726-36.73-15.132-68.628-53.755-85.327-103.317-12.517-37.151-13.098-75.928-1.636-109.189 11.7-33.952 34.497-58.16 64.192-68.165 37.195-12.532 77.963-9.266 109.054 8.738 31.427 18.198 52.595 50.758 61.214 94.158 6.642 33.439 17.275 49.318 17.382 49.475a7.607 7.607 0 0 1 1.313 3.939c.568 13.736 5.204 24.605 13.777 32.306 17.691 15.889 46.754 14.17 47.047 14.15 2.506-.165 4.943.937 6.467 2.938s1.951 4.632 1.125 7.008c-.245.703-6.293 17.851-32.7 72.097-32.959 67.707-66.593 79.242-68.009 79.7a7.476 7.476 0 0 1-2.308.366zm-52.946-102.523c1.956 0 3.885.764 5.327 2.218 25.515 25.719 44.256 65.614 51.436 82.365 10.136-6.49 31.427-24.35 53.012-68.692 15.412-31.659 23.81-50.561 28.09-60.697-12.266-.934-31.842-4.598-46.487-17.702-11.296-10.108-17.585-23.853-18.71-40.876-3.304-5.496-12.488-22.731-18.53-53.151-7.865-39.603-26.04-67.898-54.018-84.099-27.413-15.875-63.581-18.68-96.748-7.504-52.729 17.766-76.563 88.802-53.13 158.35 15.333 45.506 44.052 80.735 76.826 94.237 22.669 9.34 46.079 8.11 69.577-3.656a7.489 7.489 0 0 1 3.355-.794z"/><path d="M456.795 193.612c-.324 0-.651-.021-.982-.064l-11.518-1.506a7.502 7.502 0 0 1-6.266-5.474c-1.514-5.582-1.463-17.051 8.33-24.628 3.276-2.535 7.986-1.933 10.521 1.343s1.934 7.987-1.343 10.521a8.022 8.022 0 0 0-2.864 4.205l5.084.665a7.5 7.5 0 0 1-.963 14.937zm-4.26-10.863h.01zm38.929 135.574a7.5 7.5 0 0 1-3.424-14.178c.244-.126 14.133-7.433 23.676-21.625a7.5 7.5 0 0 1 12.448 8.37c-11.825 17.585-28.595 26.254-29.303 26.615a7.464 7.464 0 0 1-3.396.818z"/><path d="M571.353 76.91C540.12 17.577 472.696-6.729 412.01 15.801c-16.969 6.3-39.753 22.281-56.185 40.113-35.64 38.677-74.389 50.29-74.389 50.29s41.183 67.761 133.244 59.638c4.835-20.943 25.733-34.002 46.676-29.167s34.002 25.733 29.167 46.676c-2.159 9.353-7.527 17.125-14.666 22.442l-.054.05c21.024 19.056 101.423 16.472 101.423 16.472-1.892-16.407-1.512-29.817 2.616-47.696.005-.02.012-.037.018-.056.026-.084.043-.163.067-.246 6.469-22.809 11.186-59.868-8.575-97.407z"/><path d="M566.188 229.971c-24.021 0-77.095-1.959-95.422-18.571a7.497 7.497 0 0 1 .163-11.26c.145-.126.295-.247.449-.362a31.426 31.426 0 0 0 11.838-18.114c3.897-16.881-6.666-33.784-23.546-37.681-16.882-3.899-33.785 6.665-37.682 23.546a7.5 7.5 0 0 1-6.649 5.784c-49.876 4.402-85.296-12.899-106.228-28.187-22.75-16.616-33.633-34.282-34.085-35.026a7.5 7.5 0 0 1 4.256-11.079c.357-.108 37.347-11.639 71.027-48.189 16.86-18.296 40.606-35.199 59.09-42.062 65.223-24.215 136.126 2.974 168.591 64.646 20.599 39.132 16.347 77.582 9.153 102.947-.012.047-.027.106-.046.172-3.641 15.877-4.315 28.486-2.42 44.921a7.501 7.501 0 0 1-7.21 8.355c-1.62.052-5.655.16-11.279.16zm-78.214-25.326c17.864 7.926 54.842 10.518 81.031 10.327-1.032-14.595.056-26.996 3.53-42.04.035-.153.079-.316.127-.478.024-.091.048-.177.074-.265 6.423-22.65 10.266-57.044-8.02-91.786-28.908-54.915-92.032-79.126-150.096-57.571-16.209 6.018-38.119 21.712-53.28 38.165-26.156 28.385-53.775 42.699-68.022 48.741 4.955 6.092 13.302 15.078 25.164 23.655 26.04 18.83 56.464 27.347 90.49 25.35 7.879-21.734 30.991-34.703 54.073-29.375 24.939 5.758 40.545 30.732 34.787 55.671a46.413 46.413 0 0 1-9.857 19.606z"/></g><path d="M416.855 348.766s43.784-2.085 112.94-77.975c48.843-53.599 55.338-106.983 55.338-106.983s20.8 20.401 65.327 54.1c22.157 16.769 3.469 76.481-31.366 125.437-35.169 49.426-86.66 87.976-100.362 78.915-27.274-18.035-69.828-51.624-101.877-73.494z" fill="#fff"/><path d="M523.865 431.095c-3.576 0-6.667-.858-9.269-2.579-14.299-9.455-32.341-22.833-51.442-36.996-17.307-12.833-35.203-26.103-50.526-36.559a7.5 7.5 0 0 1 3.804-13.683c.746-.058 42.562-3.926 107.82-75.539 46.477-51.002 53.374-102.338 53.438-102.85a7.507 7.507 0 0 1 12.695-4.435c.204.2 21.077 20.533 64.602 53.474 13.165 9.964 16.07 30.223 8.402 58.586-6.516 24.103-20.434 52.233-38.184 77.179-16.85 23.68-38.629 46.634-59.753 62.974-17.575 13.595-31.502 20.427-41.587 20.427zm-89.288-79.092c12.049 8.589 24.935 18.144 37.511 27.468 18.935 14.04 36.819 27.3 50.781 36.533 1.522.649 12.103-.424 34.769-18.265 19.571-15.405 39.744-36.815 55.346-58.742 33.898-47.64 49.603-102.505 32.95-115.109-27.438-20.766-45.858-36.442-56.133-45.589-5.101 19.838-18.911 58.53-54.462 97.543-45.737 50.191-81.078 69.068-100.762 76.16z" fill="#1e284c"/><path d="m625.766 420.495-2.761 309.943-20.425 350.586 145.025 26.808 64.562-296.69a999.86 999.86 0 0 0 17.582-109.955c10.241-99.217 30.655-296.965 30.844-298.617 10.553-92.012-50.188-132.646-95.605-155.349" fill="#fff"/><path d="M747.612 1115.332c-.452 0-.91-.041-1.371-.126l-145.025-26.808a7.5 7.5 0 0 1-6.124-7.811l20.414-350.402 2.76-309.757c.037-4.142 3.44-7.507 7.566-7.433a7.5 7.5 0 0 1 7.433 7.566l-2.761 309.942c0 .123-.005.247-.012.369l-20.04 343.979 131.37 24.283 63.017-289.588a996.448 996.448 0 0 0 17.451-109.131C836.268 565 852.967 403.256 853.144 401.714c9.811-85.539-43.75-123.912-91.507-147.787a7.5 7.5 0 0 1 6.707-13.417c48.066 24.028 110.696 67.059 99.703 162.913-.203 1.838-11.154 107.864-30.835 298.532a1011.736 1011.736 0 0 1-17.714 110.78l-64.562 296.689a7.503 7.503 0 0 1-7.321 5.906z" fill="#1e284c"/><path d="m558.77 1182.187-82.945-.017c-8.074-1.378-13.641-8.856-12.645-16.986a15.34 15.34 0 0 1 12.776-13.278l48.851-12.561 77.773-58.322 109.146 20.176s10.999 13.343-5.384 51.786c-6.52 15.299-9.868 21.949-13.3 28.794-7.529 15.016-7.825 15.499-7.825 15.499l-126.446-15.092" fill="#fff"/><path d="M685.218 1204.779c-.295 0-.593-.017-.891-.053l-126.004-15.04-82.5-.017c-.422 0-.844-.036-1.26-.107-12.043-2.055-20.313-13.165-18.828-25.291 1.212-9.901 8.856-17.953 18.651-19.706l47.111-12.113 76.583-57.429a7.496 7.496 0 0 1 5.863-1.375l109.146 20.175a7.503 7.503 0 0 1 4.424 2.604c1.423 1.726 13.389 18.058-4.272 59.497-6.537 15.338-10.014 22.274-13.377 28.981l-.118.235c-7.672 15.302-7.951 15.757-8.136 16.058a7.5 7.5 0 0 1-6.392 3.58zm-208.652-30.109 82.205.017c.297 0 .593.018.887.053l121.252 14.473c1.147-2.272 2.864-5.683 5.426-10.794l.118-.235c3.411-6.803 6.633-13.228 12.987-28.139 10.55-24.754 8.726-37.452 7.219-42.155l-102.211-18.894-75.144 56.35a7.492 7.492 0 0 1-2.632 1.263l-48.851 12.561a7.241 7.241 0 0 1-.67.14c-3.423.554-6.108 3.344-6.529 6.786a7.829 7.829 0 0 0 5.942 8.574z" fill="#1e284c"/><path d="m644.03 1179.824-21.615 74.366a15.338 15.338 0 0 0 6.066 17.399c6.801 4.564 15.988 2.98 20.868-3.598l43.122-85.014c8.032-15.834-1.783-34.888-19.338-37.543l-66.718-10.089" fill="#fff"/><path d="M637.025 1281.703a22.77 22.77 0 0 1-12.724-3.887c-8.358-5.61-12.076-16.207-9.063-25.804l21.591-74.282a7.5 7.5 0 1 1 14.404 4.186l-21.615 74.366c-.019.063-.037.125-.057.187-1.054 3.303.221 6.96 3.1 8.892a7.83 7.83 0 0 0 10.334-1.422l42.787-84.355c2.726-5.375 2.707-11.53-.052-16.887-2.76-5.357-7.76-8.947-13.718-9.848l-66.718-10.089a7.5 7.5 0 0 1-6.294-8.537 7.498 7.498 0 0 1 8.537-6.294l66.718 10.089c10.776 1.629 19.819 8.121 24.81 17.81s5.025 20.821.095 30.541l-43.122 85.015a7.44 7.44 0 0 1-.666 1.076 22.8 22.8 0 0 1-18.347 9.244z" fill="#1e284c"/><path d="m595.59 1176.671-21.615 74.366a15.338 15.338 0 0 0 6.066 17.399c6.801 4.564 15.988 2.98 20.868-3.598l43.122-85.014" fill="#fff"/><path d="M588.585 1278.551a22.767 22.767 0 0 1-12.724-3.887c-8.358-5.609-12.075-16.207-9.064-25.804l21.591-74.282a7.5 7.5 0 1 1 14.404 4.186l-21.616 74.366a5.05 5.05 0 0 1-.057.186c-1.054 3.304.221 6.96 3.1 8.893a7.829 7.829 0 0 0 10.334-1.423l42.788-84.354a7.5 7.5 0 0 1 13.377 6.785l-43.123 85.014a7.58 7.58 0 0 1-.665 1.076 22.797 22.797 0 0 1-18.347 9.244z" fill="#1e284c"/><path d="m595.59 1176.671-43.122 85.014c-4.88 6.578-14.067 8.162-20.868 3.598a15.34 15.34 0 0 1-6.066-17.399l26.304-90.497" fill="#fff"/><path d="M540.144 1275.397a22.77 22.77 0 0 1-12.724-3.887c-8.358-5.609-12.075-16.207-9.064-25.804l26.28-90.413a7.5 7.5 0 1 1 14.404 4.186l-26.304 90.497c-.019.063-.037.125-.057.186-1.054 3.304.221 6.96 3.1 8.893a7.83 7.83 0 0 0 10.335-1.422l42.788-84.355a7.5 7.5 0 0 1 13.378 6.786l-43.123 85.015a7.44 7.44 0 0 1-.666 1.076 22.797 22.797 0 0 1-18.347 9.244z" fill="#1e284c"/></svg></g><g transform="translate(1488.0 1019.1428571428571) rotate(0.0 239.1428571428571 81.42857142857144) scale(0.8529301769142269 0.8490013807443509)"><svg width="560.756" height="191.822" viewBox="0 0 560.756 191.822"><path d="M437.375 184.322H20.4c-12.39 0-16.585-10.044-9.369-22.434l76.85-131.954c7.216-12.39 23.11-22.434 35.5-22.434h416.975c12.39 0 16.585 10.044 9.369 22.434l-76.849 131.953c-7.216 12.39-23.11 22.434-35.5 22.434z" fill="#1E284C"/><path d="M437.375 191.822H20.4c-8.065 0-14.621-3.359-17.988-9.215-3.828-6.66-3.049-15.587 2.138-24.494L81.4 26.16C89.943 11.491 108.383 0 123.381 0h416.975c8.065 0 14.621 3.359 17.988 9.215 3.828 6.66 3.049 15.587-2.138 24.494l-76.849 131.953c-8.543 14.669-26.984 26.16-41.981 26.16zM123.381 15c-9.654 0-23.215 8.743-29.019 18.709L17.513 165.662c-2.621 4.5-2.941 7.999-2.095 9.469.877 1.526 3.777 1.691 4.983 1.691h416.975c9.654 0 23.215-8.743 29.019-18.709L543.244 26.16c2.621-4.5 2.941-7.999 2.095-9.469-.877-1.526-3.777-1.691-4.983-1.691z" fill="#1E284C"/><path d="M240.615 62.392c36.591 0 57.514 15.007 46.732 33.519-10.781 18.512-49.184 33.519-85.775 33.519s-57.514-15.007-46.732-33.519h-54.736c-19.688 33.806 18.52 61.211 85.341 61.211s136.951-27.405 156.639-61.211c19.689-33.806-18.52-61.211-85.341-61.211z" fill="#DEA2FF"/><g fill="#FFF"><path d="M240.615 62.392c-36.591 0-74.994 15.007-85.775 33.519h-54.736C119.793 62.105 189.922 34.7 256.743 34.7zm109.393 110.519a7.457 7.457 0 0 1-3.767-1.021 7.5 7.5 0 0 1-2.707-10.255l80.487-138.198a7.5 7.5 0 1 1 12.962 7.548l-80.486 138.198a7.497 7.497 0 0 1-6.488 3.727zm51.452 0a7.457 7.457 0 0 1-3.767-1.021 7.5 7.5 0 0 1-2.707-10.255l80.487-138.198a7.5 7.5 0 1 1 12.962 7.548l-80.486 138.198a7.497 7.497 0 0 1-6.488 3.727z"/></g></svg></g><g transform="translate(1565.142857142857 1604.5714285714284) rotate(0.0 237.42857142857144 148.28571428571433) scale(0.8570593170650206 0.8570239636450108)"><svg width="554.054" height="346.048" viewBox="0 0 554.054 346.048"><path d="M103.547 166.723h332.879l-1.594-113.281s-18.407-.413-54.405-.413c-37.963 0-54.333-7.582-159.568-35.367C82.943-18.751 37.671 73.226 37.671 73.226s-13.624 8.054-16.409 30.712c-6.116 49.761 14.584 70.091 14.178 111.09-.278 28.077-18.508 70.365-25.297 82.392-9.73 17.236 9.452 30.857 24.463 20.32 11.448-8.035 41.143-65.911 40.587-120.64" fill="#fff"/><path d="M23.3 328.934c-5.901 0-11.633-2.053-16.123-6.122-8.03-7.278-9.429-18.692-3.566-29.079 7.054-12.495 24.073-52.91 24.329-78.779.166-16.758-3.422-29.877-7.221-43.767-5.183-18.949-10.542-38.544-6.901-68.165C16.39 82.093 27.343 71.64 31.888 68.14c3.381-6.039 15.924-26.078 41.59-42.652 27.324-17.646 75.406-34.585 149.297-15.077 24.35 6.429 44.198 11.846 60.145 16.198 53.252 14.534 69.323 18.92 97.508 18.92 35.669 0 54.388.411 54.573.415a7.5 7.5 0 0 1 7.331 7.393l1.594 113.281a7.502 7.502 0 0 1-7.5 7.606H103.547a7.5 7.5 0 0 1 0-15H428.82l-1.385-98.405c-8.457-.121-24.257-.289-47.008-.289-30.195 0-46.716-4.509-101.457-19.449-15.921-4.345-35.735-9.753-60.025-16.166-54.701-14.443-100.674-10.159-136.64 12.733C55.521 54.695 44.498 76.342 44.39 76.559c-.67 1.342-1.558 2.369-2.862 3.102-.87.567-10.624 7.301-12.823 25.194-3.28 26.686 1.462 44.022 6.482 62.377 3.903 14.269 7.938 29.024 7.751 47.872-.3 30.29-19.635 74.261-26.266 86.005-2.424 4.294-2.219 8.056.578 10.591 2.713 2.459 7.953 3.478 13.045-.096 7.926-5.563 37.952-59.758 37.396-114.425a7.5 7.5 0 0 1 7.423-7.576h.078a7.5 7.5 0 0 1 7.498 7.424c.338 33.265-10.075 64.811-16.313 80.654-8.761 22.253-19.798 40.82-27.465 46.201-4.813 3.378-10.282 5.055-15.614 5.055z" fill="#1e284c"/><path d="M354.852 152.865c-23.351 8.896-21.915 29.369-6.347 87.192 15.568 57.822 31.36 71.303 21.127 86.734-9.405 14.183-28.309 10.476-34.239.098-4.746-8.305-18.361-41.108-31.367-77.217-12.924-35.884-44.403-51.02-56.479-74.109-6.585-12.59-16.799-46.772-16.799-46.772" fill="#fff"/><path d="M352.675 343.599c-.324 0-.648-.005-.974-.016-9.54-.317-18.497-5.409-22.82-12.974-5.482-9.593-19.797-44.762-31.911-78.397-7.053-19.583-20.085-32.486-32.689-44.965-9.2-9.109-17.89-17.713-23.38-28.208-6.84-13.078-16.913-46.677-17.339-48.101a7.5 7.5 0 1 1 14.372-4.294c.1.335 10.084 33.637 16.259 45.443 4.408 8.429 12.293 16.236 20.641 24.501 13.146 13.016 28.046 27.769 36.248 50.542 12.877 35.754 26.333 68.183 30.822 76.038 1.743 3.05 5.976 5.281 10.294 5.424 3.232.104 7.795-.837 11.183-5.946 3.878-5.849 2.035-11.303-4.958-29.321-4.608-11.872-10.918-28.13-17.161-51.318-13.927-51.729-20.85-84.047 10.92-96.15a7.5 7.5 0 0 1 5.34 14.018c-15.795 6.017-18.102 17.592-1.775 78.233 6.034 22.411 12.176 38.236 16.66 49.791 7.371 18.991 11.82 30.455 3.475 43.038-5.363 8.086-13.78 12.664-23.208 12.664z" fill="#1e284c"/><path d="M500.11 147.573c8.776 11.246 19.412 40.352 16.647 60.907-1.564 11.624-9.534 18.458-18.804 20.872-6.879 1.792-13.797-2.762-14.824-9.795-1.9-13.009-11.233-33.295-20.27-47.588-13.074-20.677 28.474-35.642 37.25-24.397z" fill="#fff"/><path d="M494.94 237.238a19.484 19.484 0 0 1-10.759-3.237 19.413 19.413 0 0 1-8.472-13.359c-1.576-10.788-9.646-29.572-19.188-44.664-7.028-11.114-3.961-23.25 8.003-31.669 12.966-9.125 33.468-11.641 41.499-1.35 9.658 12.376 21.242 43.67 18.168 66.522-1.814 13.49-10.916 23.632-24.346 27.129a19.443 19.443 0 0 1-4.904.628zm-5.181-86.044c-4.568 0-11.647 1.577-17.304 5.896-6.832 5.216-4.417 9.036-3.256 10.872 8.752 13.842 19.167 35.553 21.352 50.512a4.346 4.346 0 0 0 1.919 3.025 4.42 4.42 0 0 0 3.594.596c4.372-1.139 11.907-4.551 13.261-14.614 2.476-18.41-7.461-45.465-15.123-55.289-.57-.62-2.206-.999-4.442-.999z" fill="#1e284c"/><path d="M176.381 125.622s10.008 19.459 7.761 41.255c-3.352 32.519-38.896 46.591-48.904 55.487s-38.363 21.82-20.571 72.53c9.683 27.599 2.403 38.302-6.243 42.326-7.488 3.484-16.379-.153-19.611-7.753l-31.352-73.714s18.844-36.725 3.276-74.532c-13.353-32.429-11.676-55.598-11.676-55.598" fill="#fff"/><path d="M102.434 346.057c-2.66 0-5.333-.493-7.911-1.482a22.572 22.572 0 0 1-12.613-12.173l-31.352-73.713a7.498 7.498 0 0 1 .229-6.359c.164-.324 17.017-34.245 3.014-68.253-13.867-33.676-12.295-57.977-12.221-58.995a7.5 7.5 0 0 1 14.961 1.083c-.013.194-1.29 22.037 11.13 52.201 14.1 34.244 2.451 67.135-2.011 77.506l30.053 70.66a7.489 7.489 0 0 0 4.185 4.041c1.779.683 3.682.629 5.36-.152 9.893-4.604 6.728-20.51 2.331-33.043-17.441-49.712 6.113-67.791 18.768-77.504 1.552-1.191 2.892-2.22 3.898-3.114 2.667-2.372 6.424-4.777 10.774-7.563 14.103-9.031 33.417-21.4 35.652-43.087 1.979-19.196-6.888-36.894-6.978-37.07-1.875-3.686-.417-8.202 3.265-10.085 3.683-1.883 8.19-.438 10.081 3.24.45.875 10.999 21.714 8.552 45.454-2.977 28.881-27.707 44.718-42.483 54.181-3.817 2.444-7.113 4.555-8.898 6.142-1.411 1.254-3.023 2.492-4.731 3.802-11.644 8.938-27.592 21.178-13.747 60.639 12.303 35.067-1.083 47.387-10.156 51.609a21.646 21.646 0 0 1-9.154 2.039z" fill="#1e284c"/><path d="M380.428 53.029c43.086 0 75.863-24.843 111.702 8.654 17.251 16.124 26.415 38.771 22.013 61.158-9.73 49.483-43.479 65.054-57.144 56.575-11.073-6.87-4.59-22.842-4.59-22.842-2.666 7.813-15.949 16.284-29.761 13.839-14.036-2.484-29.617-11.239-34.157-48.407" fill="#fff"/><g fill="#1e284c"><path d="M465.498 189.112c-4.627 0-8.885-1.107-12.455-3.322-4.723-2.931-7.42-6.961-8.794-11.267-6.613 3.209-14.65 4.739-22.91 3.276-23.102-4.088-36.283-22.041-40.294-54.883a7.5 7.5 0 0 1 14.889-1.818c4.616 37.789 21.016 40.691 28.019 41.931 9.824 1.739 19.283-4.267 21.188-8.456.104-.283.21-.557.317-.819a7.5 7.5 0 0 1 14.048 5.243c-.087.257-.182.513-.282.769-.642 1.861-3.189 10.228 1.728 13.278 2.176 1.35 6.757 1.81 13.093-.95 5.841-2.543 25.466-13.716 32.738-50.7 3.719-18.91-3.674-39.184-19.775-54.232-21.822-20.396-41.893-16.48-67.304-11.523-12.323 2.404-25.064 4.89-39.276 4.89a7.5 7.5 0 0 1 0-15c12.762 0 24.781-2.345 36.404-4.612 26.057-5.083 53.001-10.34 80.419 15.287 19.909 18.608 28.974 44.061 24.25 68.085-5.858 29.791-21.36 52.803-41.468 61.559-5 2.177-9.949 3.265-14.535 3.265z"/><path d="M463.901 153.368c-1.04 1.997-7.226 5.43-11.493 3.207s-4.998-9.259-3.957-11.256c1.04-1.997 5.342-1.814 9.609.409s6.881 5.643 5.841 7.641z"/><path d="M455.575 160.297c-1.65 0-3.195-.354-4.552-1.061-2.63-1.37-4.579-4.079-5.489-7.628-.596-2.327-.842-5.565.257-7.675 1.056-2.027 3.385-3.122 6.383-2.989 2.245.095 4.828.85 7.273 2.124s4.543 2.958 5.908 4.743c1.824 2.385 2.264 4.917 1.208 6.943-1.099 2.11-3.893 3.764-6.142 4.609-1.66.624-3.298.935-4.844.935zm-4.531-13.316c-.249 1.494.462 5.742 2.751 6.934 2.263 1.179 6.091-.619 7.251-1.734-.33-.714-1.617-2.357-4.372-3.792-2.776-1.446-4.871-1.55-5.63-1.407z"/></g><path d="M428.692 170.819s9.616 14.575 28.305 8.598" fill="#948781"/><path d="M448.344 188.337c-13.217 0-22.403-8.069-25.912-13.388a7.501 7.501 0 0 1 12.48-8.323c.734 1.051 7.218 9.669 19.802 5.647 3.946-1.263 8.166.914 9.428 4.859s-.914 8.167-4.859 9.428c-3.891 1.245-7.548 1.776-10.938 1.776z" fill="#1e284c"/><path d="M412.448 57.612s6.979-39.337 30.427-50.112c18.449 24.16 15.53 55.821 15.53 55.821" fill="#fff"/><path d="M458.413 70.821a7.5 7.5 0 0 1-7.477-8.189c.022-.25 1.973-24.452-10.25-44.991-12.776 10.224-19.305 32.553-20.853 41.281a7.5 7.5 0 1 1-14.769-2.62c.313-1.764 7.972-43.343 34.68-55.616a7.501 7.501 0 0 1 9.093 2.263c19.995 26.185 17.167 59.649 17.037 61.061a7.501 7.501 0 0 1-7.459 6.812z" fill="#1e284c"/><path d="M412.446 65.113c-.908 0-1.83-.166-2.727-.516-8.046-3.143-10.556-10.062-10.77-13.655a7.476 7.476 0 0 1 .38-2.843c.493-1.462 12.405-35.954 40.704-47.54a7.5 7.5 0 0 1 5.683 13.882c-18.035 7.383-28.12 28.492-31.174 35.876.168.103.376.207.634.308a7.5 7.5 0 0 1-2.73 14.487zm1.423-15.551zm79.382 36.45a7.49 7.49 0 0 1-4.108-1.224 7.497 7.497 0 0 1-3.339-7.209c.102-.811.703-5.032 2.47-8.467 1.887-3.669 4.226-6.036 4.675-6.473a7.488 7.488 0 0 1 2.747-1.7c1.276-.447 31.512-10.831 54.07-.141a7.501 7.501 0 0 1-4.059 14.23c-26.5-3.008-48.395 9.798-48.613 9.928a7.517 7.517 0 0 1-3.845 1.057z" fill="#1e284c"/><path d="M493.245 78.52s23.947-14.327 53.31-10.944c-.813 25.482-31.4 47.131-31.4 47.131s-15.902.37-20.628-9.638-1.282-26.549-1.282-26.549z" fill="#fff"/><path d="M515.161 122.206a7.5 7.5 0 0 1-4.339-13.622c.237-.169 21.68-15.619 27.044-34.021h-.346c-22.572 0-40.243 10.286-40.44 10.402-3.559 2.105-8.158.939-10.273-2.615s-.962-8.144 2.587-10.267c1.067-.639 26.492-15.592 58.019-11.959a7.5 7.5 0 0 1 6.638 7.69c-.922 28.878-33.19 52.041-34.563 53.013a7.46 7.46 0 0 1-4.326 1.379z" fill="#1e284c"/></svg></g><g transform="translate(2029.7142857142856 1237.7142857142856) rotate(0.0 150.85714285714278 370.7142857142858) scale(0.8565637032753012 0.8564141625490583)"><svg width="352.238" height="865.736" viewBox="0 0 352.238 865.736"><path d="M343.958 831.553 115.054 7.5H7.5l296.336 836.714a21.05 21.05 0 0 0 19.841 14.022c13.92 0 24.006-13.27 20.281-26.682Z" style="fill:#fff"/><path d="M323.677 865.736c-12.067 0-22.882-7.643-26.911-19.018L.43 10.004A7.5 7.5 0 0 1 7.5 0h107.554a7.499 7.499 0 0 1 7.226 5.492l228.904 824.054c2.409 8.67.667 17.752-4.779 24.916s-13.729 11.273-22.728 11.273ZM18.113 15l292.793 826.71a13.572 13.572 0 0 0 12.771 9.025c4.271 0 8.202-1.95 10.786-5.35a13.448 13.448 0 0 0 2.268-11.826L109.354 15H18.113Z" style="fill:#1e284c"/></svg></g><g transform="translate(1854.0 1001.1428571428571) rotate(0.0 64.28571428571422 48.0) scale(0.875099907239409 0.8793946833263104)"><svg width="146.922" height="109.166" viewBox="0 0 146.922 109.166"><path d="M118.423 59.027c-14.396 20.261-43.878 20.33-43.878 20.33L26.736 101.16c-7.922 2.08-16.081-2.432-18.532-10.247a15.339 15.339 0 0 1 6.152-17.369l60.015-60.911A42.37 42.37 0 0 1 104.552 0c23.72 0 42.819 19.471 42.362 43.187-.262 13.582-14.408 22.405-26.721 16.666l-1.77-.825Z" style="fill:#fff"/><path d="M22.807 109.171a22.813 22.813 0 0 1-21.76-16.014c-2.937-9.366.537-19.672 8.457-25.375l48.359-49.08a7.5 7.5 0 0 1 10.685 10.527L19.699 78.808a7.457 7.457 0 0 1-1.194.984 7.877 7.877 0 0 0-3.144 8.877 7.828 7.828 0 0 0 8.945 5.356l47.127-21.491a7.489 7.489 0 0 1 3.094-.676c.238-.002 25.855-.389 37.782-17.174a7.5 7.5 0 1 1 12.228 8.688C110.06 83.747 83.393 86.447 76.293 86.804l-46.446 21.181a7.452 7.452 0 0 1-1.208.431 22.973 22.973 0 0 1-5.832.756Z" style="fill:#1e284c"/></svg></g></svg>