<svg xmlns="http://www.w3.org/2000/svg" viewBox="0 0 3000 3000" width="3000" height="3000"><g transform="translate(427.5 347.1428571428571) rotate(0.0 561.4285714285714 1188.75) scale(1.0702653727076612 1.070336047252354)"><svg width="1049.139" height="2221.265" viewBox="0 0 1049.139 2221.265"><circle cx="507.605" cy="2013.765" fill="#FFF" r="200"/><path d="M309.778 2043.278c-7.628-85.445 97.543-148.539 182.037-128.761 42.769 10.011 82.952 46.586 82.952 92.952 0 37.092-30.069 67.161-67.161 67.161-26.395 0-56.419-25.84-53.729-53.729-48.002 62.5 17.961 133.985 87.163 136.762 106.41 4.27 182.58-88.857 159.878-195.259l.009-.035c-22.686-85.549-100.634-148.603-193.321-148.603-110.457 0-200 89.543-200 200 0 10.028.747 19.881 2.172 29.513z" fill="#DEA2FF"/><path d="M507.605 2221.265c-114.416 0-207.5-93.084-207.5-207.5s93.084-207.5 207.5-207.5 207.5 93.084 207.5 207.5-93.084 207.5-207.5 207.5zm0-400c-106.145 0-192.5 86.355-192.5 192.5s86.355 192.5 192.5 192.5 192.5-86.355 192.5-192.5-86.355-192.5-192.5-192.5z" fill="#1E284C"/><path d="M1041.462 545.785C1048.925 255.837 819.303 10.072 529.271 7.52 241.54 4.989 7.5 237.471 7.5 524.616v.433c.062 26.29 21.507 47.532 47.796 47.601 32.548.086 76.081.035 108.18-.027 23.245-.045 43.029-16.784 47.054-39.678 18.715-106.442 111.597-187.33 223.386-187.405 136.046-.091 239.168 121.049 225.699 256.426-11.298 113.561-88.519 191.761-201.288 333.333-201.012 252.353-91.865 545.383-50.298 635.347 7.813 16.909 24.798 27.664 43.424 27.664h91.435c25.856 0 47.051-20.475 47.879-46.318 2.658-82.979 20.216-260.194 116.383-387.509 116.066-153.658 325.75-286.188 334.309-618.699z" fill="#FFF"/><path d="M210.53 532.958c-4.023 22.887-23.803 39.622-47.041 39.666-32.101.062-75.64.113-108.192.027-26.29-.069-47.735-21.311-47.796-47.601v-.433c0-54.713 8.506-107.438 24.253-156.935 61.871-51.347 178.852-85.837 302.013 1.184-63.709 31.439-110.544 91.881-123.236 164.093zm758.831 301.475c-96.763-1.235-404.039 47.931-591.342 238.935-33.51 85.081-40.873 169.842-35.458 245.653 56.113-100.354 245.962-297.536 533.769-347.541 33.793-40.866 66.089-85.584 93.031-137.047zm-352.613 528.831c12.82-50.551 31.767-103.396 59.686-152.086-84.367 35.494-225.47 121.964-294.446 294.774 9.402 26.923 18.761 48.93 26.044 64.695 7.813 16.909 24.798 27.664 43.424 27.664h34.471c21.745-144.222 112.926-221.946 130.821-235.047zM853.887 128.242c27.46 75.487 36.951 169.468-10.886 270.174-50.926 107.208-126.95 189.566-190.343 243.424-20.529 81.479-77.526 149.256-157.374 247.59 46.147-35.178 114.937-84.58 199.686-141.775 152.263-102.758 276.774-183.942 342.5-281.968-16.965-134.248-84.658-254.042-183.583-337.445zM521.433 363.386c39.875 17.098 73.636 45.514 97.941 80.967 70.219-186.003 18.407-336.834-54.011-435.238a513.811 513.811 0 0 0-36.094-1.595c-104.273-.917-201.49 29.038-283.077 81.267 97.816 25.44 223.669 97.298 275.241 274.598z" fill="#DEA2FF"/><path d="M542.891 1605.811h-91.436c-21.528 0-41.245-12.568-50.232-32.018-21.664-46.887-59.11-142.94-66.495-259.45-4.15-65.467 1.856-128.691 17.854-187.917 19.095-70.691 52.699-136.568 99.881-195.8 16.294-20.456 31.675-39.378 46.548-57.677 86.532-106.459 143.698-176.79 153.144-271.725 6.423-64.556-14.687-128.945-57.914-176.655-41.795-46.128-98.677-71.529-160.168-71.529h-.15c-106.719.072-197.563 76.283-216.005 181.215-4.663 26.526-27.547 45.816-54.413 45.868-31.24.06-75.373.114-108.227.027C24.869 580.07.072 555.36 0 525.067v-.451c0-71.227 14.025-140.297 41.689-205.292C68.408 256.55 106.632 200.26 155.3 152.018c48.655-48.229 105.26-85.945 168.242-112.102C388.797 12.817 458.012-.597 529.336.021c70.833.623 139.426 15.399 203.872 43.918 61.994 27.433 117.616 66.382 165.32 115.763 48.856 50.573 86.802 109.334 112.783 174.651 26.858 67.521 39.525 138.723 37.649 211.627-2.985 115.964-30.479 218.108-84.054 312.267-46.822 82.291-105.505 145.918-162.257 207.45-32.608 35.356-63.409 68.751-89.513 103.309-93.222 123.415-111.984 293.078-114.871 383.228-.963 30.043-25.286 53.578-55.375 53.578zM434.072 338.041c33.338 0 65.442 6.964 95.427 20.699 28.74 13.166 54.262 31.925 75.856 55.759 46.068 50.845 68.566 119.445 61.725 188.211-9.891 99.416-68.187 171.137-156.429 279.701-14.852 18.271-30.208 37.164-46.456 57.562-199.256 250.148-88.152 543.56-49.354 627.529 6.542 14.16 20.915 23.31 36.615 23.31h91.436c21.942 0 39.681-17.156 40.383-39.058 1.355-42.34 6.503-107.699 23.323-178.619 20.183-85.09 52-156.811 94.571-213.169 26.547-35.145 57.59-68.803 90.455-104.438 110.524-119.835 235.796-255.659 242.341-509.933l7.498.193-7.498-.193c3.624-140.767-48.307-274.112-146.225-375.47C792.269 71.298 664.938 16.214 529.203 15.02a508.383 508.383 0 0 0-4.62-.021c-135.313 0-262.542 52.335-358.722 147.672C68.577 259.104 15 387.645 15 524.616v.383c.053 22.096 18.138 40.093 40.316 40.151 32.823.086 76.936.033 108.158-.027 19.584-.037 36.267-14.111 39.669-33.465 9.421-53.6 37.591-102.616 79.321-138.019 42.22-35.817 96.004-55.563 151.447-55.6h.16z" fill="#1E284C"/></svg></g><g transform="translate(1331.7857142857142 304.2857142857143) rotate(0.0 618.2142857142858 1210.1785714285713) scale(1.071639370507519 1.0714328400853048)"><svg width="1153.773" height="2258.991" viewBox="0 0 1153.773 2258.991"><path d="M619.979 293.09c27.839-30.689 30.189-80.394-9.682-110.944-42.581-32.628-57.882-47.2-73.192-90.291-28.727-80.851-95.771-68.259-95.771-68.259C399.163-10.398 300.4 6.701 284.77 101.377c-7.303 44.237-11.927 108.994-52.272 160.312s19.032 93.864 19.032 93.864c-26.524 50.127 80.111 140.145 222.329 122.378 113.963-14.237 146.501-59.734 157.508-82.166 24.023-48.959 8.971-85.219-11.388-102.676z" fill="#1e284c"/><path d="M437.289 487.719c-34.885 0-68.948-6.129-100.139-18.152-36.766-14.172-67.363-36.08-83.949-60.106-12.521-18.139-16.257-36.228-10.829-51.646-8.898-7.66-27.298-26.199-30.832-51.027-2.445-17.178 2.622-33.911 15.061-49.733 33.802-42.995 41.628-95.845 47.916-138.312.968-6.531 1.881-12.701 2.854-18.587 3.873-23.462 12.769-43.671 26.439-60.067 12.065-14.471 27.888-25.722 45.756-32.536 32.81-12.514 70.024-9.15 93.869 8.208 6.4-.638 20.841-1.125 37.438 4.55 20.133 6.884 47.457 24.448 63.299 69.034 14.72 41.429 29.328 55.157 70.687 86.849 19.488 14.933 30.873 34.826 32.925 57.529 1.87 20.707-4.483 41.756-17.557 58.787 20.01 21.143 31.385 58.641 7.873 106.561-22.536 45.929-79.009 75.773-163.312 86.304a302.916 302.916 0 0 1-37.499 2.345zM390.497 14.958c-11.73 0-23.944 2.168-35.587 6.609-19.674 7.504-53.987 28.01-62.741 81.032-.951 5.763-1.855 11.873-2.813 18.341-6.549 44.222-14.698 99.258-50.962 145.385-9.791 12.454-13.833 25.33-12.015 38.27 3.643 25.914 29.271 44.684 29.529 44.871 3.034 2.19 4 6.289 2.25 9.596-6.021 11.381-3.398 26.254 7.388 41.878 14.914 21.605 42.979 41.517 76.999 54.631 21.81 8.407 54.244 17.158 94.706 17.16 11.288 0 23.194-.68 35.678-2.24 79.044-9.875 131.503-36.856 151.704-78.028 21.772-44.372 9.35-77.485-9.536-93.678a7.5 7.5 0 0 1-.673-10.733c13.412-14.785 20.126-34.096 18.42-52.979-1.664-18.416-11.038-34.658-27.108-46.972-43.153-33.066-59.683-48.658-75.698-93.733-11.108-31.265-29.282-51.406-54.017-59.863-18.271-6.247-33.155-3.564-33.302-3.536a7.497 7.497 0 0 1-6.092-1.532c-11.826-9.533-28.425-14.477-46.13-14.477z" fill="#1e284c"/><path d="M482.559 317.017c-8.283-10.348-16.637-25.399-16.698-33.553 0 12.976-.6-80.078-.6-80.078l-106.711.8.651 86.893c.143 19.019-17.992 42.883-17.992 42.883-17.092 34.384 87.733 100.656 87.733 100.656s75.656-90.067 53.617-117.602z" fill="#fff"/><path d="M428.938 442.12a7.47 7.47 0 0 1-4.004-1.161c-1.09-.689-26.963-17.112-51.181-38.106-35.347-30.642-48.188-54.267-39.261-72.228.21-.422.459-.824.744-1.199 4.611-6.088 16.564-24.844 16.464-38.289l-.651-86.893a7.5 7.5 0 0 1 7.443-7.556l106.711-.8h.057a7.5 7.5 0 0 1 7.5 7.452c.184 28.532.468 70.318.563 79.37.023.23.036.464.038.7.036 4.931 6.094 17.729 15.054 28.922 11.501 14.369 5.603 39.81-18.032 77.777-16.254 26.111-34.911 48.4-35.697 49.336a7.495 7.495 0 0 1-5.747 2.676zm-81.254-104.297c-4.472 10.486 8.55 29.991 35.895 53.696 16.853 14.61 34.938 27.18 43.813 33.116 6.424-8.055 19.133-24.567 30.331-42.574 18.423-29.623 25.518-52.187 18.981-60.357-8.147-10.179-16.903-25.233-18.184-35.81a12.097 12.097 0 0 1-.184-2.006l-.027-2.606c-.021-2.227-.048-5.407-.077-9.225-.059-7.625-.131-17.792-.2-27.96-.088-12.706-.172-25.411-.223-33.155l-91.704.688.596 79.393c.147 19.66-15.875 42.51-19.017 46.799z" fill="#1e284c"/><path d="M519.224 123.449C503.145 60.258 454.001 15.743 399.453 19.768c-54.547 4.026-96.624 55.274-103.252 120.14-19.417 1.629-33.944 18.592-32.506 38.07 1.446 19.599 18.507 34.314 38.106 32.867.468-.035.931-.086 1.393-.138 18.166 58.634 65.31 99.013 117.375 95.171 52.065-3.843 92.77-50.706 102.131-111.371.465-.016.931-.033 1.399-.068 19.599-1.446 34.314-18.507 32.867-38.106-1.438-19.477-18.298-34.124-37.743-32.885z" fill="#fff"/><g fill="#1e284c"><path d="M413.613 313.636c-24.582.001-48.365-8.948-69.213-26.125-20.532-16.917-36.926-41.288-46.565-69.083-9.852-.289-19.228-3.918-26.793-10.443-8.714-7.516-13.979-17.976-14.826-29.453-1.576-21.348 12.916-40.399 33.205-45.127 4.188-30.974 16.405-59.637 34.716-81.231 20.046-23.641 46.598-37.805 74.765-39.884 28.164-2.077 56.51 8.034 79.809 28.476 21.282 18.672 37.575 45.231 46.265 75.254 20.767 1.696 37.896 18.413 39.472 39.763 1.637 22.172-13.894 41.721-35.312 45.571-5.454 28.909-18.093 55.426-35.919 75.174-19.937 22.086-44.866 34.822-72.095 36.831-2.508.185-5.014.277-7.508.277zM303.199 203.208a7.501 7.501 0 0 1 7.159 5.281c17.478 56.413 62.554 93.39 109.659 89.91 47.088-3.475 86.265-46.667 95.271-105.035a7.5 7.5 0 0 1 7.152-6.352c.368-.013.737-.025 1.107-.052 15.442-1.14 27.079-14.631 25.939-30.074-1.128-15.285-14.486-26.924-29.787-25.952a7.507 7.507 0 0 1-7.745-5.635c-15.387-60.466-62.455-101.707-111.95-98.05-49.482 3.652-90 51.353-96.343 113.423a7.498 7.498 0 0 1-6.834 6.711c-15.273 1.281-26.781 14.759-25.653 30.044.552 7.481 3.984 14.299 9.665 19.198 5.68 4.9 12.918 7.294 20.409 6.741.369-.027.736-.07 1.104-.111.283-.032.565-.048.846-.048z"/><path d="M296.201 139.909S418.886 88.728 422.408 25.205c1.093-19.708-131.503-19.244-126.207 114.704z"/><path d="M296.201 147.409a7.502 7.502 0 0 1-7.494-7.204c-1.145-28.941 3.864-54.096 14.887-74.767 9.354-17.542 22.775-31.539 39.894-41.602 29.29-17.22 64.604-19.258 79.208-10.357 6.628 4.039 7.356 9.34 7.201 12.141-3.738 67.443-125.621 119.047-130.808 121.21a7.497 7.497 0 0 1-2.888.578zM398.512 23.391c-9.555 0-22.233 1.854-35.88 7.594-21.97 9.242-57.64 33.989-59.042 97.348 11.461-5.425 30.957-15.329 50.421-28.32 26.455-17.659 58.246-44.688 60.809-73.823-2.243-1.441-8.132-2.799-16.308-2.799z"/><path d="M410.76 54.607s73.338 6.633 108.463 68.842c0 0-3.262-112.189-96.815-98.244"/><path d="M519.224 130.95a7.503 7.503 0 0 1-6.531-3.813C479.996 69.229 410.77 62.141 410.075 62.076c-4.12-.384-7.156-4.033-6.777-8.154a7.488 7.488 0 0 1 8.139-6.784c.795.072 19.746 1.874 43.26 11.635 20.6 8.552 38.287 20.613 52.304 35.532-4.288-16.339-12.418-35.906-27.787-48.743-14.319-11.96-33.057-16.312-55.698-12.939-4.089.609-7.913-2.215-8.523-6.312s2.216-7.913 6.313-8.524c27.086-4.038 49.827 1.45 67.584 16.311 35.71 29.889 37.764 86.728 37.834 89.133a7.5 7.5 0 0 1-7.497 7.719zm-216.152 86.775a7.502 7.502 0 0 1-7.189-5.377c-5.327-18.03-9.959-25.038-10.005-25.107-2.373-3.395-1.524-8.042 1.87-10.416 3.396-2.373 8.089-1.517 10.464 1.879.598.855 6.016 8.947 12.056 29.394a7.5 7.5 0 0 1-7.195 9.627zm219.684-16.214a7.5 7.5 0 0 1-7.437-8.547c2.975-21.112 7.146-29.911 7.611-30.845a7.501 7.501 0 0 1 13.451 6.639c-.121.259-3.618 7.912-6.208 26.298a7.502 7.502 0 0 1-7.417 6.455z"/></g><path d="M753.377 781.029c3.073 5.667 75.722 128.106 102.042 271.258 14.998 81.575 13.573 173.405.869 265.714-22.452 163.136-101.908 630.802-102.911 654.165H576.792L490.859 861.26" fill="#95ff80"/><path d="M753.377 1979.666H576.792a7.5 7.5 0 0 1-7.478-6.921L483.38 861.839a7.5 7.5 0 0 1 6.899-8.056 7.493 7.493 0 0 1 8.056 6.899l85.398 1103.985h162.908c3.228-25.135 16.418-106.529 36.374-229.208 23.866-146.713 53.568-329.303 65.842-418.479 13.521-98.249 13.247-186.848-.815-263.335-22.982-125.001-82.512-236.104-100.209-267.179-.529-.929-.884-1.554-1.05-1.86a7.5 7.5 0 0 1 13.186-7.15c.143.262.447.794.898 1.588 17.993 31.593 78.519 144.568 101.927 271.89 14.353 78.061 14.663 168.26.923 268.093-12.298 89.358-42.017 272.049-65.896 418.843-19.595 120.456-36.517 224.486-36.952 234.621a7.501 7.501 0 0 1-7.493 7.178z" fill="#1e284c"/><path d="m753.377 1972.166-3.222 39.363s-6.307 107.429-78.955 103.907c-68.493-3.32-66.756-109.152-66.756-109.152l-.264-34.118h149.198z" fill="#fff"/><path d="M674.671 2123.021c-1.268 0-2.545-.031-3.835-.094-31.462-1.525-54.242-22.667-65.879-61.141-8.203-27.126-8.041-53.43-8.014-55.528l-.264-34.034a7.503 7.503 0 0 1 7.5-7.558h149.197a7.5 7.5 0 0 1 7.475 8.111l-3.215 39.284c-.13 2.088-1.979 28.821-12.761 55.547-14.656 36.329-38.879 55.412-70.205 55.412zm-62.933-143.355.205 26.56v.181c-.015.981-.795 98.61 59.62 101.538 26.49 1.286 46.454-14.074 59.282-45.65 10.148-24.981 11.809-50.951 11.824-51.21.003-.054.007-.113.012-.167l2.558-31.251h-133.5zm369.824-117.133s-58.502-14.896-106.687 15.127c-53.154 33.119-53.854 87.035-53.854 87.035s60.525-3.946 112.172-44.722c47.459-37.47 48.368-57.44 48.368-57.44z" fill="#1e284c"/><path d="M821.021 1972.196a7.498 7.498 0 0 1-7.499-7.597c.03-2.369 1.396-58.417 57.387-93.304 50.32-31.354 109.989-16.67 112.504-16.029a7.5 7.5 0 0 1 5.642 7.609c-.109 2.394-2.472 24.503-51.214 62.985-52.87 41.742-113.765 46.152-116.331 46.319a7.252 7.252 0 0 1-.488.016zm125.562-105.8c-19.653 0-45.072 3.505-67.742 17.63-36.7 22.868-46.646 56.392-49.333 72.077 18.307-2.82 61.396-12.296 99.038-42.016 28.171-22.241 38.982-37.757 43.087-45.805-5.905-.908-14.675-1.886-25.05-1.886z" fill="#1e284c"/><path d="m929.827 1780.667 51.735 81.866s13.498 22.911 27.568 34.054c47.367 65.027 23.249 131.385-2.115 161.768-16.143 19.337-102.547 83.43-110.747 22.634 0-80.947-51.354-147.355-98.254-191.125-36.92-34.456-36.517-93.094.891-127.019 39.705-36.009 102.287-27.489 130.922 17.822z" fill="#fff"/><path d="M921.626 2114.059c-3.547 0-6.94-.423-10.131-1.343-8.789-2.535-19.854-9.923-22.66-30.725a7.462 7.462 0 0 1-.067-1.002c0-79.485-52.135-144.825-95.871-185.642-19.132-17.854-29.996-43.099-29.81-69.26.187-26.151 11.405-51.228 30.78-68.798 20.568-18.654 48.14-27.207 75.662-23.46 27.515 3.746 51.804 19.357 66.638 42.831l51.735 81.866c.042.066.082.133.122.2.127.215 12.976 21.854 25.762 31.981a7.497 7.497 0 0 1 1.406 1.463c22.039 30.256 31.585 64.541 27.604 99.148-3.04 26.441-13.984 52.626-30.024 71.842-11.158 13.365-57.753 50.897-91.146 50.897zm-17.859-33.596c2.174 15.039 9.471 17.144 11.885 17.84 23.601 6.8 73.594-30.366 85.605-44.755 22.306-26.72 47.775-88.636 2.384-151.754-14.313-11.767-27.328-33.411-28.477-35.347l-51.677-81.773c-12.463-19.72-32.867-32.835-55.981-35.981s-46.281 4.037-63.563 19.708c-16.515 14.978-25.698 35.503-25.857 57.794-.159 22.301 8.735 42.965 25.045 58.187 45.814 42.756 100.409 111.451 100.636 196.082z" fill="#1e284c"/><path d="M215.422 872.76s-67.404 177.039 29.144 419.707c33.852 85.085 75.008 174.673 108.788 229.91 35.062 57.334 88.049 100.563 137.504 146.068l330.163 296.251s11.018-25.065 72.278-63.938c52.409-33.257 88.263-38.224 88.263-38.224s-142.142-225.033-154.531-244.361c-104.247-162.625-214.503-218.496-214.503-218.496l-73.623-440.692" fill="#95ff80"/><path d="M821.051 1972.233a7.556 7.556 0 0 1-5.038-1.955L485.85 1674.027c-7.604-6.995-15.363-14.003-22.867-20.782-42.161-38.081-85.758-77.459-116.026-126.955-31.239-51.083-72.121-137.457-109.358-231.05-22.24-55.901-37.63-112.984-45.74-169.665-6.495-45.386-8.363-90.618-5.554-134.441 4.8-74.863 21.404-119.192 22.109-121.042a7.501 7.501 0 0 1 9.678-4.341 7.5 7.5 0 0 1 4.342 9.673c-.165.437-16.619 44.545-21.203 117.353-4.227 67.147 1.069 173.167 50.306 296.918 36.941 92.849 77.396 178.37 108.218 228.77 29.137 47.645 71.914 86.283 113.284 123.649 7.529 6.801 15.314 13.833 22.899 20.812l323.532 290.3c8.1-10.949 27.318-31.835 69.813-58.801 36.645-23.253 65.394-33.03 80.227-36.931-26.677-42.23-137.977-218.404-148.791-235.274-53.175-82.953-107.868-137.222-144.387-168.141-39.573-33.506-66.927-47.577-67.198-47.715a7.514 7.514 0 0 1-4.002-5.452l-73.623-440.691a7.5 7.5 0 0 1 6.161-8.633 7.496 7.496 0 0 1 8.634 6.162l73.018 437.069c8.673 4.833 33.118 19.438 66.207 47.393 37.433 31.625 93.464 87.121 147.819 171.915 12.261 19.127 153.137 242.153 154.558 244.403a7.5 7.5 0 0 1-5.311 11.435c-.329.047-35.134 5.31-85.273 37.127-57.693 36.611-69.357 60.472-69.469 60.708-.968 2.202-2.914 3.763-5.264 4.271a7.29 7.29 0 0 1-1.535.164z" fill="#1e284c"/><path d="M566.277 1146.506c-29.362 0-54.715-21.226-59.636-50.464L489.615 994.88a7.5 7.5 0 0 1 14.791-2.49l17.026 101.161c3.827 22.732 24.06 39.036 47.1 37.899 4.146-.194 7.655 2.988 7.857 7.125s-2.987 7.655-7.125 7.857c-.999.049-1.996.073-2.987.073z" fill="#1e284c"/><path d="m559.709 1393.421 52.818 6.255" fill="#f4bf42"/><path d="M612.537 1407.177c-.295 0-.592-.017-.892-.053l-52.818-6.255a7.5 7.5 0 0 1-6.566-8.33c.487-4.114 4.215-7.058 8.33-6.566l52.818 6.255a7.502 7.502 0 0 1-.872 14.949z" fill="#1e284c"/><path d="m524.96 1451.8 69.035-8.34" fill="#f4bf42"/><path d="M524.95 1459.301a7.5 7.5 0 0 1-.89-14.947l69.034-8.34a7.5 7.5 0 1 1 1.799 14.891l-69.034 8.34a7.553 7.553 0 0 1-.909.055z" fill="#1e284c"/><path d="M896.262 2080.989c94.45-44.479 112.867-184.402 112.867-184.402s57.362 27.336 73.318 53.745 10.809 46.795-15.441 70.425c-26.25 23.629-29.853 28.726-29.853 28.726s-12.878 11.855-8.75 47.722l8.75 76.031c0 19.34-11.367 37.397-30.12 46.835-22.079 11.112-53.981 13.813-93.412 13.813H812.737s-.803-34.633 26.765-52.819c24.467-16.14 56.764-30.478 56.764-77.801l-.005-22.276z" fill="#dea2ff"/><path d="M913.622 2241.385H812.738a7.5 7.5 0 0 1-7.498-7.326c-.037-1.583-.546-39.015 30.133-59.253 2.811-1.854 5.754-3.705 8.602-5.495 22.021-13.848 44.793-28.168 44.793-66.045l-.005-22.274a7.502 7.502 0 0 1 4.305-6.787c89.705-42.245 108.448-177.237 108.627-178.596a7.498 7.498 0 0 1 10.662-5.791c2.425 1.156 59.587 28.625 76.511 56.637 9.041 14.963 11.985 28.633 9.002 41.792-2.881 12.704-11.093 24.806-25.845 38.085-22.906 20.619-28.12 26.727-28.789 27.547-.364.575-.411.633-.926 1.059-.871.988-9.842 11.988-6.455 41.41l8.75 76.032c.032.285.049.571.049.857 0 22.389-13.123 42.902-34.247 53.534-25.52 12.843-61.598 14.614-96.784 14.614zm-92.818-15h92.818c31.739 0 67.257-1.546 90.04-13.012 15.9-8.002 25.827-23.195 25.989-39.723l-8.699-75.587c-4.114-35.748 7.588-50.447 10.589-53.572 1.758-2.159 8.217-9.297 30.448-29.308 24.023-21.625 27.828-38.15 14.04-60.972-10.235-16.94-42.219-36.3-61.19-46.334-2.569 13.538-8.365 38.866-19.772 67.046-21.396 52.859-52.901 91.032-91.303 110.734l.004 17.607c0 46.166-28.727 64.23-51.809 78.745-2.906 1.828-5.652 3.555-8.326 5.319-16.6 10.95-21.43 29.007-22.829 39.058z" fill="#1e284c"/><path d="M1101.75 2028.634c-8.677-46.175-6.334-59.236-19.302-78.301 15.956 26.409 10.809 46.795-15.441 70.425-26.25 23.629-29.853 28.726-29.853 28.726l8.517-2.477a29.843 29.843 0 0 1 32.49 11.133l54.961 75.769 13.151-10.295s-39.15-66.392-44.523-94.981z" fill="#1e284c"/><path d="M1133.122 2141.409a7.501 7.501 0 0 1-6.071-3.096l-54.962-75.77c-5.521-7.611-15.298-10.96-24.325-8.335l-8.517 2.477a7.5 7.5 0 0 1-8.219-11.531c.683-.965 5.383-6.947 30.961-29.971 24.023-21.625 27.828-38.15 14.04-60.972a7.5 7.5 0 0 1 2.369-10.191 7.5 7.5 0 0 1 10.251 2.094c10.079 14.818 11.831 26.603 15.012 47.997 1.296 8.713 2.908 19.556 5.46 33.137 5.07 26.985 43.227 91.904 43.611 92.557a7.5 7.5 0 0 1-1.837 9.715l-13.15 10.294a7.5 7.5 0 0 1-4.623 1.594zm-74.522-102.792c10.062 1.262 19.444 6.589 25.632 15.118l50.394 69.472 1.888-1.478c-9.712-16.953-37.466-66.887-42.134-91.711a742.324 742.324 0 0 1-4.127-24.233c-4.332 6.694-10.347 13.451-18.228 20.545a996.436 996.436 0 0 0-13.425 12.286zm-51.566 181.455c-22.079 11.112-53.981 13.813-93.412 13.813H812.738v17.606h144.08c47.834 0 85.363-27.174 80.336-78.254 0 19.34-11.367 37.397-30.12 46.835z" fill="#1e284c"/><path d="M956.817 2258.991H812.738a7.5 7.5 0 0 1-7.5-7.5v-17.606a7.5 7.5 0 0 1 7.5-7.5h100.884c31.739 0 67.257-1.546 90.04-13.012 16.032-8.069 25.991-23.448 25.991-40.136a7.5 7.5 0 0 1 14.964-.735c2.324 23.615-3.765 44.171-17.609 59.445-15.808 17.439-40.734 27.044-70.19 27.044zm-136.579-15h136.579c22.487 0 41.631-6.27 54.676-17.78-.36.189-.723.376-1.087.56-25.52 12.843-61.598 14.614-96.784 14.614h-93.384zm186.796-23.919h.01z" fill="#1e284c"/><path d="M572.668 2233.885s-22.284-35.86-6.67-65.886c.213-.411.433-.823.658-1.236 37.531-68.978 37.805-158.986 37.805-158.986s28.915 60.471 70.151 73.212c40.902-19.537 75.543-69.46 75.543-69.46s-4.453 78.517 12.319 133.293c4.91 16.035 13.836 34.405 14.534 49.685.454 9.933-2.256 24.597-9.818 39.377H572.668z" fill="#dea2ff"/><path d="M767.189 2241.385H572.668a7.498 7.498 0 0 1-6.37-3.542c-1.002-1.612-24.339-39.873-6.954-73.305.238-.457.479-.911.729-1.367 36.149-66.439 36.887-154.538 36.89-155.419a7.502 7.502 0 0 1 5.854-7.292 7.505 7.505 0 0 1 8.412 4.081c.268.558 26.671 54.896 62.842 68.344 37.446-19.309 69.597-65.162 69.925-65.634a7.5 7.5 0 0 1 13.649 4.701c-.044.772-4.175 77.845 12.001 130.673 1.453 4.745 3.271 9.697 5.194 14.94 4.486 12.228 9.125 24.871 9.661 36.599.587 12.849-3.388 28.974-10.634 43.135a7.499 7.499 0 0 1-6.677 4.084zm-190.084-15h185.366c5.636-12.564 7.374-24.314 7.044-31.535-.431-9.417-4.664-20.957-8.759-32.117-1.908-5.201-3.882-10.579-5.454-15.715-11.51-37.587-13.305-85.205-13.21-112.977-14.25 16.848-37.794 41.079-64.248 53.715a7.493 7.493 0 0 1-5.446.398c-27.211-8.408-48.93-35.069-61.797-54.723-2.793 32.246-11.322 89.066-37.357 136.915-.206.378-.402.748-.594 1.116-10.799 20.764-.192 45.788 4.455 54.921z" fill="#1e284c"/><path d="m572.668 2233.885 9.508 17.606h175.792l9.222-17.606z" fill="#1e284c"/><path d="M757.968 2258.991H582.177a7.5 7.5 0 0 1-6.599-3.936l-9.509-17.606a7.501 7.501 0 0 1 6.598-11.064h194.521a7.502 7.502 0 0 1 6.644 10.98l-9.222 17.606a7.5 7.5 0 0 1-6.644 4.02zm-171.317-15H753.43l1.365-2.606H585.242l1.408 2.606zm188.769-52.723a7.5 7.5 0 0 1-7.151-5.249c-12.397-39.354-79.752-29.161-80.431-29.052a7.498 7.498 0 0 1-8.583-6.227 7.497 7.497 0 0 1 6.217-8.585c3.292-.527 80.824-12.325 97.104 39.358a7.5 7.5 0 0 1-4.9 9.407 7.499 7.499 0 0 1-2.255.349z" fill="#1e284c"/><path d="m164.507 481.499 129.719-100.336 132.606 6.39 109.219-38.652 161.324 58.056 70.371 470.054-509.836 79.193z" fill="#fff"/><path d="M257.902 963.705a7.503 7.503 0 0 1-7.352-6.053l-93.402-474.704a7.496 7.496 0 0 1 2.77-7.38l129.72-100.337a7.487 7.487 0 0 1 4.95-1.559l131.132 6.319 107.83-38.159a7.504 7.504 0 0 1 5.042.013l161.323 58.056a7.498 7.498 0 0 1 4.877 5.946L775.163 875.9a7.498 7.498 0 0 1-6.266 8.521l-509.836 79.193c-.39.061-.777.09-1.159.09zm-85.143-479.107 91.118 463.089 495.347-76.942-68.604-458.247-154.591-55.633-106.696 37.758a7.485 7.485 0 0 1-2.863.421l-129.843-6.257-123.868 95.81z" fill="#1e284c"/><path d="M523.761 875.901a7.501 7.501 0 0 1-7.411-6.415l-62.008-423.515a7.5 7.5 0 0 1 14.842-2.173l62.008 423.515a7.5 7.5 0 0 1-7.431 8.587zm-59.69-16.903a7.501 7.501 0 0 1-7.411-6.415l-45.609-311.506a7.5 7.5 0 0 1 14.842-2.173l45.609 311.506a7.5 7.5 0 0 1-7.431 8.587zm-32.153-415.062a7.35 7.35 0 0 1-1.47-.15c-.479-.09-.95-.24-1.4-.43-.449-.18-.89-.42-1.3-.69s-.79-.58-1.13-.93a7.34 7.34 0 0 1-.939-1.14 7.527 7.527 0 0 1-1.12-2.7c-.09-.48-.141-.97-.141-1.46s.051-.98.141-1.47c.1-.48.239-.95.43-1.4s.42-.89.69-1.3c.279-.41.59-.79.939-1.13.34-.35.72-.66 1.13-.94.41-.27.851-.5 1.3-.69.45-.18.921-.33 1.4-.43.97-.19 1.97-.19 2.94 0 .47.1.949.25 1.399.43a7.46 7.46 0 0 1 2.431 1.63c.35.34.659.72.93 1.13.27.41.51.85.689 1.3.19.45.33.92.431 1.4a7.333 7.333 0 0 1 0 2.93 7.9 7.9 0 0 1-.431 1.41c-.18.45-.42.89-.689 1.29-.271.41-.58.8-.93 1.14-.341.35-.73.66-1.141.93-.399.27-.84.51-1.29.69-.45.19-.93.34-1.399.43-.49.1-.98.15-1.471.15zm39.66 315.159c-.6-4.1 2.23-7.91 6.33-8.51 4.1-.6 7.91 2.24 8.51 6.33a7.496 7.496 0 0 1-7.43 8.59 7.5 7.5 0 0 1-7.41-6.41zm-11.77-80.4a7.492 7.492 0 0 1 6.33-8.5c4.1-.6 7.909 2.23 8.51 6.33.6 4.1-2.24 7.91-6.33 8.51-.37.05-.74.08-1.1.08-3.66 0-6.87-2.69-7.41-6.42zm-11.771-80.39c-.6-4.1 2.23-7.91 6.33-8.51a7.504 7.504 0 0 1 8.51 6.34 7.503 7.503 0 0 1-7.43 8.59c-3.66 0-6.87-2.69-7.41-6.42zm-11.77-80.39a7.496 7.496 0 0 1 6.33-8.51c4.1-.6 7.909 2.24 8.51 6.33.6 4.1-2.23 7.91-6.34 8.51-.36.06-.73.08-1.09.08-3.66 0-6.87-2.68-7.41-6.41zm54.502 327.981c-.49 0-.98-.05-1.46-.14a7.56 7.56 0 0 1-3.84-2.05c-.351-.35-.66-.73-.931-1.14a6.97 6.97 0 0 1-.689-1.3c-.19-.45-.33-.92-.431-1.4a7.26 7.26 0 0 1 0-2.93c.101-.48.24-.95.431-1.4.18-.46.42-.89.689-1.3a7.297 7.297 0 0 1 2.071-2.07 7.56 7.56 0 0 1 2.7-1.12 7.41 7.41 0 0 1 4.33.43c.449.19.89.42 1.29.69.42.27.8.59 1.149.93.34.35.65.73.93 1.14.271.41.5.84.69 1.3.18.45.33.92.43 1.4.091.48.141.98.141 1.46 0 .49-.05.99-.141 1.47a7.69 7.69 0 0 1-1.12 2.7c-.279.41-.59.79-.93 1.14-.35.34-.729.66-1.149.93a7.635 7.635 0 0 1-2.69 1.12c-.49.09-.98.14-1.47.14z" fill="#1e284c"/><path d="M368.663 469.339s20.293-69.624 58.169-81.787l-79.889-62.149-45.962 48.614s23.789 69.78 67.682 95.321z" fill="#fff"/><path d="M368.661 476.838a7.493 7.493 0 0 1-3.771-1.017c-45.788-26.645-70-96.426-71.008-99.383a7.501 7.501 0 0 1 1.648-7.573l45.962-48.614a7.501 7.501 0 0 1 10.056-.767l79.889 62.149a7.499 7.499 0 0 1-2.313 13.06c-27.901 8.959-47.908 58.438-53.263 76.748a7.502 7.502 0 0 1-7.201 5.398zm-59.026-101.056c5.386 13.922 24.584 59.048 55.006 81.885 6.406-17.792 22.412-55.374 48.038-71.624l-64.965-50.539-38.079 40.277z" fill="#1e284c"/><path d="M513.145 452.746s-44.151-62.413-86.313-65.193l55.727-70.535 49.157 31.884s14.093 47.551-18.571 103.844z" fill="#fff"/><path d="M513.145 460.246a7.498 7.498 0 0 1-6.12-3.166c-.422-.595-42.602-59.532-80.686-62.043a7.498 7.498 0 0 1-5.391-12.133l55.728-70.535a7.498 7.498 0 0 1 9.966-1.643l49.156 31.884a7.495 7.495 0 0 1 3.109 4.161c.613 2.068 14.623 51.322-19.273 109.74a7.5 7.5 0 0 1-6.488 3.736zm-72.761-77.748c30.404 9.108 58.739 40.45 71.64 56.447 20.155-41.145 15.069-75.907 13.094-85.385l-40.907-26.534-43.826 55.471z" fill="#1e284c"/><path d="M626.254 436.597c-5.373-26.666-10.198-58.904-10.198-58.904s11.735-18.113 36.65-24.511 99.443 21.695 133.879 99.192 61.521 222.773 81.749 248.868c28.33 36.546 92.331 70.735 97.753 120.405 6.685 61.233-27.137 70.718-41.46 107.937-43.266 112.431-187.544 83.242-208.918.763-5.187-20.016-7.074-51.235-1.037-70.954 15.94-52.061-4.498-74.942-21.313-91.255-18.748-18.189-46.669-44.254-12.232-103.766 22.148-38.275-16.774-58.431-30.867-105.214" fill="#fff"/><path d="M821.547 1010.944c-2.395 0-4.8-.069-7.217-.207-51.116-2.911-94.656-35.195-105.88-78.508-5.45-21.027-7.525-53.552-.947-75.031 15.318-50.029-5.554-70.277-19.365-83.676l-.604-.586c-18.662-18.094-49.896-48.379-12.896-112.319 11.826-20.438 3.295-34.115-9.618-54.818-7.743-12.415-16.52-26.486-21.939-44.476a7.5 7.5 0 0 1 14.364-4.326c4.842 16.076 12.702 28.678 20.304 40.865 13.481 21.614 26.215 42.028 9.873 70.269-31.137 53.808-8.131 76.114 10.355 94.037l.607.589c14.422 13.991 41.266 40.034 23.262 98.834-5.701 18.619-3.675 48.353 1.125 66.877 9.609 37.077 47.528 64.75 92.213 67.295 46.538 2.652 84.831-23.095 102.445-68.871 5.199-13.511 12.632-23.427 19.819-33.018 13.573-18.111 25.296-33.752 21.185-71.412-3.291-30.147-31.265-54.974-58.316-78.985-14.393-12.774-27.986-24.839-37.909-37.639-11.019-14.214-22.412-55.476-36.837-107.716-13.52-48.96-28.842-104.453-45.838-142.701-18.366-41.332-46.88-65.068-67.565-77.701-24.264-14.819-47.339-19.905-57.595-17.271-16.974 4.359-26.973 14.741-30.627 19.215 1.338 8.667 5.346 34.031 9.662 55.455a7.5 7.5 0 0 1-5.871 8.833 7.496 7.496 0 0 1-8.834-5.871c-5.348-26.543-10.214-58.951-10.262-59.275a7.5 7.5 0 0 1 1.122-5.188c.545-.84 13.643-20.652 41.079-27.697 16.019-4.112 43.804 3.522 69.144 18.999 22.506 13.746 53.519 39.548 73.454 84.411 17.45 39.27 32.932 95.335 46.59 144.8 12.872 46.615 25.029 90.645 34.233 102.518 9.068 11.698 22.155 23.313 36.011 35.611 27.82 24.692 59.352 52.678 63.271 88.575 4.754 43.546-9.911 63.114-24.094 82.036-6.876 9.175-13.371 17.841-17.822 29.409-10.597 27.536-27.326 48.43-49.725 62.102-17.845 10.893-38.58 16.563-60.356 16.564z" fill="#1e284c"/><path d="M237.022 472.905c-.914-21.095-3.9-44.479-3.9-44.479s-15.453-18.625-41.175-18.905-72.7 23.845-95.973 125.235C77.002 617.41 90.907 752.045 60.56 801.004 16.234 872.519.521 909.489 10.284 945.108c9.424 34.383 48.346 37.561 54.598 68.236 22.239 109.112 170.425 118.186 218.426 11.992 28.573-63.212-27-187.97-5.618-204.343 26.839-20.552 40.404-50.515-1.485-84.69-41.147-33.568-25.444-76.958-25.22-125.816" fill="#fff"/><path d="M171.005 1107.761c-4.582 0-9.154-.252-13.698-.762-51.125-5.736-89.355-41.049-99.772-92.158-2.527-12.396-11.963-19.599-22.888-27.94-12.261-9.36-26.156-19.969-31.596-39.811-10.915-39.823 7.792-80.11 51.135-150.036 16.507-26.631 19.32-84.508 22.041-140.48 2.102-43.231 4.275-87.935 12.438-123.495 10.639-46.348 27.111-81.424 48.96-104.252 16.328-17.061 35.931-26.808 53.867-26.808.18 0 .356 0 .537.003 28.863.314 46.145 20.746 46.865 21.615a7.496 7.496 0 0 1 1.668 3.839c.124.967 3.036 23.938 3.953 45.104a7.501 7.501 0 0 1-7.169 7.818 7.494 7.494 0 0 1-7.817-7.168c-.723-16.676-2.786-35.021-3.554-41.462-3.973-3.937-16.322-14.553-34.11-14.747a56.31 56.31 0 0 0-.412-.002c-28.126 0-67.922 31.213-88.169 119.416-7.864 34.262-10.004 78.29-12.074 120.867-2.942 60.542-5.723 117.725-24.273 147.655-46.384 74.832-57.93 107.114-49.418 138.168 4.1 14.958 14.85 23.165 26.231 31.854 12.208 9.321 24.832 18.958 28.482 36.867 9.073 44.513 42.313 75.262 86.748 80.247 49.673 5.576 95.795-21.843 117.495-69.846 15.106-33.422 4.769-87.229-3.539-130.465-7.725-40.208-12.828-66.771.195-76.743 10.04-7.689 22.057-19.928 22.282-34.571.19-12.33-7.867-25.234-23.949-38.353-35.097-28.633-32.422-63.629-29.591-100.681.77-10.06 1.564-20.462 1.612-30.981a7.5 7.5 0 0 1 7.499-7.466h.035a7.5 7.5 0 0 1 7.466 7.534c-.051 11.057-.866 21.732-1.655 32.055-2.743 35.888-4.909 64.235 24.116 87.915 19.815 16.166 29.729 33.058 29.465 50.207-.251 16.341-9.989 32.334-28.161 46.249-.311.238-3 2.762-1.759 17.915.962 11.749 3.979 27.458 7.176 44.089 8.706 45.317 19.543 101.716 2.476 139.474-12.493 27.64-32.331 49.565-57.367 63.406-18.874 10.435-40.386 15.929-61.771 15.93z" fill="#1e284c"/><path d="m795.053 944.637-375.784-56.125.743-92.117 379.879-36.545c52.017-5.004 97.967 33.768 101.786 85.885 4.361 59.517-47.602 107.716-106.624 98.901z" fill="#fff"/><path d="M808.989 953.176c-4.991 0-10.017-.37-15.044-1.121L418.161 895.93a7.501 7.501 0 0 1-6.393-7.479l.743-92.117a7.5 7.5 0 0 1 6.782-7.405l379.879-36.544c27.185-2.615 53.65 5.644 74.522 23.256s33.466 42.311 35.461 69.547c2.246 30.653-9.39 60.22-31.923 81.122-18.807 17.444-43.063 26.866-68.244 26.866zM796.16 937.22c25.867 3.863 51.698-4.122 70.872-21.907 19.175-17.785 29.075-42.945 27.165-69.028-1.698-23.176-12.415-44.193-30.175-59.179-17.762-14.986-40.273-22.015-63.414-19.789l-373.151 35.897-.636 78.843z" fill="#1e284c"/><path d="m485.171 952.484 114.698-35.592s56.059 17.841 96.933 22.766c7.903.952 143.755 10.896 143.755 10.896a12.183 12.183 0 0 0 2.099-24.154l-76.358-20.765 87.991-2.301a12.183 12.183 0 0 0 11.294-12.152c.012-6.21-4.854-11.358-11.016-12.129l-102.241-12.786 93.106-18.609a12.181 12.181 0 0 0 8.086-13.477c-1.055-6.506-7.093-10.993-13.626-10.127l-81.878 6.271c-19.495 2.585-55.514-3.687-74.167-9.915l-.302-.246 40.583-39.763c5.333-6.216 4.842-15.526-1.115-21.147a15.34 15.34 0 0 0-18.311-2.059l-122.856 69.356-118.222 6.713c-33.036 1.876-58.56 29.737-57.54 62.811 1.243 40.319 40.562 68.362 79.087 56.407z" fill="#fff"/><path d="m599.869 916.893-364.487 113.104c-49.91 15.487-102.789-13.12-117.137-63.369-16.384-57.383 24.68-115.15 84.26-118.534l379.341-21.541" fill="#fff"/><path d="M207.632 1041.739c-16.475 0-32.788-4.099-47.723-12.178-24.021-12.994-41.379-34.613-48.877-60.874-8.438-29.554-3.064-60.871 14.743-85.921s45.619-40.417 76.305-42.159l379.341-21.541c4.133-.226 7.679 2.927 7.913 7.063a7.501 7.501 0 0 1-7.063 7.913L202.93 855.583c-26.11 1.483-49.776 14.558-64.929 35.874s-19.726 47.964-12.545 73.112c6.38 22.346 21.15 40.742 41.59 51.799 20.438 11.058 43.917 13.354 66.112 6.466L597.645 909.73a7.499 7.499 0 0 1 9.386 4.94 7.5 7.5 0 0 1-4.94 9.386L237.604 1037.16c-9.865 3.062-19.949 4.579-29.972 4.579z" fill="#1e284c"/><path d="M360.603 903.849a7.5 7.5 0 0 1-7.15-5.246 7.5 7.5 0 0 1 4.896-9.409l220.494-69.558 122.12-68.94c8.694-5.081 19.867-3.809 27.197 3.105 8.887 8.384 9.616 22.214 1.66 31.486a7.606 7.606 0 0 1-.442.473l-40.658 39.837a7.5 7.5 0 0 1-10.498-10.714l40.389-39.573a7.829 7.829 0 0 0-.743-10.598c-2.522-2.379-6.371-2.813-9.357-1.052l-.12.069-122.855 69.356a7.535 7.535 0 0 1-1.431.621l-221.241 69.793a7.5 7.5 0 0 1-2.259.35zm479.954 54.206c-.183 0-.365-.007-.548-.02-5.554-.407-136.118-9.968-144.104-10.93-41.104-4.953-95.994-22.328-98.311-23.065a7.5 7.5 0 0 1-4.872-9.421 7.499 7.499 0 0 1 9.421-4.873c.554.176 55.872 17.685 95.557 22.467 6.096.734 95.975 7.39 143.013 10.833a4.668 4.668 0 0 0 4.323-3.942 4.66 4.66 0 0 0-3.762-5.332 7.742 7.742 0 0 1-.585-.134l-76.358-20.764a7.501 7.501 0 0 1-5.27-9.205c1.088-3.998 5.22-6.354 9.205-5.27l76.102 20.694c10.354 2.118 17.139 11.868 15.484 22.348a19.632 19.632 0 0 1-19.205 16.613h-.09z" fill="#1e284c"/><path d="M745.439 913.682a7.5 7.5 0 0 1-.192-14.998l108.63-2.841a4.67 4.67 0 0 0 4.184-4.211 4.66 4.66 0 0 0-4.079-5.092l-102.586-12.829a7.5 7.5 0 1 1 1.861-14.884l102.586 12.829c10.64 1.331 18.173 10.733 17.149 21.407a19.631 19.631 0 0 1-18.156 17.752 8.163 8.163 0 0 1-.351.018l-108.846 2.847-.2.002zm108.85-10.347h.01z" fill="#1e284c"/><path d="M742.554 875.722a7.5 7.5 0 0 1-1.462-14.856l102.271-20.441a4.67 4.67 0 0 0 2.753-5.042 4.663 4.663 0 0 0-5.238-3.892 8.018 8.018 0 0 1-.413.043l-81.677 6.255c-21.645 2.791-59.4-4.282-77.315-10.264a7.499 7.499 0 0 1-4.739-9.489 7.497 7.497 0 0 1 9.489-4.738c19.208 6.414 53.568 11.879 70.807 9.594.137-.018.274-.033.413-.043l81.694-6.257c10.551-1.274 20.081 5.884 21.786 16.39a19.633 19.633 0 0 1-13.065 21.775 7.354 7.354 0 0 1-.955.257l-102.871 20.561c-.496.099-.99.147-1.478.147zM599.87 924.395a7.488 7.488 0 0 1-2.313-.367c-24.928-8.071-37.404-25.646-37.924-26.39a7.5 7.5 0 0 1 12.287-8.604c.203.282 10.42 14.3 30.258 20.723a7.5 7.5 0 0 1-2.309 14.637z" fill="#1e284c"/><path d="m556.332 783.281-133.488 12.801-94.733-8.986A45.822 45.822 0 0 0 296 796.274l-92.532 70.542a12.183 12.183 0 0 0-2.374 15.537c3.442 5.62 10.73 7.484 16.448 4.205l65.22-37.398-53.184 73.79a12.182 12.182 0 0 0 1.203 15.671c4.625 4.696 12.146 4.862 16.973.375l81.26-76.171-66.975 83.607a12.18 12.18 0 0 0 2.112 15.574c4.89 4.419 12.407 4.148 16.966-.612l79.487-65.048 221.241-69.794s-.503-19.641-11.946-20.26c-22.28-1.205-13.568-23.012-13.568-23.012z" fill="#fff"/><path d="M239.449 949.79c-5.078 0-10.143-1.979-14.012-5.907a19.632 19.632 0 0 1-1.943-25.319l65.899-91.431a7.5 7.5 0 1 1 12.168 8.77l-65.899 91.431a4.67 4.67 0 0 0 .463 6.023 4.657 4.657 0 0 0 6.522.144l81.238-76.149c3.021-2.833 7.768-2.679 10.601.343s2.68 7.768-.343 10.601l-81.261 76.171c-3.826 3.557-8.637 5.323-13.434 5.323z" fill="#1e284c"/><path d="M272.325 972.689c-4.7 0-9.414-1.694-13.202-5.118a19.633 19.633 0 0 1-3.412-25.164 7.57 7.57 0 0 1 .476-.664l66.975-83.607a7.5 7.5 0 1 1 11.707 9.377l-66.659 83.214a4.669 4.669 0 0 0 .972 5.715 4.657 4.657 0 0 0 6.52-.236c.21-.219.433-.425.667-.617l79.487-65.047a7.483 7.483 0 0 1 2.493-1.348l220.494-69.558 122.173-68.97a7.5 7.5 0 0 1 7.375 13.062l-122.856 69.356a7.517 7.517 0 0 1-1.432.621l-219.864 69.359-78.059 63.878c-3.84 3.816-8.839 5.745-13.854 5.745z" fill="#1e284c"/><path d="M211.438 895.705c-6.609 0-13.016-3.356-16.739-9.435a19.633 19.633 0 0 1 3.834-25.103c.126-.11.255-.215.388-.316l92.532-70.542a53.192 53.192 0 0 1 37.365-10.68l94.021 8.918 132.776-12.733c4.115-.394 7.786 2.627 8.182 6.75s-2.627 7.786-6.75 8.182l-133.488 12.801a7.445 7.445 0 0 1-1.424 0l-94.733-8.986a38.199 38.199 0 0 0-26.855 7.676l-92.287 70.354a4.67 4.67 0 0 0-.77 5.842 4.657 4.657 0 0 0 6.321 1.617l65.221-37.398a7.5 7.5 0 0 1 10.236 2.776 7.5 7.5 0 0 1-2.775 10.237l-65.221 37.398a19.716 19.716 0 0 1-9.834 2.641z" fill="#1e284c"/></svg></g></svg>